<?xml version="1.0" standalone="no"?>
<!DOCTYPE svg PUBLIC "-//W3C//DTD SVG 1.1//EN" "http://www.w3.org/Graphics/SVG/1.1/DTD/svg11.dtd" >
<svg xmlns="http://www.w3.org/2000/svg" xmlns:xlink="http://www.w3.org/1999/xlink" version="1.1">
<metadata>
Created by FontForge 20170731 at Wed Dec 16 17:25:45 2020
 By Aleksey,,,
TypeJuice(c) 2020
</metadata>
<defs>
<font id="JoyrideSTDOutline" horiz-adv-x="1882" >
  <font-face 
    font-family="Joyride STD Outline"
    font-weight="400"
    font-stretch="normal"
    units-per-em="2048"
    panose-1="0 0 0 0 0 0 0 0 0 0"
    ascent="1638"
    descent="-410"
    x-height="1035"
    cap-height="1434"
    bbox="-317 -518 4295 1961"
    underline-thickness="102"
    underline-position="-409"
    unicode-range="U+000A-F033"
  />
<missing-glyph horiz-adv-x="1079" 
d="M102 1434h875v-1434h-875v1434zM160 1393l379 -633l381 633h-760zM514 717l-369 614v-1231zM541 674l-379 -631h758zM565 717l371 -621v1239z" />
    <glyph glyph-name=".notdef" horiz-adv-x="1079" 
d="M102 1434h875v-1434h-875v1434zM160 1393l379 -633l381 633h-760zM514 717l-369 614v-1231zM541 674l-379 -631h758zM565 717l371 -621v1239z" />
    <glyph glyph-name=".null" horiz-adv-x="0" 
 />
    <glyph glyph-name=".null" horiz-adv-x="0" 
 />
    <glyph glyph-name="nonmarkingreturn" horiz-adv-x="682" 
 />
    <glyph glyph-name="controlLF" unicode="&#xa;" horiz-adv-x="0" 
 />
    <glyph glyph-name="controlCR" unicode="&#xd;" horiz-adv-x="0" 
 />
    <glyph glyph-name="space" unicode=" " horiz-adv-x="962" 
 />
    <glyph glyph-name="exclam" unicode="!" horiz-adv-x="663" 
d="M113 1434h438v-861h-438v861zM527 597v813h-390v-813h390zM113 -1v345h438v-345h-438zM137 320v-297h390v297h-390z" />
    <glyph glyph-name="quotedbl" unicode="&#x22;" horiz-adv-x="974" 
d="M194 814l-120 275v345h344v-345l-120 -275h-104zM394 1410h-296v-316l112 -256h72l112 256v316zM556 1434h344v-345l-120 -275h-104l-120 275v345zM876 1094v316h-296v-316l112 -256h72z" />
    <glyph glyph-name="numbersign" unicode="#" horiz-adv-x="1638" 
d="M673 861h292v-291h-292v291zM941 594v244h-244v-244h244zM1536 838h-251v-244h251v-344h-251v-251h-344v251h-244v-251h-344v251h-251v344h251v244h-251v344h251v250h344v-250h244v250h344v-250h251v-344zM1285 570h-24v291h251v297h-251v251h-296v-251h-292v251h-296
v-251h-251v-297h251v-291h-251v-296h251v-251h296v251h292v-251h296v251h251v296h-227z" />
    <glyph glyph-name="dollar" unicode="$" horiz-adv-x="1837" 
d="M507 1002q0 40 19.5 68.5t56.5 44t73.5 23t87.5 11.5l26 2v-273l-26 1q-121 7 -168 26q-69 27 -69 97zM746 903v222q-114 -10 -164.5 -38.5t-50.5 -84.5q0 -53 49 -72.5t166 -26.5zM1066 526v26l26 -2q121 -7 168 -26q69 -27 69 -96q0 -40 -19.5 -68.5t-56.5 -44
t-73.5 -23t-87.5 -11.5l-26 -3v248zM1090 526v-222q113 10 164 38.5t51 85.5q0 28 -12.5 45.5t-42.5 28t-65.5 15.5t-94.5 9zM1736 987v-43h-431v43q0 110 -215 135v-234q126 -7 215.5 -22t168.5 -44t134 -78t91 -120q37 -73 37 -181t-35 -190q-49 -116 -166 -187
q-148 -89 -445 -107v-162h-344v162q-277 17 -416 92q-46 25 -84.5 58.5t-72.5 81t-53.5 112t-19.5 139.5v43h431v-43q0 -110 215 -135v235q-126 7 -215.5 21.5t-168.5 43.5t-134 78t-91 120q-37 73 -37 181t35 190q49 117 166 188q148 89 445 107v162h344v-163
q277 -17 416 -92q46 -25 84.5 -58.5t72.5 -81t53.5 -112t19.5 -139.5zM1093 1146q236 -28 236 -159v-19h383v19q0 137 -68 238q-55 81 -149 132q-131 72 -406 89l-23 2v161h-296v-161l-23 -1q-285 -16 -433 -104q-111 -67 -157 -176q-33 -79 -33 -181q0 -103 34 -170
q64 -128 211 -186q124 -49 378 -64l23 -2v-284l-27 3q-236 28 -236 159v19h-383v-19q0 -134 69 -237q57 -83 148 -133q131 -72 406 -89l23 -1v-162h296v161l23 2q288 16 434 103q109 66 156 176q33 79 33 181q0 103 -34 170q-65 129 -211 187q-124 49 -378 64l-23 1v284z
" />
    <glyph glyph-name="percent" unicode="%" horiz-adv-x="2267" 
d="M1933 317h3v-24q0 -43 -35.5 -72t-83 -40t-103.5 -11q-89 0 -144 20q-61 23 -74 69h-3l-1 24q0 43 35.5 72t83 40t103.5 11q90 0 145 -20q61 -23 74 -69zM1714 194q81 0 139.5 25.5t58.5 73.5q0 33 -30 53.5t-72 28t-96 7.5q-81 0 -139.5 -25.5t-58.5 -73.5
q0 -33 30 -53.5t72 -28t96 -7.5zM2186 414q21 -49 23 -121q0 -99 -45 -165.5t-113 -104.5q-64 -35 -130 -50.5t-207 -15.5q-145 0 -214.5 16.5t-141.5 60.5q-81 49 -115 129q-22 52 -24 120q0 182 159 270q64 36 129.5 51.5t206.5 15.5q145 0 215 -17t142 -60
q81 -49 115 -129zM2140 134q45 68 45 159q-2 65 -21 111q-31 72 -106 118q-70 42 -136.5 58t-207.5 16q-98 0 -165 -10t-93 -21t-67 -33q-62 -34 -100 -89q-46 -69 -46 -159q2 -64 22 -112q31 -73 105 -118q69 -42 135.5 -57.5t208.5 -15.5q98 0 165 10t94 20.5t67 32.5
q61 33 100 90zM774 1151q0 -43 -35.5 -72t-83 -40t-103.5 -11q-89 0 -144 20q-61 23 -74 69h-4v24q0 43 35.5 72t83 40t103.5 11q90 0 145 -20q61 -23 74 -69h3v-24zM354 1141q0 -33 30 -53.5t72 -28t96 -7.5q81 0 139.5 25.5t58.5 73.5q0 33 -30 53.5t-72 28t-96 7.5
q-81 0 -139.5 -25.5t-58.5 -73.5zM889 881q-64 -36 -130 -51.5t-207 -15.5q-145 0 -214.5 16.5t-141.5 60.5q-81 49 -115 129q-22 52 -24 121q0 182 159 270q64 35 129.5 50.5t206.5 15.5q145 0 215 -17t142 -60q79 -48 114 -129q22 -52 24 -120q0 -99 -45 -165.5
t-113 -104.5zM103 1030q31 -73 105 -118q70 -42 136.5 -58t207.5 -16q98 0 165 10t93 21t67 33q62 34 100 89q46 69 46 160q-1 63 -22 111q-31 73 -105 118q-70 42 -136.5 58t-207.5 16q-98 0 -165 -10t-93 -21t-67 -33q-62 -34 -100 -89q-46 -69 -46 -160q1 -63 22 -111z
M1435 1434h422l-1019 -1434h-422zM826 24l985 1386h-364l-985 -1386h364z" />
    <glyph glyph-name="ampersand" unicode="&#x26;" horiz-adv-x="2455" 
d="M1943 594h440v-236q0 -226 -118 -346l117 -81l-236 -340l-371 257q-99 -7 -228 -7h-637q-118 0 -210.5 5.5t-182 20.5t-155 39.5t-122 64t-92 93.5t-55 127.5t-19.5 166.5q0 205 91 317t272 158q-45 87 -45 242q0 108 25 190.5t77.5 139t120.5 94t167 58t204 28.5t243 8
q118 0 210.5 -5.5t182 -20.5t155 -40t122 -64.5t92 -93.5t55 -127.5t19.5 -166.5h-438q0 24 -4 43.5t-15 34.5t-21 26.5t-31.5 20t-37 14.5t-46.5 10t-50.5 6t-59.5 3t-63 1h-70q-78 0 -115 -1t-93.5 -5t-82.5 -14t-56 -27t-41 -45t-11 -67q0 -23 3.5 -37t23 -38.5
t58.5 -52.5q36 -26 994 -689q36 34 36 100zM2360 358v212h-393l2 -211v-1q0 -74 -43 -117l-14 -14l-17 11q-894 617 -994 689q-60 44 -77.5 75.5t-17.5 72.5q0 45 12.5 77t44.5 52t60.5 31.5t88.5 16t98.5 5.5t118.5 1h69t63 -1t60 -3t52 -6t49 -10t40 -14.5t35 -20
t25 -26.5t19.5 -34.5t8.5 -43.5h391q-7 273 -211 378q-99 51 -255 73q-136 19 -346 19q-211 0 -347 -19q-156 -22 -255 -73q-108 -55 -159.5 -153.5t-51.5 -248.5q0 -151 42 -231l14 -27l-29 -7q-172 -44 -256 -146q-89 -110 -89 -306q0 -150 51 -248t159 -153
q98 -51 256 -73q136 -19 346 -19h637q147 0 226 6l9 1l7 -5l351 -243l209 301q-11 7 -43.5 30t-53.5 37l-24 16l20 20q112 113 112 330zM822 537l459 -318l63 -44h-434h-72t-65.5 1t-62.5 3.5t-54 7t-49.5 11.5t-39.5 16.5t-34.5 23t-23.5 31t-16.5 40t-4.5 49.5
q0 109 94 151q68 30 226 32h7zM910 199h357l-459 318q-76 -1 -124.5 -7t-90.5 -22.5t-61.5 -48.5t-19.5 -81q0 -24 4 -43.5t15 -34.5t21 -26.5t31.5 -20t37 -14.5t46.5 -10t50.5 -6t59.5 -3t63 -1h70z" />
    <glyph glyph-name="quotesingle" unicode="'" horiz-adv-x="493" 
d="M74 1434h344v-345l-120 -275h-104l-120 275v345zM394 1094v316h-296v-316l112 -256h72z" />
    <glyph glyph-name="parenleft" unicode="(" horiz-adv-x="774" 
d="M598 162q62 -98 141 -172l-215 -268q-14 11 -39.5 34t-79 87t-99.5 137q-91 146 -142 309q-64 207 -64 428t64 428q51 163 142 309q46 73 99.5 137t79 87t39.5 34l215 -269l1 1l-1 -1q-79 -69 -149 -184q-145 -239 -145 -542q0 -311 153 -555zM520 -244l186 232
q-68 65 -128 162q-157 251 -157 567q0 308 149 555q63 103 136 174l-186 232q-104 -93 -194 -237q-87 -138 -139 -303q-63 -200 -63 -421t63 -421q52 -165 139 -303q90 -144 194 -237z" />
    <glyph glyph-name="parenright" unicode=")" horiz-adv-x="774" 
d="M608 1145q64 -207 64 -428t-64 -428q-52 -166 -141 -309q-46 -73 -99.5 -137t-79 -87t-39.5 -34l-215 268l1 1q72 63 140 171q153 244 153 555q0 301 -146 542q-70 116 -148 184l-1 1l1 -1l215 269q14 -11 39.5 -34t79 -87t99.5 -137q89 -143 141 -309zM586 296
q62 196 62 421t-62 421q-51 162 -140 303q-90 144 -194 237l-186 -232q76 -73 137 -174q149 -247 149 -555q0 -316 -157 -567q-59 -94 -129 -162l186 -232q104 93 194 237q89 141 140 303z" />
    <glyph glyph-name="asterisk" unicode="*" horiz-adv-x="735" 
d="M673 1128l-132 -42l82 -113l-174 -126l-82 112l-81 -112l-174 126l81 113l-132 42l67 205l132 -43v139h215v-139l132 43zM589 979l-67 93l-19 26l31 10l109 36l-52 159l-109 -36l-31 -10v148h-167v-148l-32 10l-109 36l-51 -159l109 -36l31 -10l-19 -26l-68 -93l135 -99
l68 93l19 27l20 -27l67 -93z" />
    <glyph glyph-name="plus" unicode="+" horiz-adv-x="1288" 
d="M816 889h401v-344h-401v-402h-345v402h-401v344h401v402h345v-402zM1193 569v296h-401v402h-297v-402h-401v-296h401v-402h297v402h401z" />
    <glyph glyph-name="comma" unicode="," horiz-adv-x="534" 
d="M66 405h401v-402l-201 -321h-140l100 321h-160v402zM443 10v371h-354v-354h170l-10 -31l-91 -290h95z" />
    <glyph glyph-name="hyphen" unicode="-" horiz-adv-x="1267" 
d="M59 889h1148v-344h-1148v344zM1183 569v296h-1100v-296h1100z" />
    <glyph glyph-name="period" unicode="." horiz-adv-x="534" 
d="M66 402h401v-402h-401v402zM443 24v354h-354v-354h354z" />
    <glyph glyph-name="slash" unicode="/" horiz-adv-x="1687" 
d="M1141 1434h423l-1019 -1435h-422zM533 23l985 1387h-364l-985 -1387h364z" />
    <glyph glyph-name="zero" unicode="0" horiz-adv-x="2019" 
d="M1358 1050l-37 -19l-739 -382l-33 -17l-2 37q-1 16 -1 48q0 238 124 337q105 85 339 85q210 0 314 -66zM571 670l739 382q-98 63 -301 63q-111 0 -188 -17.5t-135.5 -61.5t-87 -122.5t-28.5 -196.5q0 -32 1 -47zM1009 1473q229 0 395.5 -40t285 -128.5t176.5 -234.5
t58 -353q0 -177 -39 -307.5t-110.5 -216.5t-186.5 -138t-254 -73.5t-325 -21.5q-175 0 -310.5 21t-252.5 73.5t-193 138t-118.5 217t-42.5 307.5q0 207 58.5 353t177 234.5t285 128.5t396.5 40zM1676 134q112 84 167 221q57 143 57 362q0 394 -224 568q-213 165 -667 165
q-455 0 -668 -165q-225 -174 -225 -568q0 -411 239 -583q209 -150 654 -150q233 0 390 34q170 36 277 116zM1467 802l2 -37q1 -16 1 -48q0 -108 -26 -186t-66.5 -123t-104 -71t-124 -34t-140.5 -8q-209 0 -314 67l-35 22l37 19l737 382zM1009 319q110 0 186.5 17.5
t135.5 61.5t87 122.5t28 196.5q0 32 -1 47l-737 -382q99 -63 301 -63z" />
    <glyph glyph-name="one" unicode="1" horiz-adv-x="868" 
d="M386 1434h359v-1434h-438v916h-239v318q95 7 180.5 63t137.5 137zM721 24v1386h-322q-54 -79 -136.5 -132t-171.5 -65v-273h239v-916h391z" />
    <glyph glyph-name="two" unicode="2" horiz-adv-x="1888" 
d="M943 518q-86 -11 -147.5 -20.5t-105 -18t-71 -20t-43 -19.5t-22.5 -23t-8.5 -25t-1.5 -31v-3h1235v-358h-1673v358q0 58 6.5 106.5t24 88t34.5 71t52 57.5t60.5 44.5t77.5 35.5t86 27.5t101 23t108 19.5t122 19q35 5 55 8t51.5 8.5t58.5 9.5q34 6 76 12t71 10t62 9.5
t55.5 10t46 11.5t38 14.5t26.5 18t17.5 24t5.5 29.5q0 68 -86 84t-311 16q-78 0 -115 -1t-93.5 -5t-82.5 -14t-56 -27t-41 -45t-11 -67h-439q0 93 19.5 166.5t55 127.5t92.5 93.5t123 64t155.5 39.5t182 20.5t210.5 5.5q141 0 248.5 -8t205.5 -27t166 -52.5t119 -83.5
t75 -121.5t24 -165.5q0 -64 -9 -114.5t-22.5 -91.5t-45.5 -73.5t-62 -57t-89 -45t-109 -35t-140 -29.5t-164 -25t-198 -26zM1755 24v311h-1235v24v3q0 29 4.5 46.5t20 35.5t41.5 29t75.5 23.5t114.5 22.5t164 22q274 34 418 62t232 73q91 46 129.5 124t38.5 215
q0 129 -50 215t-155 135q-180 85 -609 85q-204 0 -347 -20q-159 -22 -255 -72q-204 -105 -211 -378h391q2 26 11 47t20.5 37t33.5 28t39.5 20t51 13t55.5 8t66 4.5t69 1.5h76q227 0 297 -13q124 -24 124 -111q0 -70 -83 -101q-52 -20 -210 -42q-19 -2 -125 -19
q-83 -14 -167 -27q-135 -21 -200 -32.5t-148 -35t-135 -53.5q-82 -47 -123 -126q-44 -86 -44 -221v-334h1625z" />
    <glyph glyph-name="three" unicode="3" horiz-adv-x="1908" 
d="M1616 717q94 -41 141 -117.5t47 -201.5q0 -80 -19 -143t-52.5 -109t-90.5 -79t-122.5 -53.5t-159 -32.5t-189 -16.5t-223.5 -4.5q-126 0 -223.5 5.5t-189.5 20.5t-158.5 40t-122.5 64t-90.5 93.5t-53 128t-18.5 166.5h438q0 -24 4 -43.5t15 -34.5t21.5 -26.5t33 -20
t38 -14.5t48 -10t53 -6t63 -3t67 -1h75.5q210 0 312 24.5t102 94.5q0 32 -15 53t-44 33t-69.5 18.5t-93.5 9t-114 4.5q-52 1 -79 2h-199v318h199q219 8 246 10q127 12 157 61q12 20 12 49q0 70 -102 94.5t-312 24.5h-75.5t-67 -1t-63 -3t-53 -6t-48 -10t-38 -14.5t-33 -20
t-21.5 -26.5t-15 -34.5t-4 -43.5h-438q0 93 18.5 166.5t53 127.5t90.5 93t122.5 64t158.5 40t189 20.5t224 5.5q128 0 223.5 -4.5t189 -16.5t159 -32.5t122.5 -53.5t90.5 -79t52.5 -109t19 -143q0 -125 -47 -201t-141 -117zM1728 183q52 83 52 215q0 115 -42 186t-132 111
l-49 22l49 22q90 40 132 111t42 185q0 133 -52 216q-49 78 -153 123t-260 60.5t-367 15.5q-235 0 -383.5 -22t-242.5 -70q-101 -52 -153 -148q-50 -93 -53 -230h392q10 105 128 138q35 10 89 15t96 5.5t127 0.5q213 0 308 -23q130 -32 130 -120q0 -19 -3.5 -35.5t-13.5 -29
t-19 -22.5t-28.5 -17.5t-33 -13t-41.5 -9t-46 -6t-53.5 -4t-56.5 -2.5t-63 -2q-33 -1 -80 -3h-176v-271h176q14 0 40.5 -0.5t39.5 -1.5q42 -1 63 -2t56.5 -2.5t53.5 -4t46 -6t41.5 -9t33 -13t28.5 -17.5t19 -22.5t13.5 -29t3.5 -35.5q0 -88 -130 -120q-95 -23 -308 -23
q-92 0 -129 0.5t-92.5 5t-90.5 14.5q-118 33 -128 139h-392q3 -138 53 -231q51 -95 153 -147q94 -48 242.5 -70t383.5 -22q213 0 368 15t259 60q103 44 153 124z" />
    <glyph glyph-name="four" unicode="4" horiz-adv-x="1716" 
d="M526 536l525 461l40 35v-538h-613zM1067 518v461l-525 -461h525zM1505 518h120v-359h-120v-159h-438v159h-995v400l995 875h438v-916zM1601 183v311h-120v916h-405l-980 -861v-366h995v-159h390v159h120z" />
    <glyph glyph-name="five" unicode="5" horiz-adv-x="1886" 
d="M950 956q186 0 317 -13.5t233.5 -45t163 -86.5t91 -136.5t30.5 -196.5q0 -123 -30.5 -211t-91 -148t-163 -94.5t-234 -49.5t-316.5 -15q-162 0 -283.5 12.5t-223 43t-168 80.5t-107 125t-51.5 177h498q62 -79 335 -79q136 0 216 18.5t110.5 52.5t30.5 88q0 55 -29.5 88
t-109 52t-218.5 19q-273 0 -335 -79h-502v876h1632v-359h-1194v-168q183 49 399 49zM1579 86q94 55 138 149.5t44 242.5q0 137 -43.5 224t-137.5 137q-92 49 -251 72q-148 21 -379 21q-216 0 -393 -48l-30 -8v223h1194v311h-1584v-829h467q76 80 346 80q210 0 295 -43
q86 -43 86 -140q0 -98 -89 -140.5t-292 -42.5q-271 0 -346 79h-460q16 -109 69.5 -182.5t148.5 -119.5q183 -88 588 -88q236 0 387 24.5t242 77.5z" />
    <glyph glyph-name="six" unicode="6" horiz-adv-x="1857" 
d="M936 621h61.5t58 -1t57.5 -3.5t51 -6t48.5 -10t40 -15t35 -20.5t24.5 -27.5t17 -35.5t5 -44t-5 -44t-17 -35.5t-24.5 -27.5t-35 -20.5t-40 -15t-48.5 -10t-51 -6t-57.5 -3.5t-58 -1h-61.5q-51 0 -77 0.5t-71.5 2t-70 6t-58.5 12t-52.5 19.5t-37 28.5t-26.5 40.5t-8 54
t8 54t26.5 40.5t37 28.5t52.5 19.5t58.5 12t70 6t71.5 2t77 0.5zM936 319q49 0 73.5 0.5t67.5 2t65.5 5t54 10t48 16.5t34 24.5t24.5 34.5t7 46t-7 46t-24.5 34.5t-34 24.5t-48 16.5t-54 10t-65.5 5t-67.5 2t-73.5 0.5q-50 0 -74.5 -0.5t-67.5 -2t-66 -5t-55 -10
t-48.5 -16.5t-34 -24.5t-24.5 -34.5t-7 -46t7 -46t24.5 -34.5t34 -24.5t48.5 -16.5t55 -10t66 -5t67.5 -2t74.5 -0.5zM1039 892q354 0 537 -103.5t183 -310.5q0 -106 -23 -184.5t-79.5 -143.5t-150.5 -105.5t-235.5 -62.5t-334.5 -22q-171 0 -297.5 17t-221 56t-155 95.5
t-97.5 144.5t-52 193.5t-15 250.5q0 142 17.5 250t58 194t104 143.5t158 96t216.5 55.5t284 17q409 0 603 -118.5t216 -398.5h-439q-6 43 -23.5 71.5t-44.5 46t-75.5 26.5t-101 12t-135.5 3q-118 0 -188 -10t-121 -40t-71 -84.5t-20 -144.5q63 28 169.5 42t333.5 14z
M1577 112q82 57 120 145t38 221q0 99 -43 170q-44 73 -130 121q-176 99 -523 99q-161 0 -267 -8.5t-147.5 -18.5t-79.5 -27l-33 -14v36q0 186 101 249q86 54 323 54q208 0 286 -28q94 -34 114 -131h393q-13 120 -60 206q-49 92 -147 151q-185 113 -586 113q-235 0 -395 -40
q-157 -40 -247 -123q-89 -82 -130.5 -219t-41.5 -351q0 -217 35 -348q37 -140 122 -222q88 -84 246.5 -123.5t410.5 -39.5q235 0 397 33q154 31 244 95z" />
    <glyph glyph-name="seven" unicode="7" horiz-adv-x="1644" 
d="M72 1434h1513v-359l-996 -1075h-517l995 1075h-995v359zM1561 1085v325h-1465v-311h1026l-37 -40l-959 -1035h453z" />
    <glyph glyph-name="eight" unicode="8" horiz-adv-x="1865" 
d="M1589 748q180 -115 180 -350q0 -238 -193 -338t-643 -100q-429 0 -633 102t-204 336t181 350q-141 87 -141 267q0 80 25 147t84 125.5t149 99t226.5 63.5t311.5 23t312 -23t227.5 -63.5t149 -99t83.5 -125.5t25 -147q0 -180 -140 -267zM1564 81q92 48 137 126
q44 79 44 191q0 110 -41 192q-42 83 -128 138l-32 20l32 20q129 81 129 247q0 96 -38 170q-41 81 -126 137q-194 128 -609 128t-609 -128q-83 -55 -125 -137q-38 -74 -38 -170q0 -166 129 -247l32 -20l-32 -20q-86 -55 -128 -138q-41 -82 -41 -192q0 -111 49 -190
q48 -78 147 -127q195 -97 617 -97q444 0 631 97zM933 621q113 0 185 -6t129 -23.5t82.5 -50t25.5 -83.5t-25.5 -83.5t-82.5 -50t-129 -23.5t-185 -6q-240 0 -331.5 35t-91.5 128t91.5 128t331.5 35zM933 319q159 0 245.5 14.5t119.5 43.5t33 81t-33 81t-119.5 43.5
t-245.5 14.5q-160 0 -246.5 -14.5t-119.5 -43.5t-33 -81t33 -81t119.5 -43.5t246.5 -14.5zM640 884q-90 32 -90 112t90 112q87 31 292 31q96 0 161 -6t118 -21t78.5 -43.5t25.5 -72.5t-25.5 -72.5t-78.5 -44t-118.5 -21.5t-160.5 -6q-202 0 -292 32zM932 1115
q-201 0 -279.5 -28t-78.5 -91t78.5 -91.5t279.5 -28.5q138 0 217.5 14t110.5 39t31 67q0 63 -78 91t-281 28z" />
    <glyph glyph-name="nine" unicode="9" horiz-adv-x="1857" 
d="M922 1139q68 0 102.5 -1t91 -5t85.5 -14.5t61.5 -27.5t46 -46t13.5 -69q0 -24 -5 -44t-17 -35.5t-25 -28t-35 -21t-40 -14.5t-48.5 -10t-51.5 -6.5t-57.5 -3.5t-58.5 -1h-62h-61.5t-58 1t-57.5 3.5t-51.5 6.5t-48.5 10t-40 14.5t-35 21t-25 28t-17 35.5t-5 44
q0 40 13.5 69t46 46t61.5 27.5t85 14.5t90.5 5t102.5 1zM922 836q48 0 74 0.5t68 2t65.5 5t55 10t48.5 17t34 25t24 34.5t7 46t-7 46t-24.5 34.5t-34 24.5t-48.5 16.5t-54.5 10t-65.5 5t-67.5 2t-74.5 0.5q-49 0 -73.5 -0.5t-67.5 -2t-65.5 -5t-54.5 -10t-48.5 -16.5
t-34 -24.5t-24.5 -34.5t-7 -46t7 -46t24.5 -34.5t34.5 -25t48 -17t54.5 -10t65 -5t67.5 -2t74 -0.5zM922 1473q171 0 297.5 -16.5t220.5 -56t154.5 -96t98 -144t52 -193t14.5 -250.5q0 -214 -40.5 -354.5t-139 -232.5t-257 -131t-400.5 -39q-408 0 -603 119t-217 399h439
q6 -43 23.5 -71.5t45 -46t76 -26.5t101 -12t135.5 -3q94 0 155 6t111.5 22.5t77.5 48.5t41 80.5t14 120.5q-62 -28 -168.5 -41.5t-334.5 -13.5q-354 0 -537 103.5t-183 310.5q0 106 23.5 184.5t80 143.5t150 105.5t235.5 62t335 21.5zM1563 147q89 82 130.5 219t41.5 351
q0 216 -35 347q-37 141 -122 223q-88 84 -246 123.5t-410 39.5q-236 0 -398 -33q-154 -31 -244 -95q-82 -57 -120 -145t-38 -221q0 -97 44 -170q44 -74 129 -121q177 -100 523 -100q161 0 267 8.5t147.5 18.5t79.5 27l33 15v-37q0 -186 -101 -249q-49 -31 -126 -42t-196 -11
q-212 0 -287 27q-93 34 -114 132h-392q13 -120 60 -206q50 -92 146 -151q185 -113 587 -113q238 0 394 39q156 40 247 124z" />
    <glyph glyph-name="colon" unicode=":" horiz-adv-x="587" 
d="M92 1073h402v-402h-402v402zM470 695v354h-354v-354h354zM92 2v402h402v-402h-402zM116 380v-354h354v354h-354z" />
    <glyph glyph-name="semicolon" unicode=";" horiz-adv-x="587" 
d="M92 1075h402v-401h-402v401zM470 698v354h-354v-354h354zM92 3v402h402v-402l-201 -321h-141l101 321h-161zM470 381h-354v-354h169l-9 -31l-91 -291h95l190 305v371z" />
    <glyph glyph-name="less" unicode="&#x3c;" horiz-adv-x="901" 
d="M795 1434v-421l-420 -294l420 -302v-424l-717 516v422zM771 1026v362l-669 -469v-398l669 -482v366l-410 295l-27 20l28 19z" />
    <glyph glyph-name="equal" unicode="=" horiz-adv-x="1314" 
d="M84 1218h1147v-344h-1147v344zM1207 898v297h-1099v-297h1099zM84 215v344h1147v-344h-1147zM108 535v-296h1099v296h-1099z" />
    <glyph glyph-name="greater" unicode="&#x3e;" horiz-adv-x="901" 
d="M104 1434l718 -503v-422l-718 -516v424l420 302l-420 294v421zM798 521v398l-670 469v-362l410 -287l28 -19l-28 -20l-410 -295v-366z" />
    <glyph glyph-name="question" unicode="?" horiz-adv-x="1765" 
d="M676 0v319h438v-319h-438zM699 295v-271h391v271h-391zM873 1473q141 0 247 -7.5t202 -27t161.5 -53t114 -84t71 -121.5t22.5 -165q0 -44 -2 -78.5t-10 -65t-15 -53.5t-24.5 -45t-32.5 -37.5t-44.5 -32.5t-53.5 -28t-67.5 -27t-78.5 -27t-94 -29q-11 -3 -34.5 -10
t-30.5 -9.5t-24 -8t-20.5 -9t-14.5 -10t-13 -13t-8 -16t-6.5 -21t-2 -25.5t-1.5 -32h-441q0 65 1.5 96t9.5 79.5t25.5 73t49.5 59.5t81.5 57.5t121.5 48t169 48.5q42 10 67 21t36 26.5t13.5 29t2.5 38.5q0 69 -78.5 84.5t-298.5 15.5q-77 0 -113 -1t-90.5 -5t-78.5 -14
t-51 -27t-37 -45t-10 -67h-438q0 93 18.5 166.5t52 127.5t88.5 93.5t118.5 64t151.5 39.5t179.5 20.5t209.5 5.5zM1590 753q42 38 59.5 97.5t17.5 164.5q0 134 -49 220q-48 82 -146 130q-93 45 -249 66q-149 19 -350 19q-221 0 -361.5 -22t-230.5 -70q-100 -53 -150 -148
q-48 -93 -51 -230h390q2 24 8 43.5t18 34.5t23 26.5t33 20t37.5 14.5t46 10t50 6t58.5 3t61 1h68q223 0 288 -13q113 -23 113 -111q0 -29 -3.5 -46t-16.5 -36t-41.5 -32t-75.5 -24q-307 -74 -387 -174q-34 -43 -44 -96.5t-10 -144.5h394q3 65 31 94q24 24 108 49q30 9 33 10
q143 43 215 72t113 66z" />
    <glyph glyph-name="at" unicode="@" horiz-adv-x="1781" 
d="M1163 1473q140 0 258.5 -69t188 -187.5t69.5 -258.5v-482q0 -119 -84.5 -203.5t-203.5 -84.5q-107 0 -188 70t-97 174q-22 -16 -33 -22q-102 -62 -272 -62q-175 0 -285.5 96t-110.5 275t110.5 275t285.5 96q170 0 272 -62v37h272h5v-589q0 -17 12 -29t29 -12t29 12t12 29
v482q0 111 -79 189.5t-190 78.5h-541q-111 0 -189.5 -78.5t-78.5 -189.5v-482q0 -111 78.5 -189.5t189.5 -78.5h454v-248h-454q-105 0 -200.5 41t-164.5 110t-110 164.5t-41 200.5v482q0 140 69.5 258.5t188 187.5t258.5 69h541zM1655 476v482q0 203 -144.5 347.5
t-347.5 144.5h-541q-203 0 -347.5 -144.5t-144.5 -347.5v-482q0 -203 144.5 -347.5t347.5 -144.5h430v200h-430q-121 0 -206.5 85.5t-85.5 206.5v482q0 121 85.5 206.5t206.5 85.5h541q121 0 207 -85.5t86 -206.5v-482q0 -27 -19 -46t-46 -19t-46 19t-19 46v566h-229v-56
l-37 22q-95 58 -259 58q-167 0 -266 -87q-106 -92 -106 -260t106 -260q99 -87 266 -87q164 0 259 58l1 1q20 12 31 20l32 24l6 -39q16 -98 88 -160q73 -64 173 -64q109 0 186.5 77t77.5 187zM875 916q65 0 111 -17.5t69 -48t32.5 -62t9.5 -69.5q0 -89 -61 -143t-161 -54
q-65 0 -111 17.5t-69 48t-32.5 62t-9.5 69.5t9.5 69.5t32.5 62t69 48t111 17.5zM875 546q91 0 144.5 48.5t53.5 124.5q0 173 -198 173t-198 -173t198 -173z" />
    <glyph glyph-name="A" unicode="A" 
d="M1165 1410h-449l-680 -1386h427l72 146l6 13h801l6 -13l72 -146h425zM690 494l17 34l211 428l22 44l21 -44l209 -428l16 -34h-496zM701 1434h479l703 -1434h-478l-78 159h-771l-79 -159h-479zM939 945l-210 -427h419z" />
    <glyph glyph-name="B" unicode="B" horiz-adv-x="1820" 
d="M147 1410v-1386h1196q161 0 275 114t114 275q0 96 -45 180.5t-124 139.5l-21 15l17 20q93 108 93 253q0 161 -114 275t-275 114h-1116zM537 852v247h601q51 0 87.5 -36t36.5 -87t-36.5 -87.5t-87.5 -36.5h-601zM537 335v246h681q51 0 87 -36t36 -87t-36 -87t-87 -36h-681
zM123 0v1434h1140q171 0 292 -121t121 -292q0 -153 -99 -268q83 -57 131 -146.5t48 -193.5q0 -171 -121 -292t-292 -121h-1220zM561 1075v-199h577q41 0 70.5 29.5t29.5 70.5t-29.5 70t-70.5 29h-577zM561 558v-200h657q41 0 70.5 29.5t29.5 70.5t-29.5 70.5t-70.5 29.5
h-657z" />
    <glyph glyph-name="C" unicode="C" horiz-adv-x="1957" 
d="M986 1450q-455 0 -668 -165q-224 -174 -224 -568q0 -411 239 -583q209 -150 653 -150q423 0 623 120q110 66 174 175q62 107 83 255h-442q-23 -75 -68 -125t-109 -73.5t-123.5 -32t-137.5 -8.5q-234 0 -339 85q-123 98 -123 337t123 337q105 85 339 85q78 0 138 -8.5
t124 -32t109 -73.5t68 -125h439q-46 286 -258 418q-213 132 -620 132zM70 717q0 207 58 353t176.5 234.5t285 128.5t396.5 40q206 0 360.5 -32t271 -102t184.5 -185.5t90 -277.5h-486q-34 134 -136 186.5t-284 52.5q-111 0 -188 -17.5t-135.5 -61.5t-87 -122.5t-28.5 -196.5
t28.5 -196.5t87 -122.5t135.5 -61.5t188 -17.5q179 0 282 53t138 186h487q-16 -139 -64.5 -241.5t-123 -170.5t-184 -109.5t-238.5 -59t-297 -17.5q-175 0 -310.5 21t-252 73.5t-192.5 138t-118.5 217t-42.5 307.5z" />
    <glyph glyph-name="D" unicode="D" horiz-adv-x="1902" 
d="M959 1410h-812v-1386h812q218 0 373 32q163 34 264 109q108 80 160 210q54 134 54 342q0 372 -214 537q-202 156 -637 156zM537 335v764h422q231 0 334 -70q128 -88 128 -312q0 -93 -22 -161t-60 -110.5t-98.5 -67.5t-126.5 -34t-155 -9h-422zM123 1434h836
q219 0 378 -38t272.5 -122t169 -222.5t55.5 -334.5q0 -168 -37 -291.5t-106 -205t-179 -131t-242.5 -69.5t-310.5 -20h-836v1434zM561 1075v-717h398q86 0 148.5 8t120 31.5t93 62.5t56 103.5t20.5 153.5t-20.5 153t-55.5 103.5t-92 62.5t-120 31t-150 8h-398z" />
    <glyph glyph-name="E" unicode="E" horiz-adv-x="1691" 
d="M1572 1410h-1425v-1386h1425v311h-1035v226h956v311h-956v227h1035v311zM123 1434h1473v-359h-1035v-179h956v-358h-956v-180h1035v-358h-1473v1434z" />
    <glyph glyph-name="F" unicode="F" horiz-adv-x="1609" 
d="M1533 1410h-1386v-1386h390v537h916v311h-916v227h996v311zM123 1434h1433v-359h-995v-179h916v-358h-916v-538h-438v1434z" />
    <glyph glyph-name="G" unicode="G" horiz-adv-x="1996" 
d="M986 1450q-455 0 -668 -165q-224 -174 -224 -568q0 -411 239 -583q209 -150 653 -150q387 0 586 100l35 17v-77h271v709h-829v-271h350l-31 -39q-53 -67 -145 -97.5t-237 -30.5q-234 0 -339 85q-123 98 -123 337t123 337q105 85 339 85q72 0 128.5 -7t117 -26.5
t106.5 -61t72 -104.5h447q-55 264 -265.5 387t-605.5 123zM70 717q0 207 58 353t176.5 234.5t285 128.5t396.5 40q402 0 624.5 -130t274.5 -427h-491q-41 111 -140.5 155t-267.5 44q-111 0 -188 -17.5t-135.5 -61.5t-87 -122.5t-28.5 -196.5t28.5 -196.5t87 -122.5
t135.5 -61.5t188 -17.5q132 0 221.5 27t141.5 92h-324v319h876v-757h-318v63q-205 -103 -597 -103q-175 0 -310.5 21t-252 73.5t-192.5 138t-118.5 217t-42.5 307.5z" />
    <glyph glyph-name="H" unicode="H" horiz-adv-x="1918" 
d="M1772 1410h-391v-538h-844v538h-390v-1386h390v537h844v-537h391v1386zM1357 1434h438v-1434h-438v538h-796v-538h-438v1434h438v-538h796v538z" />
    <glyph glyph-name="I" unicode="I" horiz-adv-x="684" 
d="M537 1410h-390v-1386h390v1386zM123 1434h438v-1434h-438v1434z" />
    <glyph glyph-name="J" unicode="J" horiz-adv-x="1724" 
d="M1604 1410h-390v-693q0 -231 -113 -336q-93 -86 -269 -86q-178 0 -271 86q-106 97 -112 312h-390q3 -195 61 -337q56 -137 164 -223q189 -149 548 -149t547 149q108 86 164 223q61 147 61 361v693zM1190 1434h438v-717q0 -146 -28 -263t-81.5 -199t-124 -140
t-162.5 -91.5t-189 -48.5t-211 -15q-139 0 -252.5 21t-217 74t-174 137t-112 217.5t-41.5 307.5h438q0 -93 18.5 -163.5t50 -114.5t78 -71.5t97.5 -38t115 -10.5q63 0 113.5 10.5t97.5 38t78.5 71.5t50 114.5t18.5 163.5v717z" />
    <glyph glyph-name="K" unicode="K" horiz-adv-x="1722" 
d="M1616 1410h-488l-551 -522l-40 -38v560h-390v-1386h390v364l7 7l151 142l18 17l16 -19l440 -511h495l-664 771l-15 17l17 16zM1118 1434h558l-658 -624l698 -810h-558l-447 519l-150 -142v-377h-438v1434h438v-529z" />
    <glyph glyph-name="L" unicode="L" horiz-adv-x="1581" 
d="M537 1410h-390v-1386h1386v311h-996v1075zM123 1434h438v-1076h995v-358h-1433v1434z" />
    <glyph glyph-name="M" unicode="M" horiz-adv-x="2316" 
d="M2170 1410h-519l-471 -943l-22 -43l-21 43l-471 943h-519v-1386h390v874l45 -91l392 -783h369l391 783l45 91v-874h391v1386zM1636 1434h558v-1434h-438v796l-399 -796h-398l-398 796v-796h-438v1434h557l478 -956z" />
    <glyph glyph-name="N" unicode="N" horiz-adv-x="1957" 
d="M1811 1410h-390v-935l-42 47l-789 888h-443v-1386h390v890l42 -47l749 -843h483v1386zM1397 1434h438v-1434h-517l-757 851v-851h-438v1434h478l796 -896v896z" />
    <glyph glyph-name="O" unicode="O" horiz-adv-x="1974" 
d="M986 1450q-455 0 -668 -165q-224 -174 -224 -568q0 -411 239 -583q209 -150 653 -150q233 0 390 34q170 36 277 116q112 84 167 221q58 146 58 362q0 394 -225 568q-213 165 -667 165zM986 295q-234 0 -339 85q-123 98 -123 337t123 337q105 85 339 85q235 0 340 -85
q121 -98 121 -337q0 -108 -26 -186t-66.5 -123t-104 -71t-124 -34t-140.5 -8zM70 717q0 207 58 353t176.5 234.5t285 128.5t396.5 40q229 0 395.5 -40t285 -128.5t176.5 -234.5t58 -353q0 -177 -39 -307.5t-110.5 -216.5t-186.5 -138t-254 -73.5t-325 -21.5
q-175 0 -310.5 21t-252 73.5t-192.5 138t-118.5 217t-42.5 307.5zM547 717q0 -118 28.5 -196.5t87 -122.5t135.5 -61.5t188 -17.5q110 0 186.5 17.5t135.5 61.5t87.5 123t28.5 196q0 118 -27.5 196.5t-86 122.5t-135.5 61.5t-189 17.5q-111 0 -188 -17.5t-135.5 -61.5
t-87 -122.5t-28.5 -196.5z" />
    <glyph glyph-name="P" unicode="P" horiz-adv-x="1681" 
d="M1099 1410h-952v-1386h390v358h562q139 0 257.5 69t187 187.5t68.5 257.5t-68.5 257.5t-187 187.5t-257.5 69zM537 693v406h482q84 0 143.5 -59.5t59.5 -143.5t-59.5 -143.5t-143.5 -59.5h-482zM123 1434h976q109 0 208.5 -43t171.5 -115t114.5 -171.5t42.5 -208.5
t-42.5 -208.5t-114.5 -171.5t-171.5 -115t-208.5 -43h-538v-358h-438v1434zM561 1075v-358h458q74 0 126.5 52.5t52.5 126.5t-52.5 126.5t-126.5 52.5h-458z" />
    <glyph glyph-name="Q" unicode="Q" horiz-adv-x="1980" 
d="M986 1450q-455 0 -668 -165q-224 -174 -224 -568q0 -411 239 -583q209 -150 653 -150q315 0 498 63l14 5l11 -10l114 -115l205 205l-72 72l-14 14l12 17q124 169 124 482q0 394 -225 568q-213 165 -667 165zM986 295q-234 0 -339 85q-123 98 -123 337t123 337
q105 85 339 85q235 0 340 -85q121 -98 121 -337q0 -79 -12 -140l-9 -44l-31 32l-96 98l-205 -205l102 -104l30 -29l-41 -11q-79 -19 -199 -19zM70 717q0 207 58 353t176.5 234.5t285 128.5t396.5 40q229 0 395.5 -40t285 -128.5t176.5 -234.5t58 -353q0 -324 -128 -497
l89 -88l-239 -238l-131 131q-188 -65 -506 -65q-175 0 -310.5 21t-252 73.5t-192.5 138t-118.5 217t-42.5 307.5zM547 717q0 -118 28.5 -196.5t87 -122.5t135.5 -61.5t188 -17.5q117 0 193 19l-119 120l239 239l113 -115q12 58 12 135q0 118 -27.5 196.5t-86 122.5
t-135.5 61.5t-189 17.5q-111 0 -188 -17.5t-135.5 -61.5t-87 -122.5t-28.5 -196.5z" />
    <glyph glyph-name="R" unicode="R" horiz-adv-x="1832" 
d="M1218 1410h-1071v-1386h390v358h566l7 -12l182 -346h439l-223 423l-10 18l17 12q103 74 158 180q59 110 59 239q0 139 -69 257.5t-187.5 187.5t-257.5 69zM537 693v406h601q84 0 143.5 -59.5t59.5 -143.5t-59.5 -143.5t-143.5 -59.5h-601zM123 1434h1095q109 0 208.5 -43
t171.5 -115t115 -171.5t43 -208.5q0 -133 -61 -248t-166 -190l242 -458h-493l-189 358h-528v-358h-438v1434zM561 1075v-358h577q74 0 127 52.5t53 126.5t-53 126.5t-127 52.5h-577z" />
    <glyph glyph-name="S" unicode="S" horiz-adv-x="1904" 
d="M949 1450q-434 0 -618 -85q-109 -50 -161 -135t-52 -214q0 -128 50 -207.5t159 -124.5q95 -39 237 -56.5t380 -25.5h1v0q24 -1 70 -3q201 -6 271 -24q122 -33 122 -137q0 -52 -29.5 -82.5t-104.5 -43t-135.5 -15t-188.5 -2.5q-91 0 -129 0.5t-97 5t-96 14.5
q-127 33 -139 139h-391q4 -138 55 -230q53 -95 160 -148q96 -49 247 -70.5t390 -21.5q434 0 628 88q114 53 168.5 142t54.5 224v24h1q-4 120 -57 200q-53 79 -162 125q-104 43 -254 60.5t-373 24.5h-1h-1q-28 1 -80 3q-7 0 -30.5 0.5t-31 1t-28 1t-28.5 1t-25 1.5t-25.5 2
t-22.5 2.5t-23 3t-19.5 3.5t-19.5 4q-110 28 -110 121q0 86 132 110q74 13 306 13q85 0 127.5 -0.5t96 -5.5t88.5 -15q119 -33 129 -138h391q-3 139 -52 230q-51 95 -154 148q-94 48 -242.5 70t-383.5 22zM94 1016q0 93 25.5 165t78 122t122.5 83.5t170 52.5t209 27t250 8
q126 0 223.5 -5.5t189.5 -20.5t158.5 -40t122.5 -64t90.5 -93.5t53 -128t18.5 -166.5h-438q0 24 -4 43.5t-15 34.5t-21.5 26.5t-33 20t-38 14.5t-48 10t-53 6t-63 3t-67 1h-75.5h-7q-119 0 -173 -1.5t-119.5 -10.5t-90 -30t-24.5 -57q0 -32 15.5 -53t45 -33t70.5 -18.5
t94.5 -9t115.5 -4.5q52 -1 79 -2h1h1q99 -3 171 -7t153.5 -12t139 -19.5t118 -29t101.5 -41.5t79 -57.5t59.5 -75.5t34.5 -96t13 -120h-1q0 -84 -21 -151.5t-58.5 -117.5t-97 -86.5t-129 -60t-162.5 -37.5t-189.5 -19.5t-217.5 -5.5q-127 0 -225 5.5t-192 20.5t-162.5 40
t-127 64.5t-94 93.5t-55.5 127.5t-20 166.5h438q0 -24 4.5 -43.5t17 -34.5t24 -26.5t35.5 -20t41 -14.5t51.5 -10t56 -6t65 -3t68 -1h75.5q122 0 179 2t128 12.5t99 36t28 68.5q0 31 -12 53.5t-36.5 37t-54.5 23.5t-75 13.5t-88.5 6.5t-103.5 4q-15 0 -23 0.5t-21.5 1
t-24.5 0.5h-1h-1q-99 3 -170.5 7t-151.5 12t-136 18.5t-115 28t-98.5 40.5t-75.5 54.5t-57 72t-33 92t-12 113.5z" />
    <glyph glyph-name="T" unicode="T" horiz-adv-x="1638" 
d="M1592 1410h-1546v-311h578v-1075h390v1075h578v311zM23 1434h1592v-359h-577v-1075h-438v1075h-577v359z" />
    <glyph glyph-name="U" unicode="U" horiz-adv-x="1865" 
d="M1745 1410h-390v-693q0 -235 -118 -337q-100 -85 -304 -85q-205 0 -305 85q-118 102 -118 337v693h-390v-693q0 -211 62 -361q59 -140 168 -223q193 -149 583 -149q389 0 582 149q109 83 168 223q62 150 62 361v693zM1331 1434h438v-717q0 -175 -42 -307.5t-114 -217
t-180 -137.5t-229 -74t-271 -21q-151 0 -272 21t-229 74t-180 137.5t-114 217t-42 307.5v717h438v-717q0 -94 19 -164t52 -114t84.5 -71.5t109.5 -38t134 -10.5q75 0 133 10.5t109.5 38t84.5 71.5t52 114t19 164v717z" />
    <glyph glyph-name="V" unicode="V" horiz-adv-x="1828" 
d="M1791 1410h-424l-432 -863l-21 -43l-22 43l-431 863h-424l693 -1386h368zM1352 1434h478l-717 -1434h-398l-717 1434h478l438 -876z" />
    <glyph glyph-name="W" unicode="W" horiz-adv-x="2490" 
d="M2446 1410h-427l-280 -838l-22 -68l-23 68l-279 838h-340l-280 -838l-22 -68l-23 68l-279 838h-428l462 -1386h444l273 820l23 68l22 -68l274 -820h443zM2001 1434h478l-478 -1434h-478l-278 836l-279 -836h-478l-478 1434h478l285 -855l285 855h374l285 -855z" />
    <glyph glyph-name="X" unicode="X" horiz-adv-x="1853" 
d="M1789 1410h-494l-351 -395l-18 -21l-18 21l-351 395h-494l602 -677l14 -16l-14 -16l-602 -677h494l351 395l18 20l18 -20l351 -395h494l-602 677l-14 16l14 16zM1285 1434h557l-637 -717l637 -717h-557l-359 403l-358 -403h-558l637 717l-637 717h558l358 -404z" />
    <glyph glyph-name="Y" unicode="Y" horiz-adv-x="1732" 
d="M1695 1410h-459l-351 -487l-19 -26l-20 26l-351 487h-459l630 -872l5 -6v-508h390v508l4 6zM1224 1434h518l-657 -910v-524h-438v524l-657 910h517l359 -497z" />
    <glyph glyph-name="Z" unicode="Z" horiz-adv-x="1744" 
d="M1645 1410h-1545v-311h950l-53 -42l-897 -718v-315h1545v311h-950l53 42l897 718v315zM76 1434h1593v-351l-906 -725h906v-358h-1593v350l906 725h-906v359z" />
    <glyph glyph-name="bracketleft" unicode="[" horiz-adv-x="770" 
d="M697 1262h-230v-1091h230v-344h-574v1779h574v-344zM467 147h-24v1138h230v297h-526v-1731h526v296h-206z" />
    <glyph glyph-name="backslash" unicode="\" horiz-adv-x="1687" 
d="M545 1434l1019 -1435h-423l-1018 1435h422zM169 1410l985 -1387h364l-985 1387h-364z" />
    <glyph glyph-name="bracketright" unicode="]" horiz-adv-x="770" 
d="M72 1605h574v-1779h-574v344h229v1091h-229v344zM622 -150v1731h-526v-296h229v-1139h-229v-296h526z" />
    <glyph glyph-name="asciicircum" unicode="^" horiz-adv-x="1501" 
d="M967 1434l503 -718h-421l-294 420l-302 -420h-424l516 718h422zM775 1150l287 -410h362l-469 670h-398l-482 -670h366l295 410l20 27z" />
    <glyph glyph-name="underscore" unicode="_" horiz-adv-x="1392" 
d="M123 -2h1148v-344h-1148v344zM1247 -323v297h-1100v-297h1100z" />
    <glyph glyph-name="grave" unicode="`" horiz-adv-x="581" 
d="M373 1431l172 -258h-229l-287 258h344zM91 1407l234 -210h176l-141 210h-269z" />
    <glyph glyph-name="a" unicode="a" horiz-adv-x="1591" 
d="M788 442q177 9 266 20l34 4l-8 -33q-16 -70 -79 -122t-146 -76.5t-172 -24.5q-84 0 -139 23q-68 30 -68 86q0 77 97 101q57 15 215 22zM683 234q127 0 239.5 53.5t134.5 150.5q-61 -8 -130.5 -13t-120 -7t-102.5 -5t-86.5 -8.5t-63 -15t-42 -27t-13.5 -43.5
q0 -40 52 -62.5t132 -22.5zM778 1075q116 0 203 -5.5t165 -19.5t132 -38t97.5 -59.5t68.5 -86.5t38 -117t13 -152v-597h-398l-40 80q-92 -62 -194.5 -91t-243.5 -29q-91 0 -166 8t-150 31t-126.5 59.5t-83.5 98t-32 142.5q0 177 176.5 257.5t540.5 80.5q118 0 181 8.5
t80.5 21t17.5 34.5q0 36 -81 56t-197 20h-37q-68 -2 -129 -7.5t-100.5 -10.5t-90 -17t-71.5 -18t-73.5 -21.5t-67.5 -20.5l-89 275q144 52 325.5 85t331.5 33zM1471 24v573q0 145 -37 234q-35 85 -116 134q-75 46 -201.5 66t-338.5 20q-141 0 -312.5 -30t-314.5 -79l75 -231
q5 1 15 5t15 5q81 25 128.5 37t144.5 25.5t213 16.5q7 0 19 0.5t18 0.5q119 0 199 -20q103 -26 103 -80q0 -51 -63.5 -69.5t-239.5 -18.5q-358 0 -527 -77q-85 -40 -125 -97q-41 -59 -41 -140q0 -177 161 -253q130 -62 373 -62q134 0 233.5 27t191.5 89l22 15l12 -25l34 -66
h359z" />
    <glyph glyph-name="b" unicode="b" horiz-adv-x="1654" 
d="M947 1075q113 0 204.5 -15.5t174 -54.5t138 -101.5t88 -160t32.5 -225.5t-32.5 -226t-88 -160t-138 -101.5t-174 -55t-204.5 -15.5q-78 0 -148 12.5t-113.5 30t-76 35t-46.5 30.5l-14 12l-40 -80h-398v1434h438v-478q5 5 14.5 13t45 28.5t77.5 36t112.5 28.5t148.5 13z
M1386 94q83 61 127 161q47 109 47 263q0 153 -47 262q-44 100 -127 161q-149 110 -439 110q-168 0 -291 -56q-27 -12 -50 -26t-32 -22l-9 -8l-40 -40v57v454h-391v-1386h360l33 66l15 30l24 -23q29 -29 90 -57q123 -56 291 -56q290 0 439 110zM847 820q149 0 236 -81
t87 -221t-87 -221.5t-236 -81.5t-235.5 81.5t-86.5 221.5t86.5 221t235.5 81zM847 239q83 0 148.5 27t108 92t42.5 160q0 72 -24 127t-66 87t-94.5 48t-114.5 16t-114 -16t-94 -48t-66 -87t-24 -127t24 -127t66 -87.5t94 -48.5t114 -16z" />
    <glyph glyph-name="c" unicode="c" horiz-adv-x="1595" 
d="M804 239q117 0 187 38t96 121h445q-36 -228 -218 -333t-510 -105q-368 0 -552 133t-184 425t184 424.5t552 132.5q328 0 510 -105t218 -333h-445q-26 83 -96 121t-187 38q-152 0 -225 -65.5t-73 -212.5t73 -213t225 -66zM1504 374h-400q-61 -159 -300 -159
q-162 0 -240 71q-82 73 -82 232q0 158 82 231q78 71 240 71q239 0 300 -159h400q-41 199 -212.5 294.5t-487.5 95.5q-359 0 -533 -125q-180 -129 -180 -408q0 -280 180 -409q174 -125 533 -125q316 0 487.5 95.5t212.5 294.5z" />
    <glyph glyph-name="d" unicode="d" horiz-adv-x="1654" 
d="M806 820q149 0 236 -81t87 -221t-87 -221.5t-236 -81.5t-235.5 81.5t-86.5 221.5t86.5 221t235.5 81zM806 239q83 0 148.5 27t108 92t42.5 160q0 72 -24 127t-66 87t-94.5 48t-114.5 16t-114 -16t-94 -48t-66 -87t-24 -127t24 -127t66 -87.5t94 -48.5t114 -16zM1105 1434
h438v-1434h-398l-40 80q-5 -5 -14.5 -13t-45 -28.5t-77.5 -36.5t-112.5 -29t-148.5 -13q-113 0 -204.5 15.5t-174 55t-138 101.5t-88 160t-32.5 226t32.5 225.5t88 160t138 101.5t174 54.5t204.5 15.5q78 0 148 -12.5t113.5 -29.5t76 -34.5t46.5 -30.5l14 -12v478zM1519 24
v1386h-390v-512l-41 41q-29 28 -90 56q-123 56 -291 56q-292 0 -439 -109q-82 -60 -127 -162q-47 -109 -47 -262q0 -154 47 -263q44 -100 127 -161q149 -110 439 -110q168 0 291 56q27 12 49.5 26.5t31.5 22.5l9 8l24 23l14 -30l34 -66h359z" />
    <glyph glyph-name="e" unicode="e" horiz-adv-x="1601" 
d="M1121 623h-633l8 30q27 94 99 132q66 35 209 35t209 -35q72 -38 99 -132zM804 796q-135 0 -198 -32.5t-87 -116.5h570q-24 84 -87 116.5t-198 32.5zM1537 448h-1026q16 -106 88 -157.5t207 -51.5q64 0 117.5 5.5t85.5 12.5t63 20.5t43 21t32.5 23t25.5 18.5l284 -165
q-108 -117 -254.5 -166t-396.5 -49q-366 0 -552 137t-186 430q0 291 183 419.5t553 128.5t553.5 -128.5t183.5 -419.5q0 -29 -4 -79zM483 472h1032q2 36 2 55q0 279 -179 404q-172 120 -534 120t-534 -120q-179 -125 -179 -404q0 -142 47 -247q44 -99 134 -166
q93 -67 222 -98q134 -32 312 -32q247 0 390 48q128 43 222 137l-244 142q-1 -1 -3 -2.5t-3 -2.5q-25 -19 -44.5 -30.5t-61 -28t-106 -24.5t-150.5 -8q-285 0 -319 229z" />
    <glyph glyph-name="f" unicode="f" horiz-adv-x="1114" 
d="M838 1192q-114 0 -152.5 -35.5t-42.5 -121.5h437v-278h-438v-757h-438v757h-159v278h160q3 122 29 205.5t88 146.5t171.5 93t272.5 30v-24q-159 0 -267 -30q-100 -28 -160 -85q-54 -52 -80.5 -132.5t-29.5 -203.5l-1 -24h-159v-230h159v-757h390v757h439v230h-439l1 25
q4 95 48 136q50 44 171 44q117 0 338 -33v270q-243 33 -410 33v24q179 0 434 -37v-318q-253 37 -362 37z" />
    <glyph glyph-name="g" unicode="g" horiz-adv-x="1652" 
d="M1103 1035h438v-916q0 -224 -72.5 -361.5t-239.5 -206.5t-445 -69q-175 0 -304 28t-209.5 81t-124 121.5t-59.5 157.5l399 54q1 -2 5 -18t6.5 -22.5t10 -23t17 -25t24.5 -22t37 -21t49.5 -16t65.5 -12t83 -3.5q181 0 250 67t69 252v39q-5 -5 -14.5 -13t-45 -28.5
t-77.5 -36t-112.5 -28.5t-148.5 -13q-112 0 -204 15.5t-174.5 53.5t-138 98t-88 153t-32.5 214q0 123 32.5 218t88 155.5t138 98.5t174.5 53.5t204 15.5q78 0 148 -12.5t113.5 -29.5t76 -34.5t46.5 -30.5l14 -12v79zM1517 119v892h-390v-113l-41 41q-29 28 -90 56
q-123 56 -291 56q-290 0 -439 -108q-83 -59 -127 -156q-48 -107 -48 -253t47 -249q43 -93 128 -154q150 -107 439 -107q168 0 291 56q27 12 49.5 26t31.5 22l9 8l41 40v-57v-39q0 -194 -77 -270q-74 -73 -266 -73q-174 0 -253 61q-47 37 -63 100l-352 -49q35 -155 168 -238
q81 -51 201 -77q125 -28 299 -28q207 0 348 37q139 37 224 112q82 72 121.5 185t39.5 279zM804 820q156 0 239.5 -73.5t83.5 -212.5q0 -53 -13.5 -98t-47 -88t-100.5 -68t-162 -25t-162 25t-100 68t-46.5 88t-13.5 98q0 139 83 212.5t239 73.5zM804 279q299 0 299 255
q0 72 -24 124.5t-66.5 81.5t-94 42.5t-114.5 13.5t-114.5 -13.5t-94 -42.5t-66 -81.5t-23.5 -124.5q0 -255 298 -255z" />
    <glyph glyph-name="h" unicode="h" horiz-adv-x="1595" 
d="M927 1075q577 0 577 -557v-518h-438v518q0 147 -58.5 212.5t-180.5 65.5q-127 0 -202.5 -68t-75.5 -210v-518h-438v1434h438v-478q5 5 14.5 13t44 28.5t74.5 36t106 28.5t139 13zM1090 24h390v494q0 269 -137 401t-416 132q-158 0 -274 -56q-26 -12 -48 -26t-31 -22
l-9 -8l-40 -40v57v454h-391v-1386h391v494q0 144 79 223t223 79q132 0 197 -72q66 -75 66 -230v-494z" />
    <glyph glyph-name="i" unicode="i" horiz-adv-x="659" 
d="M111 0v1035h438v-1035h-438zM134 1011v-987h391v987h-391zM111 1434h438v-279h-438v279zM525 1179v231h-391v-231h391z" />
    <glyph glyph-name="j" unicode="j" horiz-adv-x="659" 
d="M110 40v995h438v-955q0 -43 -1.5 -76.5t-7 -83.5t-15.5 -89t-29 -86t-45 -82.5t-66 -70.5t-90 -57.5t-118.5 -36.5t-149.5 -14q-150 0 -343 46l39 318q113 -22 189 -22q42 0 74 7t53 16.5t35.5 28t21.5 32.5t10.5 39.5t4 39.5t0.5 42v9zM134 1011v-971v-9q0 -40 -1.5 -63
t-13 -56.5t-33.5 -55.5q-54 -54 -175 -54q-72 0 -168 18l-34 -272q179 -41 317 -41q169 0 282 61q93 51 146 146q70 125 70 366v931h-390zM110 1434h438v-279h-438v279zM524 1179v231h-390v-231h390z" />
    <glyph glyph-name="k" unicode="k" horiz-adv-x="1398" 
d="M875 581l510 -581h-492l-285 328l-73 -69v-259h-424v1434h424v-688l315 289h492zM626 343l278 -319h428l-475 541l-15 17l16 16l426 413h-424l-309 -282l-40 -37v718h-377v-1386h377v245l7 7l74 69l18 17z" />
    <glyph glyph-name="l" unicode="l" horiz-adv-x="659" 
d="M111 1434h438v-1434h-438v1434zM525 24v1386h-391v-1386h391z" />
    <glyph glyph-name="m" unicode="m" horiz-adv-x="2476" 
d="M1863 1075q271 0 394 -129.5t123 -425.5v-518h-438v518q0 147 -59 213t-180 66t-179.5 -66t-58.5 -213v-520h-439v518q0 147 -58.5 212.5t-179.5 65.5q-122 0 -180.5 -65.5t-58.5 -212.5v-518h-438v1035h438v-79q6 5 16.5 13t48.5 28.5t81 36t111 28.5t141 13
q151 0 247.5 -39t150.5 -124q174 163 518 163zM1966 26h391v494q0 286 -118 410q-59 62 -151 92q-90 29 -225 29q-334 0 -502 -157l-21 -19l-15 24q-50 79 -141 115.5t-237 36.5q-156 0 -285 -57q-28 -12 -52.5 -26t-35.5 -22l-10 -8l-39 -34v52v55h-391v-987h391v494
q0 155 66 230q63 72 197 72q132 0 197 -72q65 -74 65 -230v-494h391v496q0 156 65 230q63 72 197 72q133 0 198 -72q65 -74 65 -230v-494z" />
    <glyph glyph-name="n" unicode="n" horiz-adv-x="1675" 
d="M987 1075q137 0 244.5 -31.5t187.5 -97t122.5 -174t42.5 -254.5v-518h-438v518q0 72 -24 127t-66 87t-94.5 48t-114.5 16t-114 -16t-94 -48t-66 -87t-24 -127v-518h-438v1035h438v-79q6 5 18.5 13t55 28.5t90 36t122 28.5t152.5 13zM1560 24v494q0 275 -156 410
q-144 123 -417 123q-240 0 -424 -114l-38 -29v103h-391v-987h391v494q0 140 86.5 221t235.5 81t236 -81t87 -221v-494h390z" />
    <glyph glyph-name="o" unicode="o" horiz-adv-x="1609" 
d="M804 1075q368 0 552.5 -132.5t184.5 -424.5t-184.5 -425t-552.5 -133t-552 133t-184 425t184 424.5t552 132.5zM1338 109q179 129 179 409q0 279 -179 408q-174 125 -534 125q-359 0 -533 -125q-180 -129 -180 -408q0 -280 180 -409q174 -125 533 -125q360 0 534 125z
M1044 749q83 -74 83 -231q0 -158 -83 -232q-78 -71 -240 -71t-240 71q-82 73 -82 232q0 158 82 231q78 71 240 71t240 -71zM804 239q152 0 225.5 66t73.5 213t-73.5 212.5t-225.5 65.5t-225 -65.5t-73 -212.5t73 -213t225 -66z" />
    <glyph glyph-name="p" unicode="p" horiz-adv-x="1654" 
d="M947 1075q113 0 204.5 -15.5t174 -54.5t138 -101.5t88 -160t32.5 -225.5t-32.5 -226t-88 -160t-138 -101.5t-174 -55t-204.5 -15.5q-78 0 -148 12.5t-113.5 30t-76 35t-46.5 30.5l-14 12v-558h-438v1513h438v-79q5 5 14.5 13t45 28.5t77.5 36t112.5 28.5t148.5 13z
M1386 94q83 61 127 161q47 109 47 263q0 153 -47 262q-44 100 -127 161q-149 110 -439 110q-168 0 -291 -56q-27 -12 -50 -26t-32 -22l-9 -8l-40 -40v57v55h-391v-1465h391v591l41 -40q29 -29 90 -57q123 -56 291 -56q290 0 439 110zM847 820q149 0 236 -81t87 -221
t-87 -221.5t-236 -81.5t-235.5 81.5t-86.5 221.5t86.5 221t235.5 81zM847 239q83 0 148.5 27t108 92t42.5 160q0 72 -24 127t-66 87t-94.5 48t-114.5 16t-114 -16t-94 -48t-66 -87t-24 -127t24 -127t66 -87.5t94 -48.5t114 -16z" />
    <glyph glyph-name="q" unicode="q" horiz-adv-x="1654" 
d="M806 820q149 0 236 -81t87 -221t-87 -221.5t-236 -81.5t-235.5 81.5t-86.5 221.5t86.5 221t235.5 81zM806 239q83 0 148.5 27t108 92t42.5 160q0 72 -24 127t-66 87t-94.5 48t-114.5 16t-114 -16t-94 -48t-66 -87t-24 -127t24 -127t66 -87.5t94 -48.5t114 -16zM1105 1035
h438v-1513h-438v558q-5 -5 -14.5 -13t-45 -28.5t-77.5 -36.5t-112.5 -29t-148.5 -13q-113 0 -204.5 15.5t-174 55t-138 101.5t-88 160t-32.5 226t32.5 225.5t88 160t138 101.5t174 54.5t204.5 15.5q78 0 148 -12.5t113.5 -29.5t76 -34.5t46.5 -30.5l14 -12v79zM1519 -454
v1465h-390v-113l-41 41q-29 28 -90 56q-123 56 -291 56q-292 0 -439 -109q-82 -60 -127 -162q-47 -109 -47 -262q0 -154 47 -263q44 -100 127 -161q149 -110 439 -110q168 0 291 56q27 12 49.5 26.5t31.5 22.5l9 8l41 40v-57v-534h390z" />
    <glyph glyph-name="r" unicode="r" horiz-adv-x="1265" 
d="M907 1075q86 0 177.5 -12.5t141.5 -27.5v-318q-12 3 -42 9.5t-41.5 8.5t-36.5 7t-42 6.5t-43 4t-53.5 3.5t-60.5 1q-54 0 -99 -6t-95 -26t-84.5 -53.5t-57 -93.5t-22.5 -140v-438h-438v1035h438v-79q3 5 10 13t36 28.5t65.5 36t102.5 28.5t144 13zM1198 747h4v270
q-132 34 -295 34q-166 0 -269 -55q-22 -12 -39.5 -25t-23.5 -20t-7 -9l-44 -68l1 82v55h-391v-987h391v414q0 200 130 284q92 59 252 59q68 0 122.5 -5t82.5 -10.5t86 -18.5z" />
    <glyph glyph-name="s" unicode="s" horiz-adv-x="1546" 
d="M850 657q238 0 373.5 -35.5t190 -107t54.5 -195.5q0 -87 -19.5 -145t-64.5 -101.5t-127.5 -67t-198.5 -34.5t-287 -11q-172 0 -287.5 11t-198 34.5t-127.5 66.5t-64.5 101.5t-19.5 145.5h418q0 -30 12.5 -46.5t55 -23.5t81 -8.5t130.5 -1.5q169 0 223.5 11t54.5 61
q0 48 -64.5 58t-293.5 10q-179 0 -295 18.5t-183.5 61.5t-93.5 103.5t-26 154.5q0 76 17 129.5t61 99t120.5 72.5t195 42t284.5 15q167 0 285 -14t194.5 -40.5t120 -72t60.5 -99.5t17 -132h-399q0 29 -17.5 45.5t-62.5 23.5t-81 8.5t-111 1.5h-6q-171 0 -225 -10.5
t-54 -60.5q0 -47 66 -57.5t292 -10.5zM1317 56q67 35 97 97t30 166q0 86 -27 143q-29 60 -91 95q-132 76 -476 76q-224 0 -287 10q-95 15 -95 82q0 70 84 86q47 9 219 9h57t51.5 -1t50 -3t41 -5.5t38.5 -9.5t28 -14t22.5 -19.5t11.5 -26.5h352q-3 85 -30.5 138t-86.5 88
q-143 84 -535 84q-393 0 -536 -86q-63 -37 -92 -101q-26 -60 -26 -147q0 -91 25.5 -147.5t82.5 -90.5q124 -76 466 -76q229 0 287 -9q95 -15 95 -83q0 -71 -84 -87q-47 -9 -218 -9q-167 0 -229 12.5t-72 67.5h-372q3 -94 32.5 -150t93.5 -89q138 -72 547 -72q408 0 546 72z
" />
    <glyph glyph-name="t" unicode="t" horiz-adv-x="1107" 
d="M755 286q27 0 65 4.5t105.5 14t111.5 14.5v-319q-219 -40 -380 -40q-314 0 -406 164q-48 84 -51 251v63v319h-159v278h159v319h438v-319h359v-278h-359v-319q0 -88 25 -120t92 -32zM1013 20v271q-78 -10 -83 -11q-131 -18 -175 -18q-83 0 -112 42.5t-29 133.5v343h359
v230h-359v319h-390v-319h-159v-230h159v-345q0 -73 2 -114.5t14.5 -99t37.5 -97.5q42 -67 124 -101q95 -40 255 -40q151 0 356 36z" />
    <glyph glyph-name="u" unicode="u" horiz-adv-x="1675" 
d="M1125 1035h439v-1035h-399l-40 80q-6 -5 -18.5 -13t-55 -28.5t-90 -36.5t-122 -29t-152.5 -13q-137 0 -244.5 31.5t-187.5 97.5t-122.5 174.5t-42.5 254.5v517h438v-517q0 -95 42.5 -160t108 -92t148.5 -27q62 0 114 16t94 48.5t66 87.5t24 127v517zM1540 24v987h-391
v-493q0 -140 -86.5 -221.5t-235.5 -81.5t-236 81.5t-87 221.5v493h-390v-493q0 -275 156 -410q145 -124 417 -124q244 0 424 115l23 17l13 -26l33 -66h360z" />
    <glyph glyph-name="v" unicode="v" horiz-adv-x="1542" 
d="M1090 1035h438l-521 -1035h-472l-521 1035h438l319 -634zM993 24l496 987h-385l-312 -620l-21 -43l-21 43l-312 620h-385l496 -987h444z" />
    <glyph glyph-name="w" unicode="w" horiz-adv-x="2136" 
d="M1704 1035h410l-370 -1035h-438l-239 677l-239 -677h-438l-370 1035h410l219 -617l219 617h398l219 -617zM1727 24l353 987h-359l-213 -601l-23 -63l-22 63l-214 601h-364l-213 -601l-23 -63l-22 63l-214 601h-359l353 -987h404l234 661l22 64l23 -64l233 -661h404z" />
    <glyph glyph-name="x" unicode="x" horiz-adv-x="1474" 
d="M1454 1035l-478 -517l478 -518h-478l-239 259l-239 -259h-478l478 518l-478 517h478l239 -258l239 258h478zM1400 24l-441 477l-15 17l15 16l441 477h-413l-232 -251l-18 -19l-17 19l-232 251h-413l441 -477l15 -16l-15 -17l-441 -477h413l232 251l17 19l18 -19l232 -251
h413z" />
    <glyph glyph-name="y" unicode="y" horiz-adv-x="1441" 
d="M1017 1035h411l-579 -1075q-105 -196 -121 -223q-85 -141 -175 -197q-92 -56 -226 -56q-112 0 -267 38v339q18 -4 61 -13t59.5 -12.5t42 -7t43.5 -3.5q55 0 93 30t79 106h1l76 141l-503 933h410l298 -552zM828 -29l560 1040h-356l-291 -539l-21 -39l-21 39l-291 539h-356
l484 -898l6 -11l-6 -11l-76 -142l-7 -12q-42 -74 -84 -104.5t-103 -30.5q-49 0 -172 27q-2 1 -5 1.5t-5 0.5v-290q143 -33 243 -33q173 0 278 105q32 32 67 84t55.5 88t63.5 117q6 12 18.5 35t18.5 34z" />
    <glyph glyph-name="z" unicode="z" horiz-adv-x="1509" 
d="M1430 1035v-278l-757 -478h757v-279h-1354v279l756 478h-756v278h1354zM1406 770v241h-1306v-230h815l-70 -45l-745 -470v-242h1306v231h-815l69 44z" />
    <glyph glyph-name="braceleft" unicode="{" horiz-adv-x="759" 
d="M542 1083v-92q0 -166 -84 -274q84 -108 84 -274v-92q0 -175 59 -254q33 -45 88 -45v-316q-103 0 -191.5 44.5t-150.5 127.5q-120 162 -120 443v92q0 59 -20 82q-29 34 -127 34v316q99 0 127 33q20 23 20 83v92q0 280 120 442q62 83 150.5 127.5t191.5 44.5v-315
q-55 0 -88 -45q-59 -79 -59 -254zM518 991v92q0 183 63 268q35 46 84 53v269q-185 -11 -298 -162q-116 -155 -116 -428v-92q0 -67 -25 -98q-30 -38 -122 -42v-269q92 -4 122 -42q25 -31 25 -97v-92q0 -273 116 -428q113 -151 298 -162v269q-50 7 -84 52q-63 85 -63 269v92
q0 158 -79 259l-11 15l11 14q79 101 79 260z" />
    <glyph glyph-name="verticalbar" unicode="|" horiz-adv-x="591" 
d="M123 1434h344v-1753h-344v1753zM443 -295v1705h-296v-1705h296z" />
    <glyph glyph-name="braceright" unicode="}" horiz-adv-x="759" 
d="M551 908q28 -33 128 -33v-316q-99 0 -128 -34q-19 -22 -19 -82v-92q0 -280 -121 -443q-129 -172 -341 -172v316q55 0 88 45q58 78 58 254v92q0 165 85 274q-85 109 -85 274v92q0 176 -58 254q-33 45 -88 45v315q212 0 341 -172q121 -163 121 -442v-92q0 -61 19 -83z
M655 582v269q-92 4 -122 42q-25 31 -25 98v92q0 273 -116 428q-113 151 -298 162v-269q48 -7 83 -53q63 -85 63 -268v-92q0 -159 79 -260l12 -14l-12 -15q-79 -101 -79 -259v-92q0 -184 -63 -269q-34 -45 -83 -52v-269q185 11 298 162q116 155 116 428v92q0 66 25 97
q30 38 122 42z" />
    <glyph glyph-name="asciitilde" unicode="~" horiz-adv-x="1476" 
d="M1182 925l244 -243q-90 -90 -193 -135q-96 -42 -204 -47h-10h-11.5h-9.5q-115 0 -309 50q-158 40 -220 40q-100 0 -178 -78l-244 243q87 87 191 133q93 40 200 45q5 0 15 0.5t15 0.5q113 0 307 -50q160 -40 222 -40q104 0 185 81zM1223 569q91 39 169 113l-210 210
q-81 -72 -185 -72q-66 0 -228 41q-194 49 -301 49h-28q-102 -4 -193 -44q-90 -40 -166 -111l210 -210q78 69 178 69q67 0 226 -41q200 -50 303 -50q5 0 15 0.5t15 0.5q101 4 195 45z" />
    <glyph glyph-name="nonbreakingspace" unicode="&#xa0;" horiz-adv-x="962" 
 />
    <glyph glyph-name="exclamdown" unicode="&#xa1;" horiz-adv-x="630" 
d="M96 -320v861h438v-861h-438zM120 517v-813h390v813h-390zM96 1115h438v-344h-438v344zM510 795v296h-390v-296h390z" />
    <glyph glyph-name="cent" unicode="&#xa2;" horiz-adv-x="1470" 
d="M739 438q274 0 327 181h326q-11 -81 -37 -145q-48 -117 -140 -193q-88 -73 -215 -108q-58 -15 -96 -21v-152h-344v155q-42 7 -82 18q-128 35 -216 108q-91 75 -139 193q-43 109 -43 241q0 131 43 240q48 118 139 193q90 74 216 109q40 11 82 18v159h344v-157
q47 -7 96 -20q125 -34 215 -109q92 -76 140 -193q26 -64 37 -145h-325q-52 181 -328 181q-340 0 -340 -276q0 -277 340 -277zM1364 595h-280q-65 -181 -345 -181q-197 0 -288 90q-76 75 -76 211t77 211q91 89 287 89q280 0 345 -181h280q-11 63 -31 113q-43 108 -133 183
q-84 71 -207 104q-39 11 -93 19l-20 3v154h-296v-155l-20 -4q-53 -10 -80 -17q-121 -33 -206 -104q-90 -75 -133 -183q-41 -103 -41 -232t41 -232q43 -108 133 -183q85 -71 206 -104q37 -10 80 -18l20 -3v-151h296v149l20 3q45 7 93 20q123 33 207 104q90 75 133 183
q20 51 31 112z" />
    <glyph glyph-name="sterling" unicode="&#xa3;" horiz-adv-x="1828" 
d="M638 588q11 -142 -3 -240h1074v-349h-1375l-187 323q45 79 57 139.5t4 126.5h-128v244h96q0 314 204 483q104 86 260 127q145 37 326 37q156 0 284 -33q143 -36 247 -111q116 -82 179 -208q62 -124 62 -275h-430q0 58 -14 95t-47 69q-48 46 -110 61.5t-174 15.5
q-139 0 -207 -21t-102 -57q-21 -23 -30.5 -38.5t-16 -52.5t-1.5 -92h536v-244h-504zM1685 23v301h-1077l4 28q13 91 2 234l-2 26h506v196h-534l-2 22q-7 84 6.5 123.5t47.5 77.5q36 39 108 62.5t219 23.5q115 0 182.5 -17t118.5 -67q63 -61 67 -157h383q-5 132 -59 241
q-58 117 -172 198q-103 74 -239 108q-126 32 -278 32q-182 0 -320 -36q-151 -40 -251 -122q-195 -161 -195 -465v-24h-96v-196h125l3 -21q8 -67 -3.5 -129t-54.5 -140l173 -299h1338z" />
    <glyph glyph-name="currency" unicode="&#xa4;" horiz-adv-x="1105" 
d="M910 565q-3 -10 -7 -16l128 -129l-183 -182l-128 128q-2 -1 -8 -3.5t-8 -3.5q-74 -31 -151 -31t-151 31q-3 1 -17 8l-129 -129l-182 182l129 129q-5 10 -7 16q-30 72 -30 151t30 151l7 16l-129 129l182 183l129 -129q11 4 17 7q72 30 151 30t151 -30q3 -1 8 -3.5l7 -3.5
l129 129l183 -183l-129 -128q7 -14 8 -17q30 -72 30 -151t-30 -151zM997 420l-111 112l-12 12l7 15l3.5 7t3.5 8q29 69 29 142q0 72 -29 141q-5 13 -7 16l-8 15l12 12l112 112l-149 149l-124 -124l-15 7q-2 1 -6.5 3.5t-7.5 3.5q-66 28 -142 28q-75 0 -141 -28l-18 -7
l-14 -6l-124 123l-148 -149l112 -112l11 -11l-6 -15q-4 -11 -7 -17q-28 -66 -28 -141q0 -76 28 -142l7 -16l6 -14l-123 -124l148 -149l112 112l12 12l16 -7q3 -2 16 -7q69 -29 141 -29q73 0 142 29q3 1 8 3.5l7 3.5l15 7l12 -12l111 -112zM553 869q63 0 108 -45t45 -108
t-45 -108t-108 -45t-108 45t-45 108t45 108t108 45zM553 587q53 0 91 38t38 91t-38 91t-91 38t-91 -38t-38 -91t38 -91t91 -38z" />
    <glyph glyph-name="yen" unicode="&#xa5;" horiz-adv-x="2009" 
d="M1886 1434l-596 -832h295v-143h-365v-115h365v-144h-365v-201h-431v201h-352v144h352v115h-352v143h282l-596 832h529l353 -491l352 491h529zM1561 482v96h-318l27 38l570 794h-471l-345 -481l-19 -27l-20 27l-345 481h-471l570 -794l27 -38h-305v-96h352v-162h-352v-96
h352v-201h383v201h365v96h-365v162h365z" />
    <glyph glyph-name="section" unicode="&#xa7;" horiz-adv-x="1619" 
d="M735 469q-44 2 -65 3.5t-55 4t-50 6t-38.5 9t-33 13.5t-21.5 19t-15 25.5t-4 32.5q0 40 23 68l9 10l13 -2q100 -15 312 -21h1q14 -1 39 -2.5t35 -1.5q44 -2 65 -3.5t55 -4t49.5 -6t38.5 -9t33 -13.5t21 -19t15 -25.5t4 -32.5q0 -39 -23 -67l-8 -10l-14 1q-109 16 -312 22
h-1q-35 1 -73 3zM494 634q-17 -20 -17 -52q0 -28 16 -45t51.5 -25.5t81 -12.5t116.5 -7q15 0 23 -0.5t21 -1t24 -1.5q206 -5 315 -21q17 20 17 52q0 28 -15.5 45t-51 25.5t-81 12.5t-116.5 7q-44 2 -68 3q-207 5 -316 21zM1513 964h-370v37q0 64 -81.5 94t-251.5 30
q-180 0 -256.5 -24t-76.5 -87q0 -28 16 -45t51.5 -25.5t81 -12.5t116.5 -7q44 -2 68 -3q119 -3 199.5 -9t162.5 -20.5t136 -39t99.5 -65t74.5 -98.5q31 -62 31 -155q0 -94 -30 -164q-13 -32 -33 -60q10 -14 31 -53q32 -64 32 -155q0 -94 -30 -164q-42 -101 -143 -161
q-160 -96 -530 -96q-352 0 -506 84q-85 46 -141.5 129t-56.5 207v37h371v-37q0 -64 81.5 -94t251.5 -30q180 0 256 24.5t76 87.5q0 51 -60 68q-43 13 -200 20l-72 4q-119 3 -199.5 9t-162.5 20.5t-136 39t-99.5 65t-74.5 98.5q-31 62 -31 156q0 95 29 163q13 30 34 61
q-16 21 -32 52q-31 62 -31 155q0 96 29 164q42 101 143 161q160 96 531 96q353 0 505 -83q85 -46 141.5 -129.5t56.5 -207.5v-37zM1069 1118q98 -36 98 -117v-13h322v13q0 118 -58 203q-46 69 -127 113q-148 80 -494 80q-364 0 -518 -93q-95 -57 -134 -149q-28 -66 -28 -155
q0 -86 29 -144q15 -29 30 -49l10 -14l-10 -14q-20 -28 -31 -56q-28 -66 -28 -154q0 -87 29 -145q64 -128 224 -174q133 -38 427 -45h1q14 -1 39 -2.5t35 -1.5q163 -8 209 -22q68 -29 72 -90q0 -81 -95 -111q-75 -24 -261 -24q-176 0 -260 31q-97 36 -97 116v13h-323v-13
q0 -116 59 -202q47 -70 126 -113q150 -81 495 -81q364 0 518 93q93 56 133 150q28 66 28 154q0 87 -29 145q-14 25 -30 48l-10 14l10 14q20 28 31 56q28 66 28 155q0 86 -29 144q-64 128 -224 174q-133 38 -427 45h-1q-14 1 -38.5 2.5t-34.5 1.5q-44 2 -65 3.5t-55 4t-50 6
t-38.5 9t-33 13.5t-21.5 19t-15 25.5t-4 32.5q0 80 95 110q78 25 262 25q175 0 259 -31z" />
    <glyph glyph-name="dieresis" unicode="&#xa8;" horiz-adv-x="731" 
d="M49 1200v230h230v-230h-230zM73 1406v-182h182v182h-182zM451 1430h229v-230h-229v230zM657 1224v182h-182v-182h182z" />
    <glyph glyph-name="copyright" unicode="&#xa9;" horiz-adv-x="862" 
d="M432 1154q-97 0 -97 -78q0 -79 97 -79q77 0 93 51h93q-3 -23 -10 -41q-13 -33 -40 -55q-24 -20 -62 -31q-33 -9 -74 -9t-74 9q-38 11 -62 31q-27 22 -40 55q-12 30 -12 69q0 38 12 68q13 33 40 55q24 20 62 31q33 9 74 9t74 -9q38 -11 62 -31q27 -22 40 -55q7 -18 10 -41
h-93q-15 51 -93 51zM311 1076q0 17 4.5 32.5t16 32.5t37.5 27t63 10q83 0 110 -51h47q-1 2 -2 4.5t-1 3.5q-11 28 -33 46q-19 16 -53 26q-32 8 -68 8t-68 -8q-34 -10 -53 -26q-22 -18 -33 -46q-10 -24 -10 -59q0 -36 10 -60q11 -28 33 -46q19 -16 53 -26q32 -8 68 -8t68 8
q34 10 53 26q22 18 33 46q0 2 1 4l2 4h-48q-27 -51 -109 -51q-69 0 -95 31.5t-26 71.5zM761 1215q28 -65 28 -139q0 -75 -28 -140q-27 -64 -77 -114t-114 -77q-65 -28 -140 -28q-74 0 -139 28q-64 27 -114 77t-77 114q-28 65 -28 140q0 74 28 139q27 64 77 114t114 77
q65 28 139 28q75 0 140 -28q64 -27 114 -77t77 -114zM739 945q26 63 26 131q0 67 -26 130q-25 59 -72 106t-106 72q-63 26 -131 26q-67 0 -130 -26q-59 -25 -106 -72t-72 -106q-26 -63 -26 -130q0 -68 26 -131q25 -59 72 -106t106 -72q63 -26 130 -26q68 0 131 26
q59 25 106 72t72 106zM430 1372q123 0 210 -86.5t87 -209.5t-87 -210t-210 -87t-209.5 87t-86.5 210t86.5 209.5t209.5 86.5zM430 803q112 0 192.5 80.5t80.5 192.5t-80 192t-193 80q-112 0 -192 -80t-80 -192q0 -113 80 -193t192 -80z" />
    <glyph glyph-name="guillemotleft" unicode="&#xab;" horiz-adv-x="1206" 
d="M1092 1469v-502l-236 -250l236 -251v-501l-473 501v502zM1068 977v432l-425 -451v-482l425 -451v432l-230 243l-15 17l15 16zM88 466v502l474 501v-502l-237 -250l237 -251v-501zM112 958v-482l426 -451v432l-230 243l-16 17l16 16l230 244v432z" />
    <glyph glyph-name="softhyphen" unicode="&#xad;" horiz-adv-x="0" 
 />
    <glyph glyph-name="registered" unicode="&#xae;" horiz-adv-x="862" 
d="M473 1182q26 0 44.5 -18.5t18.5 -44.5t-18.5 -44.5t-44.5 -18.5h-134v126h134zM473 1080q17 0 28 11t11 28t-11 28t-28 11h-110v-78h110zM595 1075q-9 -20 -24 -35q-7 -7 -16 -13l48 -99h-101l-39 79h-100v-79h-90v303h219q22 0 43 -9q22 -10 36 -24t24 -36q8 -19 8 -43
q0 -25 -8 -44zM533 1016l-9 19l17 11q5 3 13 11q13 13 19 28q6 13 6 34t-6 34q-6 15 -19 28t-28 19q-15 7 -34 7h-195v-255h42v79h139l7 -13l32 -66h47zM761 1215q28 -65 28 -139q0 -75 -28 -140q-27 -64 -77 -114t-114 -77q-65 -28 -140 -28q-74 0 -139 28q-64 27 -114 77
t-77 114q-28 65 -28 140q0 74 28 139q27 64 77 114t114 77q65 28 139 28q75 0 140 -28q64 -27 114 -77t77 -114zM739 945q26 63 26 131q0 67 -26 130q-25 59 -72 106t-106 72q-63 26 -131 26q-67 0 -130 -26q-59 -25 -106 -72t-72 -106q-26 -63 -26 -130q0 -68 26 -131
q25 -59 72 -106t106 -72q63 -26 130 -26q68 0 131 26q59 25 106 72t72 106zM430 1372q123 0 210 -86.5t87 -209.5t-87 -210t-210 -87t-209.5 87t-86.5 210t86.5 209.5t209.5 86.5zM430 803q112 0 192.5 80.5t80.5 192.5t-80 192t-193 80q-112 0 -192 -80t-80 -192
q0 -113 80 -193t192 -80z" />
    <glyph glyph-name="degree" unicode="&#xb0;" horiz-adv-x="651" 
d="M325 1390q43 0 73 -29.5t30 -72.5t-30 -73t-73 -30t-73 30t-30 73t30 72.5t73 29.5zM325 1209q33 0 56 23t23 56t-23 56t-56 23t-56 -23t-23 -56t23 -56t56 -23zM325 1553q109 0 187 -77.5t78 -187.5t-78 -188t-187 -78t-187.5 78t-78.5 188q0 109 78 187t188 78z
M325 1046q100 0 170.5 71t70.5 171t-70.5 170.5t-170.5 70.5t-171 -70.5t-71 -170.5t71 -171t171 -71z" />
    <glyph glyph-name="plusminus" unicode="&#xb1;" horiz-adv-x="1196" 
d="M88 -2v302h1007v-302h-1007zM112 276v-254h959v254h-959zM755 1083h352v-302h-352v-352h-302v352h-352v302h352v352h302v-352zM1084 805v254h-353v353h-254v-353h-352v-254h352v-352h254v352h353z" />
    <glyph glyph-name="acute" unicode="&#xb4;" horiz-adv-x="581" 
d="M207 1431h344l-287 -258h-229zM255 1197l234 210h-269l-141 -210h176z" />
    <glyph glyph-name="paragraph" unicode="&#xb6;" horiz-adv-x="1556" 
d="M498 1434h976v-344h-144v-1409h-344v1409h-144v-1409h-344v892q-178 0 -304 126t-126 305q0 178 126 304t304 126zM1450 1114v296h-952q-168 0 -287.5 -119t-119.5 -287t119.5 -287.5t287.5 -119.5h24v-892h296v1409h192v-1409h296v1409h144z" />
    <glyph glyph-name="cedilla" unicode="&#xb8;" horiz-adv-x="532" 
d="M123 0h286v-172l-143 -229h-100l71 229h-114v172zM385 -165v141h-238v-124h123l-10 -31l-62 -198h55z" />
    <glyph glyph-name="guillemotright" unicode="&#xbb;" horiz-adv-x="1206" 
d="M113 972v501l473 -501v-501l-473 -502v502l236 250zM137 1413v-432l230 -243l15 -17l-15 -16l-230 -244v-432l425 451v483zM643 1473l474 -501v-501l-474 -502v502l237 250l-237 251v501zM1093 480v483l-426 450v-432l230 -243l16 -17l-16 -16l-230 -244v-432z" />
    <glyph glyph-name="questiondown" unicode="&#xbf;" horiz-adv-x="1732" 
d="M1075 1115v-319h-438v319h438zM1051 820v271h-390v-271h390zM1257 159h438q0 -93 -18.5 -166.5t-52 -127.5t-88 -93.5t-118.5 -64t-151.5 -39.5t-179 -20.5t-209.5 -5.5q-120 0 -214 5.5t-181.5 19t-152 36.5t-117.5 58t-86 83t-50.5 111.5t-17.5 144.5q0 73 6.5 123
t30 91t47.5 65.5t81.5 51.5t108 44.5t149.5 47.5q11 3 34.5 10t30.5 9.5t24 8t20.5 9t14.5 10t13 13t8 16t6.5 21t2 25.5t1.5 32h441q0 -64 -1.5 -96t-9.5 -79.5t-26 -73t-50 -60t-81.5 -57t-121.5 -48t-169 -48.5q-42 -10 -66.5 -21t-35.5 -26.5t-13.5 -29t-2.5 -38.5
q0 -69 78.5 -84.5t298.5 -15.5h69.5t61.5 1t57.5 3t48 6t43.5 10t34 14.5t29 20t19 27t13.5 34.5t3.5 43zM1470 -243q99 52 149 148q49 95 52 230h-391q-2 -26 -10.5 -47t-18.5 -37t-30.5 -28t-36.5 -20t-48 -13t-53 -8t-63 -4.5t-66.5 -1.5h-75.5q-223 0 -288 13
q-113 23 -113 111q0 29 3.5 46t16.5 36t41.5 32t75.5 24q307 74 387 174q34 42 43.5 95.5t9.5 145.5h-394q-3 -66 -30 -94q-24 -24 -108 -49q-30 -9 -33 -10q-144 -44 -216 -72.5t-113 -65.5q-42 -38 -59.5 -97.5t-17.5 -164.5q0 -132 50 -220q48 -82 146 -130
q93 -45 249 -66q149 -19 350 -19q221 0 361.5 22t230.5 70z" />
    <glyph glyph-name="Agrave" unicode="&#xc0;" 
d="M1069 1548h-229l-287 258h344zM884 1782h-269l234 -210h175zM961 956l209 -428l16 -34h-496l17 34l211 428l22 44zM729 518h419l-209 427zM1180 1434l703 -1434h-478l-78 159h-771l-79 -159h-479l703 1434h479zM1348 170l72 -146h425l-680 1386h-449l-680 -1386h427
l72 146l6 13h801z" />
    <glyph glyph-name="Aacute" unicode="&#xc1;" 
d="M1327 1808l-287 -258h-230l172 258h345zM855 1574h176l234 210h-270zM1180 1434l703 -1434h-478l-78 159h-771l-79 -159h-479l703 1434h479zM1348 170l72 -146h425l-680 1386h-449l-680 -1386h427l72 146l6 13h801zM961 956l209 -428l16 -34h-496l17 34l211 428l22 44z
M729 518h419l-209 427z" />
    <glyph glyph-name="Acircumflex" unicode="&#xc2;" 
d="M825 1549h-284h-1l258 254h286l257 -254h-1h-284l-115 113zM807 1780l-209 -208h218l108 107l17 17l16 -17l109 -107h218l-210 208h-267zM961 956l209 -428l16 -34h-496l17 34l211 428l22 44zM729 518h419l-209 427zM1180 1434l703 -1434h-478l-78 159h-771l-79 -159
h-479l703 1434h479zM1348 170l72 -146h425l-680 1386h-449l-680 -1386h427l72 146l6 13h801z" />
    <glyph glyph-name="Atilde" unicode="&#xc3;" 
d="M783 1604q-60 0 -106 -46l-143 144q53 53 112 78q55 24 119 27h17q67 0 181 -29q93 -24 132 -24q61 0 109 48l144 -144q-52 -52 -114 -79q-58 -25 -120 -28h-19q-64 0 -182 30q-89 23 -130 23zM656 1758q-45 -19 -88 -57l110 -110q46 37 105 37q40 0 136 -24
q112 -29 176 -29h17q58 3 112 26q49 22 89 58l-110 110q-48 -39 -108 -39q-42 0 -138 25q-106 28 -175 28h-16q-60 -3 -110 -25zM961 956l209 -428l16 -34h-496l17 34l211 428l22 44zM729 518h419l-209 427zM1180 1434l703 -1434h-478l-78 159h-771l-79 -159h-479l703 1434
h479zM1348 170l72 -146h425l-680 1386h-449l-680 -1386h427l72 146l6 13h801z" />
    <glyph glyph-name="Adieresis" unicode="&#xc4;" 
d="M859 1793v-230h-230v230h230zM835 1587v182h-182v-182h182zM1260 1793v-230h-229v230h229zM1237 1587v182h-182v-182h182zM961 956l209 -428l16 -34h-496l17 34l211 428l22 44zM729 518h419l-209 427zM1180 1434l703 -1434h-478l-78 159h-771l-79 -159h-479l703 1434h479
zM1348 170l72 -146h425l-680 1386h-449l-680 -1386h427l72 146l6 13h801z" />
    <glyph glyph-name="Aring" unicode="&#xc5;" 
d="M940 1531q-89 0 -152 63t-63 152t63 152t152 63t152 -63t63 -152t-63 -152t-152 -63zM940 1937q-79 0 -135 -56t-56 -135t56 -135t135 -56t135 56t56 135t-56 135t-135 56zM940 1651q-40 0 -67.5 27.5t-27.5 67.5t27.5 68t67.5 28t68 -28t28 -68t-28 -67.5t-68 -27.5z
M940 1818q-30 0 -50.5 -21t-20.5 -51t20.5 -50.5t50.5 -20.5t51 20.5t21 50.5t-21 51t-51 21zM1180 1434l703 -1434h-478l-78 159h-771l-79 -159h-479l703 1434h479zM1348 170l72 -146h425l-680 1386h-449l-680 -1386h427l72 146l6 13h801zM961 956l209 -428l16 -34h-496
l17 34l211 428l22 44zM729 518h419l-209 427z" />
    <glyph glyph-name="AE" unicode="&#xc6;" horiz-adv-x="2228" 
d="M709 528l208 422l46 92v-548h-271zM939 518v422l-208 -422h208zM2133 1075h-756v-179h676v-358h-676v-180h756v-358h-1194v159h-381l-79 -159h-479l703 1434h1430v-359zM2029 872h-676v227h756v311h-1391l-680 -1386h427l72 146l6 13h420v-159h1146v311h-756v226h676v311
z" />
    <glyph glyph-name="Ccedilla" unicode="&#xc7;" horiz-adv-x="1957" 
d="M831 -286v172h287v-172l-143 -229h-101l72 229h-115zM855 -138v-124h123l-9 -31l-62 -198h54l133 212v141h-239zM1406 558h487q-16 -139 -64.5 -241.5t-123 -170.5t-184 -109.5t-238.5 -59t-297 -17.5q-175 0 -310.5 21t-252 73.5t-192.5 138t-118.5 217t-42.5 307.5
q0 207 58 353t176.5 234.5t285 128.5t396.5 40q206 0 360.5 -32t271 -102t184.5 -185.5t90 -277.5h-486q-34 134 -136 186.5t-284 52.5q-111 0 -187.5 -17.5t-135.5 -61.5t-87 -122.5t-28 -196.5t28 -196.5t87 -122.5t135.5 -61.5t187.5 -17.5q179 0 282 53t138 186z
M1609 104q110 66 174 175q62 107 83 255h-442q-23 -75 -68 -125t-109 -73.5t-123.5 -32t-137.5 -8.5q-234 0 -339 85q-123 98 -123 337t123 337q105 85 339 85q78 0 138 -8.5t124 -32t109 -73.5t68 -125h439q-46 286 -258 418q-213 132 -620 132q-455 0 -668 -165
q-224 -174 -224 -568q0 -411 239 -583q209 -150 653 -150q423 0 623 120z" />
    <glyph glyph-name="Egrave" unicode="&#xc8;" horiz-adv-x="1691" 
d="M992 1549h-230l-287 259h344zM807 1784h-270l234 -211h176zM1596 1075h-1035v-179h956v-358h-956v-180h1035v-358h-1473v1434h1473v-359zM1493 872h-956v227h1035v311h-1425v-1386h1425v311h-1035v226h956v311z" />
    <glyph glyph-name="Eacute" unicode="&#xc9;" horiz-adv-x="1691" 
d="M1248 1808l-287 -259h-230l173 259h344zM776 1573h176l234 211h-270zM1596 1075h-1035v-179h956v-358h-956v-180h1035v-358h-1473v1434h1473v-359zM1493 872h-956v227h1035v311h-1425v-1386h1425v311h-1035v226h956v311z" />
    <glyph glyph-name="Ecircumflex" unicode="&#xca;" horiz-adv-x="1691" 
d="M748 1549h-284l-1 1l258 254h286l257 -254l-1 -1h-284l-115 114zM730 1780l-209 -207h217l109 107l17 16l16 -16l109 -107h218l-210 207h-267zM1596 1075h-1035v-179h956v-358h-956v-180h1035v-358h-1473v1434h1473v-359zM1493 872h-956v227h1035v311h-1425v-1386h1425
v311h-1035v226h956v311z" />
    <glyph glyph-name="Edieresis" unicode="&#xcb;" horiz-adv-x="1691" 
d="M777 1791v-229h-230v229h230zM753 1585v182h-182v-182h182zM1178 1791v-229h-229v229h229zM1154 1585v182h-181v-182h181zM1596 1075h-1035v-179h956v-358h-956v-180h1035v-358h-1473v1434h1473v-359zM1493 872h-956v227h1035v311h-1425v-1386h1425v311h-1035v226h956
v311z" />
    <glyph glyph-name="Igrave" unicode="&#xcc;" horiz-adv-x="684" 
d="M473 1545h-229l-287 259h344zM289 1780h-270l234 -211h176zM123 1434h438v-1434h-438v1434zM537 24v1386h-390v-1386h390z" />
    <glyph glyph-name="Iacute" unicode="&#xcd;" horiz-adv-x="686" 
d="M705 1804l-287 -259h-229l172 259h344zM233 1569h176l234 211h-269zM123 0v1434h438v-1434h-438zM147 1410v-1386h390v1386h-390z" />
    <glyph glyph-name="Icircumflex" unicode="&#xce;" horiz-adv-x="684" 
d="M488 1804l257 -254l-1 -1h-284l-115 114l-115 -114h-284l-1 1l257 254h286zM470 1573h218l-210 207h-266l-210 -207h218l108 107l17 17l17 -17zM122 0v1434h438v-1434h-438zM146 1410v-1386h390v1386h-390z" />
    <glyph glyph-name="Idieresis" unicode="&#xcf;" horiz-adv-x="686" 
d="M256 1775v-230h-229v230h229zM232 1569v182h-181v-182h181zM428 1775h230v-230h-230v230zM634 1569v182h-182v-182h182zM123 0v1434h438v-1434h-438zM146 1410v-1386h391v1386h-391z" />
    <glyph glyph-name="Eth" unicode="&#xd0;" horiz-adv-x="1964" 
d="M1021 1434q219 0 378 -38t272.5 -122t169 -222.5t55.5 -334.5q0 -168 -37 -291.5t-106 -205t-179 -131t-242.5 -69.5t-310.5 -20h-836v558h-119v358h119v518h836zM1659 165q107 79 159 210q55 137 55 342q0 371 -215 537q-202 156 -637 156h-812v-518h-120v-311h120v-557
h812q218 0 373 32q164 35 265 109zM1355 1029q128 -88 128 -312q0 -93 -22 -161t-60 -110.5t-98.5 -67.5t-126.5 -34t-155 -9h-422v246h359v311h-359v207h422q231 0 334 -70zM1021 358q86 0 148.5 8t120 31.5t93 62.5t56 103.5t20.5 153.5t-20.5 153t-55.5 103.5t-92 62.5
t-120 31t-150 8h-398v-159h358v-358h-358v-200h398z" />
    <glyph glyph-name="Ntilde" unicode="&#xd1;" horiz-adv-x="1957" 
d="M830 1604q-60 0 -106 -46l-143 143q55 55 112 79q53 23 119 26q3 0 8.5 0.5t8.5 0.5q63 0 181 -30q89 -23 132 -23q61 0 109 48l144 -144q-53 -53 -114 -80q-55 -24 -121 -27q-3 0 -9 -0.5t-9 -0.5q-64 0 -182 30q-93 24 -130 24zM703 1758q-45 -19 -88 -57l110 -110
q46 37 105 37q36 0 136 -25q112 -29 176 -29q3 0 8.5 0.5t8.5 0.5q61 3 112 25q49 22 89 58l-110 111q-48 -39 -108 -39q-45 0 -138 24q-110 29 -175 29h-16q-60 -3 -110 -25zM1397 1434h438v-1434h-517l-757 851v-851h-438v1434h478l796 -896v896zM1328 24h483v1386h-390
v-935l-42 47l-789 888h-443v-1386h390v890l42 -47z" />
    <glyph glyph-name="Ograve" unicode="&#xd2;" horiz-adv-x="1974" 
d="M1116 1589h-230l-287 258h344zM931 1823h-270l234 -210h176zM986 1473q229 0 395.5 -40t285 -128.5t176.5 -234.5t58 -353q0 -177 -39 -307.5t-110.5 -216.5t-186.5 -138t-254 -73.5t-325 -21.5q-175 0 -310.5 21t-252 73.5t-192.5 138t-118.5 217t-42.5 307.5
q0 207 58 353t176.5 234.5t285 128.5t396.5 40zM1653 134q112 84 167 221q58 146 58 362q0 394 -225 568q-213 165 -667 165q-455 0 -668 -165q-224 -174 -224 -568q0 -411 239 -583q209 -150 653 -150q233 0 390 34q170 36 277 116zM1326 1054q121 -98 121 -337
q0 -108 -26 -186t-66.5 -123t-104 -71t-124 -34t-140.5 -8q-234 0 -339 85q-123 98 -123 337t123 337q105 85 339 85q235 0 340 -85zM986 319q110 0 186.5 17.5t135.5 61.5t87.5 123t28.5 196q0 118 -27.5 196.5t-86 122.5t-135.5 61.5t-189 17.5q-111 0 -188 -17.5
t-135.5 -61.5t-87 -122.5t-28.5 -196.5t28.5 -196.5t87 -122.5t135.5 -61.5t188 -17.5z" />
    <glyph glyph-name="Oacute" unicode="&#xd3;" horiz-adv-x="1974" 
d="M1371 1847l-286 -258h-230l172 258h344zM900 1613h175l234 210h-269zM986 1473q229 0 395.5 -40t285 -128.5t176.5 -234.5t58 -353q0 -177 -39 -307.5t-110.5 -216.5t-186.5 -138t-254 -73.5t-325 -21.5q-175 0 -310.5 21t-252 73.5t-192.5 138t-118.5 217t-42.5 307.5
q0 207 58 353t176.5 234.5t285 128.5t396.5 40zM1653 134q112 84 167 221q58 146 58 362q0 394 -225 568q-213 165 -667 165q-455 0 -668 -165q-224 -174 -224 -568q0 -411 239 -583q209 -150 653 -150q233 0 390 34q170 36 277 116zM1326 1054q121 -98 121 -337
q0 -108 -26 -186t-66.5 -123t-104 -71t-124 -34t-140.5 -8q-234 0 -339 85q-123 98 -123 337t123 337q105 85 339 85q235 0 340 -85zM986 319q110 0 186.5 17.5t135.5 61.5t87.5 123t28.5 196q0 118 -27.5 196.5t-86 122.5t-135.5 61.5t-189 17.5q-111 0 -188 -17.5
t-135.5 -61.5t-87 -122.5t-28.5 -196.5t28.5 -196.5t87 -122.5t135.5 -61.5t188 -17.5z" />
    <glyph glyph-name="Ocircumflex" unicode="&#xd4;" horiz-adv-x="1974" 
d="M871 1592h-284l-1 1l257 254h286l257 -254l-1 -1h-284l-115 114zM853 1823l-210 -207h218l108 107l17 17l17 -17l108 -107h218l-210 207h-266zM986 1473q229 0 395.5 -40t285 -128.5t176.5 -234.5t58 -353q0 -177 -39 -307.5t-110.5 -216.5t-186.5 -138t-254 -73.5
t-325 -21.5q-175 0 -310.5 21t-252 73.5t-192.5 138t-118.5 217t-42.5 307.5q0 207 58 353t176.5 234.5t285 128.5t396.5 40zM1653 134q112 84 167 221q58 146 58 362q0 394 -225 568q-213 165 -667 165q-455 0 -668 -165q-224 -174 -224 -568q0 -411 239 -583
q209 -150 653 -150q233 0 390 34q170 36 277 116zM1326 1054q121 -98 121 -337q0 -108 -26 -186t-66.5 -123t-104 -71t-124 -34t-140.5 -8q-234 0 -339 85q-123 98 -123 337t123 337q105 85 339 85q235 0 340 -85zM986 319q110 0 186.5 17.5t135.5 61.5t87.5 123t28.5 196
q0 118 -27.5 196.5t-86 122.5t-135.5 61.5t-189 17.5q-111 0 -188 -17.5t-135.5 -61.5t-87 -122.5t-28.5 -196.5t28.5 -196.5t87 -122.5t135.5 -61.5t188 -17.5z" />
    <glyph glyph-name="Otilde" unicode="&#xd5;" horiz-adv-x="1974" 
d="M827 1644q-59 0 -105 -46l-144 144q53 53 112 78q55 24 119 27h17q67 0 181 -29q93 -24 132 -24q61 0 109 48l144 -144q-52 -52 -114 -79q-58 -25 -120 -28h-19q-64 0 -182 30q-89 23 -130 23zM700 1798q-45 -19 -88 -57l110 -110q46 37 105 37q40 0 136 -24
q112 -29 176 -29h18q57 3 111 26q51 23 90 58l-111 110q-48 -39 -108 -39q-42 0 -138 25q-106 28 -175 28h-16q-60 -3 -110 -25zM1326 1054q121 -98 121 -337q0 -108 -26 -186t-66.5 -123t-104 -71t-124 -34t-140.5 -8q-234 0 -339 85q-123 98 -123 337t123 337
q105 85 339 85q235 0 340 -85zM986 319q110 0 186.5 17.5t135.5 61.5t87.5 123t28.5 196q0 118 -27.5 196.5t-86 122.5t-135.5 61.5t-189 17.5q-111 0 -188 -17.5t-135.5 -61.5t-87 -122.5t-28.5 -196.5t28.5 -196.5t87 -122.5t135.5 -61.5t188 -17.5zM986 1473
q229 0 395.5 -40t285 -128.5t176.5 -234.5t58 -353q0 -177 -39 -307.5t-110.5 -216.5t-186.5 -138t-254 -73.5t-325 -21.5q-175 0 -310.5 21t-252 73.5t-192.5 138t-118.5 217t-42.5 307.5q0 207 58 353t176.5 234.5t285 128.5t396.5 40zM1653 134q112 84 167 221
q58 146 58 362q0 394 -225 568q-213 165 -667 165q-455 0 -668 -165q-224 -174 -224 -568q0 -411 239 -583q209 -150 653 -150q233 0 390 34q170 36 277 116z" />
    <glyph glyph-name="Odieresis" unicode="&#xd6;" horiz-adv-x="1974" 
d="M899 1830v-229h-229v229h229zM876 1624v182h-182v-182h182zM1301 1830v-229h-229v229h229zM1277 1624v182h-181v-182h181zM1326 1054q121 -98 121 -337q0 -108 -26 -186t-66.5 -123t-104 -71t-124 -34t-140.5 -8q-234 0 -339 85q-123 98 -123 337t123 337q105 85 339 85
q235 0 340 -85zM986 319q110 0 186.5 17.5t135.5 61.5t87.5 123t28.5 196q0 118 -27.5 196.5t-86 122.5t-135.5 61.5t-189 17.5q-111 0 -188 -17.5t-135.5 -61.5t-87 -122.5t-28.5 -196.5t28.5 -196.5t87 -122.5t135.5 -61.5t188 -17.5zM986 1473q229 0 395.5 -40
t285 -128.5t176.5 -234.5t58 -353q0 -177 -39 -307.5t-110.5 -216.5t-186.5 -138t-254 -73.5t-325 -21.5q-175 0 -310.5 21t-252 73.5t-192.5 138t-118.5 217t-42.5 307.5q0 207 58 353t176.5 234.5t285 128.5t396.5 40zM1653 134q112 84 167 221q58 146 58 362
q0 394 -225 568q-213 165 -667 165q-455 0 -668 -165q-224 -174 -224 -568q0 -411 239 -583q209 -150 653 -150q233 0 390 34q170 36 277 116z" />
    <glyph glyph-name="multiply" unicode="&#xd7;" horiz-adv-x="1200" 
d="M1127 1001l-284 -284l284 -284l-244 -244l-284 284l-284 -284l-243 244l284 284l-284 284l243 243l284 -284l284 284zM1093 433l-284 284l284 284l-210 210l-284 -285l-284 285l-210 -210l285 -284l-285 -284l210 -210l284 284l284 -284z" />
    <glyph glyph-name="Oslash" unicode="&#xd8;" horiz-adv-x="2011" 
d="M1449 885l7 -38q10 -56 10 -130q0 -108 -26 -186t-66.5 -123t-104 -71t-124 -34t-140.5 -8q-139 0 -231 29l-44 14l37 27l651 497zM1005 319q110 0 186.5 17.5t135.5 61.5t87.5 123t28.5 196q0 68 -11 126l-651 -497q84 -27 224 -27zM1280 1097l-37 -28l-652 -497
l-31 -23l-7 38q-10 56 -10 130q0 239 123 337q105 85 339 85q141 0 231 -28zM577 591l652 497q-84 27 -224 27q-111 0 -188 -17.5t-135.5 -61.5t-87 -122.5t-28.5 -196.5q0 -68 11 -126zM1937 1227l-111 -84q94 -167 94 -426q0 -177 -39 -307.5t-110.5 -216.5t-186.5 -138
t-254 -73.5t-325 -21.5q-383 0 -590 107l-150 -114l-193 253l109 84q-92 166 -92 427q0 207 58 353t176.5 234.5t285 128.5t396.5 40q375 0 587 -109l152 117zM1896 717q0 255 -90 414l-11 18l17 13l92 70l-164 215l-134 -102l-12 -9l-13 7q-207 107 -576 107
q-455 0 -668 -165q-225 -174 -225 -568q0 -254 90 -416l10 -18l-16 -12l-91 -69l164 -216l131 100l12 10l14 -7q109 -56 257 -81q139 -24 322 -24q233 0 390 34q170 36 277 116q112 84 167 221q57 143 57 362z" />
    <glyph glyph-name="Ugrave" unicode="&#xd9;" horiz-adv-x="1865" 
d="M1063 1550h-229l-287 258h344zM878 1784h-269l234 -210h175zM1331 1434h438v-717q0 -175 -42 -307.5t-114 -217t-180 -137.5t-229 -74t-271 -21q-151 0 -272 21t-229 74t-180 137.5t-114 217t-42 307.5v717h438v-717q0 -94 19 -164t52 -114t84.5 -71.5t109.5 -38
t134 -10.5q75 0 133 10.5t109.5 38t84.5 71.5t52 114t19 164v717zM1683 356q62 150 62 361v693h-390v-693q0 -235 -118 -337q-100 -85 -304 -85q-205 0 -305 85q-118 102 -118 337v693h-390v-693q0 -211 62 -361q59 -140 168 -223q193 -149 583 -149q389 0 582 149
q109 83 168 223z" />
    <glyph glyph-name="Uacute" unicode="&#xda;" horiz-adv-x="1865" 
d="M1323 1809l-287 -258h-230l172 258h345zM851 1574h176l233 211h-269zM1331 1434h438v-717q0 -175 -42 -307.5t-114 -217t-180 -137.5t-229 -74t-271 -21q-151 0 -272 21t-229 74t-180 137.5t-114 217t-42 307.5v717h438v-717q0 -94 19 -164t52 -114t84.5 -71.5t109.5 -38
t134 -10.5q75 0 133 10.5t109.5 38t84.5 71.5t52 114t19 164v717zM1745 717v693h-390v-693q0 -235 -118 -337q-100 -85 -304 -85q-205 0 -305 85q-118 102 -118 337v693h-390v-693q0 -211 62 -361q59 -140 168 -223q193 -149 583 -149q389 0 582 149q109 83 168 223
q62 150 62 361z" />
    <glyph glyph-name="Ucircumflex" unicode="&#xdb;" horiz-adv-x="1865" 
d="M817 1549h-284l-1 1l258 254h286l257 -254l-1 -1h-284l-115 114zM800 1780l-210 -207h218l108 107l17 16l17 -16l108 -107h218l-210 207h-266zM1331 1434h438v-717q0 -175 -42 -307.5t-114 -217t-180 -137.5t-229 -74t-271 -21q-151 0 -272 21t-229 74t-180 137.5
t-114 217t-42 307.5v717h438v-717q0 -94 19 -164t52 -114t84.5 -71.5t109.5 -38t134 -10.5q75 0 133 10.5t109.5 38t84.5 71.5t52 114t19 164v717zM1745 717v693h-390v-693q0 -235 -118 -337q-100 -85 -304 -85q-205 0 -305 85q-118 102 -118 337v693h-390v-693
q0 -211 62 -361q59 -140 168 -223q193 -149 583 -149q389 0 582 149q109 83 168 223q62 150 62 361z" />
    <glyph glyph-name="Udieresis" unicode="&#xdc;" horiz-adv-x="1865" 
d="M848 1795v-230h-230v230h230zM824 1589v182h-182v-182h182zM1249 1795v-230h-229v230h229zM1225 1589v182h-181v-182h181zM1331 1434h438v-717q0 -175 -42 -307.5t-114 -217t-180 -137.5t-229 -74t-271 -21q-151 0 -272 21t-229 74t-180 137.5t-114 217t-42 307.5v717
h438v-717q0 -94 19 -164t52 -114t84.5 -71.5t109.5 -38t134 -10.5q75 0 133 10.5t109.5 38t84.5 71.5t52 114t19 164v717zM1745 717v693h-390v-693q0 -235 -118 -337q-100 -85 -304 -85q-205 0 -305 85q-118 102 -118 337v693h-390v-693q0 -211 62 -361q59 -140 168 -223
q193 -149 583 -149q389 0 582 149q109 83 168 223q62 150 62 361z" />
    <glyph glyph-name="Yacute" unicode="&#xdd;" horiz-adv-x="1732" 
d="M1249 1808l-287 -259h-229l172 259h344zM777 1573h176l234 211h-269zM1224 1434h518l-657 -910v-524h-438v524l-657 910h517l359 -497zM1066 538l629 872h-459l-351 -487l-19 -26l-20 26l-351 487h-459l630 -872l5 -6v-508h390v508z" />
    <glyph glyph-name="Thorn" unicode="&#xde;" horiz-adv-x="1605" 
d="M941 925q86 0 147.5 -61.5t61.5 -147.5t-61.5 -148t-147.5 -62h-412v419h412zM941 530q76 0 130.5 54.5t54.5 131.5q0 76 -54 130.5t-131 54.5h-388v-371h388zM1516 922q42 -98 42 -206q0 -110 -42 -207q-40 -95 -114 -168q-72 -72 -168 -113q-98 -42 -206 -42h-475v-187
h-430v1435h430v-189h475q111 0 206 -41q94 -40 168 -114t114 -168zM1494 519q40 95 40 197t-40 197q-37 89 -108 160q-72 72 -161 109q-93 39 -197 39h-499v189h-382v-1387h382v187h499q102 0 197 40q91 38 161 108t108 161z" />
    <glyph glyph-name="germandbls" unicode="&#xdf;" horiz-adv-x="1316" 
d="M1245 461q32 -93 16 -189t-76 -172q-116 -148 -313 -153h-9q-100 0 -193.5 40t-151.5 108l218 187q15 -17 50.5 -32.5t75.5 -15.5h4q59 1 93 43q32 40 15 91q-19 54 -80 69q-114 29 -185 76q-87 57 -125 142q-37 81 -23 174q11 76 54 158q59 112 23 171
q-15 24 -42.5 36.5t-54.5 12.5t-41.5 -2.5t-37 -23t-34 -60t-21 -119.5t-9.5 -196v-804h-287v804q0 154 13 255q16 122 58 213q104 220 359 220q102 0 190 -46q95 -49 152 -142q20 -33 33.5 -72t20.5 -96.5t-10 -131.5t-58 -152q-33 -63 -23 -82q3 -7 14 -15.5t38 -20.5
t65 -21q103 -25 179 -95q70 -64 103 -159zM1166 115q56 72 71 161.5t-15 176.5q-29 86 -96 149q-72 66 -169 90q-114 28 -133 70q-15 31 24 103q39 74 55 144.5t9.5 124.5t-18.5 91.5t-31 68.5q-51 85 -143 132q-83 44 -179 44q-119 0 -204 -52q-86 -53 -134 -154
q-39 -83 -55 -206q-14 -107 -14 -252v-780h240v780q0 115 9 195.5t22 125t36.5 68.5t45 30t54.5 6q32 0 65 -15t52 -46q43 -70 -22 -194q-40 -74 -51 -151q-12 -87 21 -160q35 -80 116 -132q73 -47 177 -73q75 -19 97 -84q21 -63 -18 -113q-39 -51 -111 -53h-5
q-71 0 -126 40l-183 -157q56 -56 139.5 -89t170.5 -33h9q184 5 294 144z" />
    <glyph glyph-name="agrave" unicode="&#xe0;" horiz-adv-x="1591" 
d="M907 1199h-229l-287 258h344zM722 1433h-269l234 -211h176zM778 1075q116 0 203 -5.5t165 -19.5t132 -38t97.5 -59.5t68.5 -86.5t38 -117t13 -152v-597h-398l-40 80q-92 -62 -194.5 -91t-243.5 -29q-91 0 -166 8t-150 31t-126.5 59.5t-83.5 98t-32 142.5
q0 177 176.5 257.5t540.5 80.5q118 0 181 8.5t80.5 21t17.5 34.5q0 36 -81 56t-197 20h-37q-68 -2 -129 -7.5t-100.5 -10.5t-90 -17t-71.5 -18t-73.5 -21.5t-67.5 -20.5l-89 275q144 52 325.5 85t331.5 33zM1471 24v573q0 145 -37 234q-35 85 -116 134q-75 46 -201.5 66
t-338.5 20q-141 0 -312.5 -30t-314.5 -79l75 -231q5 1 15 5t15 5q81 25 128.5 37t144.5 25.5t213 16.5q7 0 19 0.5t18 0.5q119 0 199 -20q103 -26 103 -80q0 -51 -63.5 -69.5t-239.5 -18.5q-358 0 -527 -77q-85 -40 -125 -97q-41 -59 -41 -140q0 -177 161 -253
q130 -62 373 -62q134 0 233.5 27t191.5 89l22 15l12 -25l34 -66h359zM788 442q177 9 266 20l34 4l-8 -33q-16 -70 -79 -122t-146 -76.5t-172 -24.5q-84 0 -139 23q-68 30 -68 86q0 77 97 101q57 15 215 22zM683 234q127 0 239.5 53.5t134.5 150.5q-61 -8 -130.5 -13t-120 -7
t-102.5 -5t-86.5 -8.5t-63 -15t-42 -27t-13.5 -43.5q0 -40 52 -62.5t132 -22.5z" />
    <glyph glyph-name="aacute" unicode="&#xe1;" horiz-adv-x="1591" 
d="M1164 1459l-287 -258h-229l172 258h344zM693 1225h175l234 210h-269zM778 1075q116 0 203 -5.5t165 -19.5t132 -38t97.5 -59.5t68.5 -86.5t38 -117t13 -152v-597h-398l-40 80q-92 -62 -194.5 -91t-243.5 -29q-91 0 -166 8t-150 31t-126.5 59.5t-83.5 98t-32 142.5
q0 177 176.5 257.5t540.5 80.5q118 0 181 8.5t80.5 21t17.5 34.5q0 36 -81 56t-197 20h-37q-68 -2 -129 -7.5t-100.5 -10.5t-90 -17t-71.5 -18t-73.5 -21.5t-67.5 -20.5l-89 275q144 52 325.5 85t331.5 33zM1112 24h359v573q0 145 -37 234q-35 85 -116 134q-75 46 -201.5 66
t-338.5 20q-141 0 -312.5 -30t-314.5 -79l75 -231q5 1 15 5t15 5q81 25 128.5 37t144.5 25.5t213 16.5q7 0 19 0.5t18 0.5q119 0 199 -20q103 -26 103 -80q0 -51 -63.5 -69.5t-239.5 -18.5q-358 0 -527 -77q-85 -40 -125 -97q-41 -59 -41 -140q0 -177 161 -253
q130 -62 373 -62q134 0 233.5 27t191.5 89l22 15l12 -25zM788 442q177 9 266 20l34 4l-8 -33q-16 -70 -79 -122t-146 -76.5t-172 -24.5q-84 0 -139 23q-68 30 -68 86q0 77 97 101q57 15 215 22zM683 234q127 0 239.5 53.5t134.5 150.5q-61 -8 -130.5 -13t-120 -7t-102.5 -5
t-86.5 -8.5t-63 -15t-42 -27t-13.5 -43.5q0 -40 52 -62.5t132 -22.5z" />
    <glyph glyph-name="acircumflex" unicode="&#xe2;" horiz-adv-x="1591" 
d="M663 1199h-284l-1 1l257 254h286l258 -254l-1 -1h-284l-116 114zM645 1430l-210 -207h218l108 107l17 17l17 -17l108 -107h218l-210 207h-266zM778 1075q116 0 203 -5.5t165 -19.5t132 -38t97.5 -59.5t68.5 -86.5t38 -117t13 -152v-597h-398l-40 80q-92 -62 -194.5 -91
t-243.5 -29q-91 0 -166 8t-150 31t-126.5 59.5t-83.5 98t-32 142.5q0 177 176.5 257.5t540.5 80.5q118 0 181 8.5t80.5 21t17.5 34.5q0 36 -81 56t-197 20h-37q-68 -2 -129 -7.5t-100.5 -10.5t-90 -17t-71.5 -18t-73.5 -21.5t-67.5 -20.5l-89 275q144 52 325.5 85t331.5 33z
M1112 24h359v573q0 145 -37 234q-35 85 -116 134q-75 46 -201.5 66t-338.5 20q-141 0 -312.5 -30t-314.5 -79l75 -231q5 1 15 5t15 5q81 25 128.5 37t144.5 25.5t213 16.5q7 0 19 0.5t18 0.5q119 0 199 -20q103 -26 103 -80q0 -51 -63.5 -69.5t-239.5 -18.5q-358 0 -527 -77
q-85 -40 -125 -97q-41 -59 -41 -140q0 -177 161 -253q130 -62 373 -62q134 0 233.5 27t191.5 89l22 15l12 -25zM788 442q177 9 266 20l34 4l-8 -33q-16 -70 -79 -122t-146 -76.5t-172 -24.5q-84 0 -139 23q-68 30 -68 86q0 77 97 101q57 15 215 22zM683 234
q127 0 239.5 53.5t134.5 150.5q-61 -8 -130.5 -13t-120 -7t-102.5 -5t-86.5 -8.5t-63 -15t-42 -27t-13.5 -43.5q0 -40 52 -62.5t132 -22.5z" />
    <glyph glyph-name="atilde" unicode="&#xe3;" horiz-adv-x="1591" 
d="M622 1255q-60 0 -106 -46l-143 144q53 53 112 78q55 24 119 27h17q67 0 181 -29q93 -24 132 -24q61 0 109 48l143 -144q-52 -52 -114 -79q-58 -25 -120 -28h-18q-64 0 -182 30q-89 23 -130 23zM495 1409q-45 -19 -88 -57l110 -110q46 37 105 37q40 0 136 -24
q112 -29 176 -29h17q58 3 112 26q49 22 89 58l-110 110q-48 -39 -108 -39q-45 0 -138 24q-110 29 -175 29h-16q-60 -3 -110 -25zM778 1075q116 0 203 -5.5t165 -19.5t132 -38t97.5 -59.5t68.5 -86.5t38 -117t13 -152v-597h-398l-40 80q-92 -62 -194.5 -91t-243.5 -29
q-91 0 -166 8t-150 31t-126.5 59.5t-83.5 98t-32 142.5q0 177 176.5 257.5t540.5 80.5q118 0 181 8.5t80.5 21t17.5 34.5q0 36 -81 56t-197 20h-37q-68 -2 -129 -7.5t-100.5 -10.5t-90 -17t-71.5 -18t-73.5 -21.5t-67.5 -20.5l-89 275q144 52 325.5 85t331.5 33zM1112 24
h359v573q0 145 -37 234q-35 85 -116 134q-75 46 -201.5 66t-338.5 20q-141 0 -312.5 -30t-314.5 -79l75 -231q5 1 15 5t15 5q81 25 128.5 37t144.5 25.5t213 16.5q7 0 19 0.5t18 0.5q119 0 199 -20q103 -26 103 -80q0 -51 -63.5 -69.5t-239.5 -18.5q-358 0 -527 -77
q-85 -40 -125 -97q-41 -59 -41 -140q0 -177 161 -253q130 -62 373 -62q134 0 233.5 27t191.5 89l22 15l12 -25zM788 442q177 9 266 20l34 4l-8 -33q-16 -70 -79 -122t-146 -76.5t-172 -24.5q-84 0 -139 23q-68 30 -68 86q0 77 97 101q57 15 215 22zM683 234
q127 0 239.5 53.5t134.5 150.5q-61 -8 -130.5 -13t-120 -7t-102.5 -5t-86.5 -8.5t-63 -15t-42 -27t-13.5 -43.5q0 -40 52 -62.5t132 -22.5z" />
    <glyph glyph-name="adieresis" unicode="&#xe4;" horiz-adv-x="1591" 
d="M696 1444v-230h-229v230h229zM672 1238v182h-181v-182h181zM1098 1444v-230h-229v230h229zM1074 1238v182h-182v-182h182zM788 442q177 9 266 20l34 4l-8 -33q-16 -70 -79 -122t-146 -76.5t-172 -24.5q-84 0 -139 23q-68 30 -68 86q0 77 97 101q57 15 215 22zM683 234
q127 0 239.5 53.5t134.5 150.5q-61 -8 -130.5 -13t-120 -7t-102.5 -5t-86.5 -8.5t-63 -15t-42 -27t-13.5 -43.5q0 -40 52 -62.5t132 -22.5zM778 1075q116 0 203 -5.5t165 -19.5t132 -38t97.5 -59.5t68.5 -86.5t38 -117t13 -152v-597h-398l-40 80q-92 -62 -194.5 -91
t-243.5 -29q-91 0 -166 8t-150 31t-126.5 59.5t-83.5 98t-32 142.5q0 177 176.5 257.5t540.5 80.5q118 0 181 8.5t80.5 21t17.5 34.5q0 36 -81 56t-197 20h-37q-68 -2 -129 -7.5t-100.5 -10.5t-90 -17t-71.5 -18t-73.5 -21.5t-67.5 -20.5l-89 275q144 52 325.5 85t331.5 33z
M1112 24h359v573q0 145 -37 234q-35 85 -116 134q-75 46 -201.5 66t-338.5 20q-141 0 -312.5 -30t-314.5 -79l75 -231q5 1 15 5t15 5q81 25 128.5 37t144.5 25.5t213 16.5q7 0 19 0.5t18 0.5q119 0 199 -20q103 -26 103 -80q0 -51 -63.5 -69.5t-239.5 -18.5q-358 0 -527 -77
q-85 -40 -125 -97q-41 -59 -41 -140q0 -177 161 -253q130 -62 373 -62q134 0 233.5 27t191.5 89l22 15l12 -25z" />
    <glyph glyph-name="aring" unicode="&#xe5;" horiz-adv-x="1591" 
d="M778 1306q-40 0 -68 28t-28 68t28 67.5t68 27.5t67.5 -27.5t27.5 -67.5t-27.5 -68t-67.5 -28zM778 1473q-30 0 -51 -20.5t-21 -50.5t21 -51t51 -21t50.5 21t20.5 51t-20.5 50.5t-50.5 20.5zM778 1187q-89 0 -152 63t-63 152t63 152t152 63t152 -63t63 -152t-63 -152
t-152 -63zM778 1593q-79 0 -135 -56t-56 -135t56 -135t135 -56t135 56t56 135t-56 135t-135 56zM778 1075q116 0 203 -5.5t165 -19.5t132 -38t97.5 -59.5t68.5 -86.5t38 -117t13 -152v-597h-398l-40 80q-92 -62 -194.5 -91t-243.5 -29q-91 0 -166 8t-150 31t-126.5 59.5
t-83.5 98t-32 142.5q0 177 176.5 257.5t540.5 80.5q118 0 181 8.5t80.5 21t17.5 34.5q0 36 -81 56t-197 20h-37q-68 -2 -129 -7.5t-100.5 -10.5t-90 -17t-71.5 -18t-73.5 -21.5t-67.5 -20.5l-89 275q144 52 325.5 85t331.5 33zM1112 24h359v573q0 145 -37 234
q-35 85 -116 134q-75 46 -201.5 66t-338.5 20q-141 0 -312.5 -30t-314.5 -79l75 -231q5 1 15 5t15 5q81 25 128.5 37t144.5 25.5t213 16.5q7 0 19 0.5t18 0.5q119 0 199 -20q103 -26 103 -80q0 -51 -63.5 -69.5t-239.5 -18.5q-358 0 -527 -77q-85 -40 -125 -97
q-41 -59 -41 -140q0 -177 161 -253q130 -62 373 -62q134 0 233.5 27t191.5 89l22 15l12 -25zM788 442q177 9 266 20l34 4l-8 -33q-16 -70 -79 -122t-146 -76.5t-172 -24.5q-84 0 -139 23q-68 30 -68 86q0 77 97 101q57 15 215 22zM683 234q127 0 239.5 53.5t134.5 150.5
q-61 -8 -130.5 -13t-120 -7t-102.5 -5t-86.5 -8.5t-63 -15t-42 -27t-13.5 -43.5q0 -40 52 -62.5t132 -22.5z" />
    <glyph glyph-name="ae" unicode="&#xe6;" horiz-adv-x="2590" 
d="M788 442q177 9 266 20l34 4l-8 -33q-16 -70 -79 -122t-146 -76.5t-172 -24.5q-84 0 -139 23q-68 30 -68 86q0 77 97 101q57 15 215 22zM683 234q127 0 239.5 53.5t134.5 150.5q-61 -8 -130.5 -13t-120 -7t-102.5 -5t-86.5 -8.5t-63 -15t-42 -27t-13.5 -43.5
q0 -40 52 -62.5t132 -22.5zM2110 623h-633l9 30q27 94 99 132q66 35 209 35t209 -35q72 -38 99 -132zM1794 796q-135 0 -198 -32.5t-87 -116.5h570q-24 84 -87 116.5t-198 32.5zM2527 448h-1027q16 -106 88 -157.5t207 -51.5q64 0 117.5 5.5t85.5 12.5t63 20.5t43 21
t32.5 23t25.5 18.5l284 -165q-108 -117 -254.5 -166t-396.5 -49q-200 0 -345 40h-353l-40 80q-92 -62 -194.5 -91t-243.5 -29q-91 0 -166 8t-150 31t-126.5 59.5t-83.5 98t-32 142.5q0 177 176.5 257.5t540.5 80.5q118 0 181 8.5t80.5 21t17.5 34.5q0 36 -81 56t-197 20h-37
q-68 -2 -129 -7.5t-100.5 -10.5t-90 -17t-71.5 -18t-73.5 -21.5t-67.5 -20.5l-89 275q144 52 325.5 85t331.5 33q199 0 329 -18t212 -64q173 82 475 82q370 0 553 -128.5t183 -419.5q0 -41 -3 -79zM1473 472h1032q2 36 2 55q0 279 -179 404q-172 120 -534 120
q-298 0 -465 -80l-11 -5l-11 6q-78 43 -211 62q-116 17 -318 17q-141 0 -312.5 -30t-314.5 -79l75 -231q5 1 15 5t15 5q81 25 128.5 37t144.5 25.5t213 16.5q7 0 19 0.5t18 0.5q119 0 199 -20q103 -26 103 -80q0 -51 -63.5 -69.5t-239.5 -18.5q-358 0 -527 -77
q-85 -40 -125 -97q-41 -59 -41 -140q0 -177 161 -253q130 -62 373 -62q134 0 233.5 27t191.5 89l22 15l12 -25l34 -66h342l3 -1q141 -39 338 -39q248 0 391 48q128 43 222 137l-244 142q-1 -1 -3 -2.5t-3 -2.5q-25 -19 -44.5 -30.5t-61.5 -28t-106.5 -24.5t-150.5 -8
q-284 0 -318 229z" />
    <glyph glyph-name="ccedilla" unicode="&#xe7;" horiz-adv-x="1595" 
d="M765 -282h-115v172h286v-172l-143 -229h-100zM913 -134h-239v-124h123l-10 -31l-61 -198h54l133 212v141zM804 239q117 0 187 38t96 121h445q-36 -228 -218 -333t-510 -105q-368 0 -552 133t-184 425t184 424.5t552 132.5q328 0 510 -105t218 -333h-445q-26 83 -96 121
t-187 38q-152 0 -225 -65.5t-73 -212.5t73 -213t225 -66zM1504 374h-400q-61 -159 -300 -159q-162 0 -240 71q-82 73 -82 232q0 158 82 231q78 71 240 71q239 0 300 -159h400q-41 199 -212.5 294.5t-487.5 95.5q-359 0 -533 -125q-180 -129 -180 -408q0 -280 180 -409
q174 -125 533 -125q316 0 487.5 95.5t212.5 294.5z" />
    <glyph glyph-name="egrave" unicode="&#xe8;" horiz-adv-x="1601" 
d="M936 1200h-229l-287 259h344zM751 1435h-269l234 -211h176zM1121 623h-633l8 30q27 94 99 132q66 35 209 35t209 -35q72 -38 99 -132zM804 796q-135 0 -198 -32.5t-87 -116.5h570q-24 84 -87 116.5t-198 32.5zM1537 448h-1026q16 -106 88 -157.5t207 -51.5
q64 0 117.5 5.5t85.5 12.5t63 20.5t43 21t32.5 23t25.5 18.5l284 -165q-108 -117 -254.5 -166t-396.5 -49q-366 0 -552 137t-186 430q0 291 183 419.5t553 128.5t553.5 -128.5t183.5 -419.5q0 -29 -4 -79zM483 472h1032q2 36 2 55q0 279 -179 404q-172 120 -534 120
t-534 -120q-179 -125 -179 -404q0 -142 47 -247q44 -99 134 -166q93 -67 222 -98q134 -32 312 -32q247 0 390 48q128 43 222 137l-244 142q-1 -1 -3 -2.5t-3 -2.5q-25 -19 -44.5 -30.5t-61 -28t-106 -24.5t-150.5 -8q-285 0 -319 229z" />
    <glyph glyph-name="eacute" unicode="&#xe9;" horiz-adv-x="1601" 
d="M1193 1459l-287 -259h-229l172 259h344zM721 1224h176l234 211h-270zM1121 623h-633l8 30q27 94 99 132q66 35 209 35t209 -35q72 -38 99 -132zM804 796q-135 0 -198 -32.5t-87 -116.5h570q-24 84 -87 116.5t-198 32.5zM1537 448h-1026q16 -106 88 -157.5t207 -51.5
q64 0 117.5 5.5t85.5 12.5t63 20.5t43 21t32.5 23t25.5 18.5l284 -165q-108 -117 -254.5 -166t-396.5 -49q-366 0 -552 137t-186 430q0 291 183 419.5t553 128.5t553.5 -128.5t183.5 -419.5q0 -29 -4 -79zM483 472h1032q2 36 2 55q0 279 -179 404q-172 120 -534 120
t-534 -120q-179 -125 -179 -404q0 -142 47 -247q44 -99 134 -166q93 -67 222 -98q134 -32 312 -32q247 0 390 48q128 43 222 137l-244 142q-1 -1 -3 -2.5t-3 -2.5q-25 -19 -44.5 -30.5t-61 -28t-106 -24.5t-150.5 -8q-285 0 -319 229z" />
    <glyph glyph-name="ecircumflex" unicode="&#xea;" horiz-adv-x="1601" 
d="M693 1200h-284l-1 1l257 254h286l257 -254l-1 -1h-284l-115 114zM675 1431l-210 -207h218l108 107l17 16l17 -16l108 -107h218l-210 207h-266zM1121 623h-633l8 30q27 94 99 132q66 35 209 35t209 -35q72 -38 99 -132zM804 796q-135 0 -198 -32.5t-87 -116.5h570
q-24 84 -87 116.5t-198 32.5zM1537 448h-1026q16 -106 88 -157.5t207 -51.5q64 0 117.5 5.5t85.5 12.5t63 20.5t43 21t32.5 23t25.5 18.5l284 -165q-108 -117 -254.5 -166t-396.5 -49q-366 0 -552 137t-186 430q0 291 183 419.5t553 128.5t553.5 -128.5t183.5 -419.5
q0 -29 -4 -79zM483 472h1032q2 36 2 55q0 279 -179 404q-172 120 -534 120t-534 -120q-179 -125 -179 -404q0 -142 47 -247q44 -99 134 -166q93 -67 222 -98q134 -32 312 -32q247 0 390 48q128 43 222 137l-244 142q-1 -1 -3 -2.5t-3 -2.5q-25 -19 -44.5 -30.5t-61 -28
t-106 -24.5t-150.5 -8q-285 0 -319 229z" />
    <glyph glyph-name="edieresis" unicode="&#xeb;" horiz-adv-x="1601" 
d="M492 1442h229v-230h-229v230zM516 1236h181v182h-181v-182zM1123 1442v-230h-230v230h230zM1099 1236v182h-182v-182h182zM1121 623h-633l8 30q27 94 99 132q66 35 209 35t209 -35q72 -38 99 -132zM804 796q-135 0 -198 -32.5t-87 -116.5h570q-24 84 -87 116.5t-198 32.5
zM1537 448h-1026q16 -106 88 -157.5t207 -51.5q64 0 117.5 5.5t85.5 12.5t63 20.5t43 21t32.5 23t25.5 18.5l284 -165q-108 -117 -254.5 -166t-396.5 -49q-366 0 -552 137t-186 430q0 291 183 419.5t553 128.5t553.5 -128.5t183.5 -419.5q0 -29 -4 -79zM483 472h1032
q2 36 2 55q0 279 -179 404q-172 120 -534 120t-534 -120q-179 -125 -179 -404q0 -142 47 -247q44 -99 134 -166q93 -67 222 -98q134 -32 312 -32q247 0 390 48q128 43 222 137l-244 142q-1 -1 -3 -2.5t-3 -2.5q-25 -19 -44.5 -30.5t-61 -28t-106 -24.5t-150.5 -8
q-285 0 -319 229z" />
    <glyph glyph-name="igrave" unicode="&#xec;" horiz-adv-x="661" 
d="M461 1196h-229l-287 259h344zM276 1431h-269l234 -211h176zM111 1035h438v-1035h-438v1035zM525 24v987h-390v-987h390z" />
    <glyph glyph-name="iacute" unicode="&#xed;" horiz-adv-x="661" 
d="M693 1455l-287 -259h-230l172 259h345zM221 1220h176l234 211h-270zM111 0v1035h438v-1035h-438zM134 1011v-987h391v987h-391z" />
    <glyph glyph-name="icircumflex" unicode="&#xee;" horiz-adv-x="661" 
d="M474 1455l257 -254l-1 -1h-284l-115 114l-116 -114h-284l-1 1l258 254h286zM456 1224h218l-210 207h-267l-209 -207h218l108 107l17 17l16 -17zM112 0v1035h438v-1035h-438zM136 1011v-987h390v987h-390z" />
    <glyph glyph-name="idieresis" unicode="&#xef;" horiz-adv-x="661" 
d="M244 1426v-230h-230v230h230zM220 1220v182h-182v-182h182zM416 1426h230v-230h-230v230zM622 1220v182h-182v-182h182zM110 0v1035h438v-1035h-438zM134 1011v-987h390v987h-390z" />
    <glyph glyph-name="eth" unicode="&#xf0;" horiz-adv-x="1654" 
d="M1543 1354h139v-199h-139v-1155h-398l-40 80q-5 -5 -14.5 -13t-45 -28.5t-77.5 -36.5t-112.5 -29t-148.5 -13q-113 0 -204.5 15.5t-174 55t-138 101.5t-88 160t-32.5 226t32.5 225.5t88 160t138 101.5t174 54.5t204.5 15.5q78 0 148 -12.5t113.5 -29.5t76 -34.5
t46.5 -30.5l14 -12v199h-179v199h179v80h438v-80zM1659 1179v151h-140v80h-390v-80h-179v-151h179v-281l-41 41q-29 28 -90 56q-123 56 -291 56q-292 0 -439 -109q-82 -60 -127 -162q-47 -109 -47 -262q0 -154 47 -263q44 -100 127 -161q149 -110 439 -110q168 0 291 56
q27 12 49.5 26.5t31.5 22.5l9 8l24 23l14 -30l34 -66h359v1155h140zM806 820q149 0 236 -81t87 -221t-87 -221.5t-236 -81.5t-235.5 81.5t-86.5 221.5t86.5 221t235.5 81zM806 239q83 0 148.5 27t108 92t42.5 160q0 72 -24 127t-66 87t-94.5 48t-114.5 16t-114 -16t-94 -48
t-66 -87t-24 -127t24 -127t66 -87.5t94 -48.5t114 -16z" />
    <glyph glyph-name="ntilde" unicode="&#xf1;" horiz-adv-x="1675" 
d="M698 1255q-59 0 -105 -46l-144 143q53 53 112 78q55 24 119 27q3 0 8.5 0.5t8.5 0.5q63 0 181 -30q93 -24 132 -24q61 0 109 48l144 -143q-53 -53 -114 -80q-55 -24 -120 -27q-3 0 -9.5 -0.5t-9.5 -0.5q-64 0 -182 30q-93 24 -130 24zM571 1409q-45 -19 -88 -57l110 -110
q45 36 105 36q40 0 136 -24q112 -29 176 -29q3 0 9 0.5t9 0.5q60 3 111 25q49 22 89 58l-110 110q-46 -38 -108 -38q-45 0 -138 24q-110 29 -175 29h-16q-60 -3 -110 -25zM987 1075q137 0 244.5 -31.5t187.5 -97t122.5 -174t42.5 -254.5v-518h-438v518q0 72 -24 127t-66 87
t-94.5 48t-114.5 16t-114 -16t-94 -48t-66 -87t-24 -127v-518h-438v1035h438v-79q6 5 18.5 13t55 28.5t90 36t122 28.5t152.5 13zM1560 24v494q0 275 -156 410q-144 123 -417 123q-240 0 -424 -114l-38 -29v103h-391v-987h391v494q0 140 86.5 221t235.5 81t236 -81t87 -221
v-494h390z" />
    <glyph glyph-name="ograve" unicode="&#xf2;" horiz-adv-x="1609" 
d="M934 1240h-229l-287 258h344zM749 1474h-269l234 -210h176zM1044 749q83 -74 83 -231q0 -158 -83 -232q-78 -71 -240 -71t-240 71q-82 73 -82 232q0 158 82 231q78 71 240 71t240 -71zM804 239q152 0 225.5 66t73.5 213t-73.5 212.5t-225.5 65.5t-225 -65.5t-73 -212.5
t73 -213t225 -66zM804 1075q368 0 552.5 -132.5t184.5 -424.5t-184.5 -425t-552.5 -133t-552 133t-184 425t184 424.5t552 132.5zM1338 109q179 129 179 409q0 279 -179 408q-174 125 -534 125q-359 0 -533 -125q-180 -129 -180 -408q0 -280 180 -409q174 -125 533 -125
q360 0 534 125z" />
    <glyph glyph-name="oacute" unicode="&#xf3;" horiz-adv-x="1609" 
d="M1190 1498l-287 -258h-229l172 258h344zM718 1264h176l234 210h-269zM1044 749q83 -74 83 -231q0 -158 -83 -232q-78 -71 -240 -71t-240 71q-82 73 -82 232q0 158 82 231q78 71 240 71t240 -71zM804 239q152 0 225.5 66t73.5 213t-73.5 212.5t-225.5 65.5t-225 -65.5
t-73 -212.5t73 -213t225 -66zM804 1075q368 0 552.5 -132.5t184.5 -424.5t-184.5 -425t-552.5 -133t-552 133t-184 425t184 424.5t552 132.5zM1338 109q179 129 179 409q0 279 -179 408q-174 125 -534 125q-359 0 -533 -125q-180 -129 -180 -408q0 -280 180 -409
q174 -125 533 -125q360 0 534 125z" />
    <glyph glyph-name="ocircumflex" unicode="&#xf4;" horiz-adv-x="1609" 
d="M689 1243h-284l-1 1l257 254h286l258 -254l-1 -1h-284l-116 114zM671 1474l-210 -207h218l109 107l16 17l17 -17l108 -107h218l-210 207h-266zM804 1075q368 0 552.5 -132.5t184.5 -424.5t-184.5 -425t-552.5 -133t-552 133t-184 425t184 424.5t552 132.5zM1338 109
q179 129 179 409q0 279 -179 408q-174 125 -534 125q-359 0 -533 -125q-180 -129 -180 -408q0 -280 180 -409q174 -125 533 -125q360 0 534 125zM1044 749q83 -74 83 -231q0 -158 -83 -232q-78 -71 -240 -71t-240 71q-82 73 -82 232q0 158 82 231q78 71 240 71t240 -71z
M804 239q152 0 225.5 66t73.5 213t-73.5 212.5t-225.5 65.5t-225 -65.5t-73 -212.5t73 -213t225 -66z" />
    <glyph glyph-name="otilde" unicode="&#xf5;" horiz-adv-x="1609" 
d="M646 1295q-60 0 -106 -46l-143 144q53 53 112 78q55 24 119 27h17q67 0 181 -29q93 -24 132 -24q61 0 109 48l144 -144q-52 -52 -114 -79q-58 -25 -120 -28h-19q-64 0 -182 30q-89 23 -130 23zM519 1449q-45 -19 -88 -57l110 -110q46 37 105 37q40 0 136 -24
q112 -29 176 -29h17q58 3 112 26q49 22 89 58l-110 110q-48 -39 -108 -39q-45 0 -138 24q-110 29 -175 29h-16q-60 -3 -110 -25zM804 1075q368 0 552.5 -132.5t184.5 -424.5t-184.5 -425t-552.5 -133t-552 133t-184 425t184 424.5t552 132.5zM1338 109q179 129 179 409
q0 279 -179 408q-174 125 -534 125q-359 0 -533 -125q-180 -129 -180 -408q0 -280 180 -409q174 -125 533 -125q360 0 534 125zM1044 749q83 -74 83 -231q0 -158 -83 -232q-78 -71 -240 -71t-240 71q-82 73 -82 232q0 158 82 231q78 71 240 71t240 -71zM804 239
q152 0 225.5 66t73.5 213t-73.5 212.5t-225.5 65.5t-225 -65.5t-73 -212.5t73 -213t225 -66z" />
    <glyph glyph-name="odieresis" unicode="&#xf6;" horiz-adv-x="1609" 
d="M718 1481v-229h-229v229h229zM694 1275v182h-181v-182h181zM1120 1481v-229h-230v229h230zM1096 1275v182h-182v-182h182zM804 1075q368 0 552.5 -132.5t184.5 -424.5t-184.5 -425t-552.5 -133t-552 133t-184 425t184 424.5t552 132.5zM1338 109q179 129 179 409
q0 279 -179 408q-174 125 -534 125q-359 0 -533 -125q-180 -129 -180 -408q0 -280 180 -409q174 -125 533 -125q360 0 534 125zM1044 749q83 -74 83 -231q0 -158 -83 -232q-78 -71 -240 -71t-240 71q-82 73 -82 232q0 158 82 231q78 71 240 71t240 -71zM804 239
q152 0 225.5 66t73.5 213t-73.5 212.5t-225.5 65.5t-225 -65.5t-73 -212.5t73 -213t225 -66z" />
    <glyph glyph-name="divide" unicode="&#xf7;" horiz-adv-x="1263" 
d="M57 889h1148v-344h-1148v344zM1181 569v296h-1100v-296h1100zM631 975q-71 0 -121.5 50.5t-50.5 121.5t50.5 121.5t121.5 50.5t121.5 -50.5t50.5 -121.5t-50.5 -121.5t-121.5 -50.5zM631 1295q-61 0 -104.5 -43.5t-43.5 -104.5t43.5 -104.5t104.5 -43.5t104.5 43.5
t43.5 104.5t-43.5 104.5t-104.5 43.5zM631 459q71 0 121.5 -51t50.5 -122t-50.5 -121.5t-121.5 -50.5t-121.5 50.5t-50.5 121.5t50.5 122t121.5 51zM631 138q61 0 104.5 43t43.5 105t-43.5 105.5t-104.5 43.5t-104.5 -43.5t-43.5 -105.5t43.5 -105t104.5 -43z" />
    <glyph glyph-name="oslash" unicode="&#xf8;" horiz-adv-x="1669" 
d="M1141 653l8 -37q10 -48 10 -98q0 -158 -83 -232q-78 -71 -240 -71q-102 0 -172 29l-39 16l33 25l453 345zM836 239q152 0 225.5 66t73.5 213q0 51 -9 93l-453 -345q66 -27 163 -27zM1615 984l-150 -114q108 -131 108 -352q0 -292 -184.5 -425t-552.5 -133q-288 0 -461 79
l-156 -119l-162 211l114 87q-72 121 -72 300q0 292 184.5 424.5t552.5 132.5q237 0 392 -52l226 172zM1549 518q0 212 -102 336l-16 20l20 15l130 99l-132 174l-207 -158l-10 -8l-12 4q-155 51 -384 51q-360 0 -534 -125q-179 -129 -179 -408q0 -173 68 -288l11 -18l-17 -13
l-94 -72l132 -174l138 105l11 9l13 -6q166 -77 451 -77q360 0 534 125q179 129 179 409zM982 805l-45 -34l-385 -293l-36 -28l-2 47v21q0 158 82 231q78 71 240 71q50 0 90 -6zM538 497l384 293q-39 6 -86 6q-152 0 -225.5 -65.5t-73.5 -212.5q0 -4 0.5 -11t0.5 -10z" />
    <glyph glyph-name="ugrave" unicode="&#xf9;" horiz-adv-x="1675" 
d="M957 1201h-229l-287 258h344zM772 1435h-269l234 -211h176zM1125 1035h439v-1035h-399l-40 80q-6 -5 -18.5 -13t-55 -28.5t-90 -36.5t-122 -29t-152.5 -13q-137 0 -244.5 31.5t-187.5 97.5t-122.5 174.5t-42.5 254.5v517h438v-517q0 -95 42.5 -160t108 -92t148.5 -27
q62 0 114 16t94 48.5t66 87.5t24 127v517zM1540 24v987h-391v-493q0 -140 -86.5 -221.5t-235.5 -81.5t-236 81.5t-87 221.5v493h-390v-493q0 -275 156 -410q145 -124 417 -124q244 0 424 115l23 17l13 -26l33 -66h360z" />
    <glyph glyph-name="uacute" unicode="&#xfa;" horiz-adv-x="1675" 
d="M1217 1460l-287 -259h-229l172 259h344zM745 1225h176l234 211h-269zM1125 1035h439v-1035h-399l-40 80q-6 -5 -18.5 -13t-55 -28.5t-90 -36.5t-122 -29t-152.5 -13q-137 0 -244.5 31.5t-187.5 97.5t-122.5 174.5t-42.5 254.5v517h438v-517q0 -95 42.5 -160t108 -92
t148.5 -27q62 0 114 16t94 48.5t66 87.5t24 127v517zM1540 24v987h-391v-493q0 -140 -86.5 -221.5t-235.5 -81.5t-236 81.5t-87 221.5v493h-390v-493q0 -275 156 -410q145 -124 417 -124q244 0 424 115l23 17l13 -26l33 -66h360z" />
    <glyph glyph-name="ucircumflex" unicode="&#xfb;" horiz-adv-x="1675" 
d="M712 1209h-284h-1l257 254h286l257 -254h-1h-284l-115 113zM694 1440l-210 -208h218l108 107l17 17l17 -17l108 -107h218l-210 208h-266zM1125 1035h439v-1035h-399l-40 80q-6 -5 -18.5 -13t-55 -28.5t-90 -36.5t-122 -29t-152.5 -13q-137 0 -244.5 31.5t-187.5 97.5
t-122.5 174.5t-42.5 254.5v517h438v-517q0 -95 42.5 -160t108 -92t148.5 -27q62 0 114 16t94 48.5t66 87.5t24 127v517zM1540 24v987h-391v-493q0 -140 -86.5 -221.5t-235.5 -81.5t-236 81.5t-87 221.5v493h-390v-493q0 -275 156 -410q145 -124 417 -124q244 0 424 115
l23 17l13 -26l33 -66h360z" />
    <glyph glyph-name="udieresis" unicode="&#xfc;" horiz-adv-x="1675" 
d="M742 1454v-229h-230v229h230zM718 1249v181h-182v-181h182zM1144 1454v-229h-230v229h230zM1120 1249v181h-182v-181h182zM1125 1035h439v-1035h-399l-40 80q-6 -5 -18.5 -13t-55 -28.5t-90 -36.5t-122 -29t-152.5 -13q-137 0 -244.5 31.5t-187.5 97.5t-122.5 174.5
t-42.5 254.5v517h438v-517q0 -95 42.5 -160t108 -92t148.5 -27q62 0 114 16t94 48.5t66 87.5t24 127v517zM1540 24v987h-391v-493q0 -140 -86.5 -221.5t-235.5 -81.5t-236 81.5t-87 221.5v493h-390v-493q0 -275 156 -410q145 -124 417 -124q244 0 424 115l23 17l13 -26
l33 -66h360z" />
    <glyph glyph-name="yacute" unicode="&#xfd;" horiz-adv-x="1445" 
d="M1105 1467l-287 -258h-229l172 258h344zM633 1233h176l234 211h-269zM1019 1033h411l-579 -1075q-105 -196 -121 -223q-85 -141 -175 -197q-92 -56 -226 -56q-112 0 -267 38v338q15 -3 50 -10.5l49 -10.5t37 -7t39 -5.5t31 -1.5q55 0 93 29.5t79 105.5h1l76 142l-503 933
h411l297 -552zM830 -31l560 1040h-356l-291 -540l-21 -39l-21 39l-291 540h-356l484 -898l6 -11l-6 -11l-76 -142l-7 -13q-42 -74 -84 -104.5t-103 -30.5q-44 0 -172 28q-2 1 -5 1.5t-5 0.5v-290q142 -33 243 -33q174 0 278 104q32 32 67.5 84.5t55 87.5t63.5 118
q6 12 18.5 35t18.5 34z" />
    <glyph glyph-name="thorn" unicode="&#xfe;" horiz-adv-x="1601" 
d="M928 925q86 0 148 -61.5t62 -147.5t-62 -148t-148 -62h-411v419h411zM928 530q76 0 131 55t55 131t-54.5 130.5t-131.5 54.5h-387v-371h387zM1504 922q41 -95 41 -206q0 -112 -41 -207q-40 -95 -114 -168q-72 -72 -168 -113q-98 -42 -206 -42h-475v-187h-430v1435h430
v-189h475q111 0 206 -41q94 -40 168 -114t114 -168zM1482 519q39 93 39 197t-39 197q-36 87 -109 160t-160 109q-93 39 -197 39h-499v189h-383v-1387h383v187h499q102 0 197 40q89 37 160 108q72 72 109 161z" />
    <glyph glyph-name="ydieresis" unicode="&#xff;" horiz-adv-x="1445" 
d="M632 1453v-229h-229v229h229zM609 1247v182h-182v-182h182zM1034 1453v-229h-229v229h229zM1010 1247v182h-182v-182h182zM1019 1033h411l-579 -1075q-105 -196 -121 -223q-85 -141 -175 -197q-92 -56 -226 -56q-112 0 -267 38v338q15 -3 50 -10.5l49 -10.5t37 -7
t39 -5.5t31 -1.5q55 0 93 29.5t79 105.5h1l76 142l-503 933h411l297 -552zM830 -31l560 1040h-356l-291 -540l-21 -39l-21 39l-291 540h-356l484 -898l6 -11l-6 -11l-76 -142l-7 -13q-42 -74 -84 -104.5t-103 -30.5q-44 0 -172 28q-2 1 -5 1.5t-5 0.5v-290q142 -33 243 -33
q174 0 278 104q32 32 67.5 84.5t55 87.5t63.5 118q6 12 18.5 35t18.5 34z" />
    <glyph glyph-name="dotlessi" unicode="&#x131;" horiz-adv-x="567" 
d="M111 1115h344v-1115h-344v1115zM431 24v1067h-297v-1067h297z" />
    <glyph glyph-name="Lslash" unicode="&#x141;" horiz-adv-x="1710" 
d="M690 358h996v-358h-1434v379l-80 -71l-158 180l238 208v738h438v-354l280 244l157 -179l-437 -383v-404zM276 24h1386v311h-996v438l9 7l419 367l-126 144l-262 -229l-40 -35v383h-390v-724l-8 -8l-220 -192l126 -144l63 55l39 35v-408z" />
    <glyph glyph-name="lslash" unicode="&#x142;" horiz-adv-x="1126" 
d="M976 1225l158 -180l-341 -298v-747h-438v364l-177 -155l-158 180l335 292v753h438v-369zM777 765l323 282l-126 144l-165 -144l-40 -35v398h-390v-740l-8 -7l-317 -277l126 -144l159 140l40 34v-392h390v734z" />
    <glyph glyph-name="OE" unicode="&#x152;" horiz-adv-x="3031" 
d="M1326 1054q121 -98 121 -337q0 -108 -26 -186t-66.5 -123t-104 -71t-124 -34t-140.5 -8q-234 0 -339 85q-123 98 -123 337t123 337q105 85 339 85q235 0 340 -85zM986 319q110 0 186.5 17.5t135.5 61.5t87.5 123t28.5 196q0 118 -27.5 196.5t-86 122.5t-135.5 61.5
t-189 17.5q-111 0 -188 -17.5t-135.5 -61.5t-87 -122.5t-28.5 -196.5t28.5 -196.5t87 -122.5t135.5 -61.5t188 -17.5zM2937 1075h-1036v-179h956v-358h-956v-180h1036v-358h-1474v15q-180 -55 -477 -55q-175 0 -310.5 21t-252 73.5t-192.5 138t-118.5 217t-42.5 307.5
q0 207 58 353t176.5 234.5t285 128.5t396.5 40q289 0 477 -63v24h1474v-359zM1901 872h-23v227h1035v311h-1426v-33l-31 10q-188 63 -470 63q-455 0 -668 -165q-224 -174 -224 -568q0 -411 239 -583q209 -150 653 -150q295 0 470 54l31 10v-24h1426v311h-1035v226h955v311
h-932z" />
    <glyph glyph-name="oe" unicode="&#x153;" horiz-adv-x="2637" 
d="M2573 448h-1027q16 -106 88 -157.5t207 -51.5q64 0 117.5 5.5t85.5 12.5t63 20.5t43 21t32.5 23t25.5 18.5l284 -165q-108 -117 -254.5 -166t-396.5 -49q-336 0 -515 112q-180 -112 -522 -112q-368 0 -552 133t-184 425t184 424.5t552 132.5q336 0 514 -107
q177 107 522 107q370 0 553 -128.5t183 -419.5q0 -41 -3 -79zM1519 472h1032q1 18 1 55q0 279 -178 404q-172 120 -534 120q-338 0 -509 -104l-12 -7l-13 7q-172 104 -502 104q-359 0 -533 -125q-180 -129 -180 -408q0 -280 180 -409q174 -125 533 -125q337 0 509 108l13 8
l12 -8q86 -53 215 -81q125 -27 288 -27q248 0 391 48q128 43 222 137l-244 142q-1 -1 -3 -2.5t-3 -2.5q-25 -19 -44.5 -30.5t-61.5 -28t-106.5 -24.5t-150.5 -8q-284 0 -318 229zM1044 749q83 -74 83 -231q0 -158 -83 -232q-78 -71 -240 -71t-240 71q-82 73 -82 232
q0 158 82 231q78 71 240 71t240 -71zM804 239q152 0 225.5 66t73.5 213t-73.5 212.5t-225.5 65.5t-225 -65.5t-73 -212.5t73 -213t225 -66zM2156 623h-633l9 30q27 94 99 132q66 35 209 35t209 -35q72 -38 99 -132zM1840 796q-135 0 -198 -32.5t-87 -116.5h570
q-24 84 -87 116.5t-198 32.5z" />
    <glyph glyph-name="Scaron" unicode="&#x160;" horiz-adv-x="1904" 
d="M1096 1549h-286l-258 254l1 1h284l116 -114l115 114h284l1 -1zM828 1780h-218l210 -207h266l210 207h-218l-109 -107l-16 -17l-17 17zM957 896q99 -3 171 -7t153.5 -12t139 -19.5t118 -29t101.5 -41.5t79 -57.5t59.5 -75.5t34.5 -96t13 -120h-1q0 -84 -21 -151.5
t-58.5 -117.5t-97 -86.5t-129 -60t-162.5 -37.5t-189.5 -19.5t-217.5 -5.5q-127 0 -225 5.5t-192 20.5t-162.5 40t-127 64.5t-94 93.5t-55.5 127.5t-20 166.5h438q0 -24 4.5 -43.5t17 -34.5t24 -26.5t35.5 -20t41 -14.5t51.5 -10t56 -6t65 -3t68 -1h75.5q122 0 179 2
t128 12.5t99 36t28 68.5q0 31 -12 53.5t-35 36.5t-55.5 23t-73.5 13.5t-88.5 6.5t-101.5 4q-48 1 -73 2l-1 1h-1q-112 4 -190.5 8.5t-166.5 14t-147 24t-119.5 37t-98.5 54t-69 74t-44.5 99t-13.5 126.5q0 93 25.5 165t78 122t122.5 83.5t170 52.5t209 27t250 8
q127 0 224 -5.5t189 -20.5t158.5 -40t122.5 -64t90.5 -93t53 -127.5t18.5 -166.5h-438q0 24 -4 43.5t-15 34.5t-21.5 26.5t-33 20t-38 14.5t-48 10t-53 6t-63 3t-67 1h-75.5q-120 0 -175 -2t-122 -10.5t-92 -30t-25 -57.5q0 -70 84 -94q59 -17 245 -22q63 -2 91 -3h1h1z
M1801 462h1q-4 120 -57 200q-53 79 -162 125q-104 43 -254 60.5t-373 24.5h-1h-1q-14 0 -40.5 0.5t-39.5 1.5q-193 5 -253 21q-110 28 -110 120q0 87 132 111q74 13 306 13q85 0 127 -0.5t96 -5.5t89 -15q119 -33 129 -138h391q-3 139 -52 230q-51 95 -154 148
q-94 48 -242.5 70t-383.5 22q-434 0 -618 -85q-109 -49 -161 -135t-52 -215q0 -127 50 -206.5t159 -124.5q95 -40 238 -57.5t379 -25.5h1q12 0 35 -0.5t35 -1.5q201 -6 271 -24q122 -33 122 -137q0 -52 -29.5 -82.5t-104.5 -43t-135.5 -15t-188.5 -2.5q-91 0 -129 0.5t-97 5
t-96 14.5q-127 33 -139 139h-391q4 -138 55 -230q53 -95 160 -148q96 -49 247 -70.5t390 -21.5q437 0 628 87q114 52 168.5 142t54.5 225v24z" />
    <glyph glyph-name="scaron" unicode="&#x161;" horiz-adv-x="1546" 
d="M916 1208h-285l-258 254l1 1h284l115 -113l116 113h284l1 -1zM648 1439h-218l210 -207h267l209 207h-217l-109 -106l-17 -17l-16 17zM850 657q238 0 373.5 -35.5t190 -107t54.5 -195.5q0 -87 -19.5 -145t-64.5 -101.5t-127.5 -67t-198.5 -34.5t-287 -11q-172 0 -287.5 11
t-198 34.5t-127.5 66.5t-64.5 101.5t-19.5 145.5h418q0 -30 12.5 -46.5t55 -23.5t81 -8.5t130.5 -1.5q169 0 223.5 11t54.5 61q0 48 -64.5 58t-293.5 10q-179 0 -295 18.5t-183.5 61.5t-93.5 103.5t-26 154.5q0 76 17 129.5t61 99t120.5 72.5t195 42t284.5 15q167 0 285 -14
t194.5 -40.5t120 -72t60.5 -99.5t17 -132h-399q0 29 -17.5 45.5t-62.5 23.5t-81 8.5t-111 1.5h-6q-171 0 -225 -10.5t-54 -60.5q0 -47 66 -57.5t292 -10.5zM1317 56q67 35 97 97t30 166q0 86 -27 143q-29 60 -91 95q-132 76 -476 76q-224 0 -287 10q-95 15 -95 82
q0 70 84 86q47 9 219 9h57t51.5 -1t50 -3t41 -5.5t38.5 -9.5t28 -14t22.5 -19.5t11.5 -26.5h352q-3 85 -30.5 138t-86.5 88q-143 84 -535 84q-393 0 -536 -86q-63 -37 -92 -101q-26 -60 -26 -147q0 -91 25.5 -147.5t82.5 -90.5q124 -76 466 -76q229 0 287 -9q95 -15 95 -83
q0 -71 -84 -87q-47 -9 -218 -9q-167 0 -229 12.5t-72 67.5h-372q3 -94 32.5 -150t93.5 -89q138 -72 547 -72q408 0 546 72z" />
    <glyph glyph-name="Ydieresis" unicode="&#x178;" horiz-adv-x="1732" 
d="M776 1793v-229h-229v229h229zM752 1588v181h-181v-181h181zM1178 1793v-229h-230v229h230zM1154 1588v181h-182v-181h182zM1224 1434h518l-657 -910v-524h-438v524l-657 910h517l359 -497zM1066 538l629 872h-459l-351 -487l-19 -26l-20 26l-351 487h-459l630 -872l5 -6
v-508h390v508z" />
    <glyph glyph-name="Zcaron" unicode="&#x17d;" horiz-adv-x="1740" 
d="M1010 1549h-286l-257 254l1 1h284l115 -114l116 114h284l1 -1zM742 1780h-218l210 -207h267l209 207h-218l-108 -107l-17 -17l-16 17zM1667 1434v-351l-906 -725h906v-358h-1593v350l906 725h-906v359h1593zM1643 1095v315h-1545v-311h950l-53 -42l-897 -718v-315h1545
v311h-950l53 42z" />
    <glyph glyph-name="zcaron" unicode="&#x17e;" horiz-adv-x="1511" 
d="M895 1208h-286l-257 254l1 1h284l115 -113l115 113h284l1 -1zM627 1439h-218l210 -207h266l210 207h-218l-108 -106l-17 -17l-17 17zM1432 1035v-278l-757 -478h757v-279h-1354v279l756 478h-756v278h1354zM1408 770v241h-1306v-230h815l-70 -45l-745 -470v-242h1306v231
h-815l69 44z" />
    <glyph glyph-name="circumflex" unicode="&#x2c6;" horiz-adv-x="866" 
d="M576 1430l257 -254l-1 -1h-284l-115 114l-115 -114h-284l-1 1l257 254h286zM558 1199h218l-210 207h-266l-210 -207h218l108 107l17 16l17 -16z" />
    <glyph glyph-name="caron" unicode="&#x2c7;" horiz-adv-x="858" 
d="M828 1434l1 -1l-257 -254h-286l-257 254l1 1h284l115 -114l115 114h284zM562 1203l210 207h-218l-108 -107l-17 -17l-17 17l-108 107h-218l210 -207h266z" />
    <glyph glyph-name="ilde" unicode="&#x2dc;" horiz-adv-x="899" 
d="M713 1428l144 -144q-52 -52 -114 -79q-55 -24 -120 -27q-3 0 -9.5 -0.5t-9.5 -0.5q-64 0 -182 30q-89 23 -130 23q-59 0 -105 -46l-144 144q53 53 112 78q55 24 119 27q3 0 9 0.5t9 0.5q62 0 180 -30q93 -24 132 -24q61 0 109 48zM733 1227q51 23 90 58l-111 110
q-48 -39 -108 -39q-41 0 -137 25q-110 29 -175 29q-3 0 -9 -0.5t-8 -0.5q-60 -3 -110 -25q-47 -20 -88 -56l111 -111q46 37 104 37q40 0 136 -24q112 -29 176 -29h18q57 3 111 26z" />
    <glyph glyph-name="endash" unicode="&#x2013;" horiz-adv-x="1267" 
d="M59 886h1148v-344h-1148v344zM1183 565v297h-1100v-297h1100z" />
    <glyph glyph-name="emdash" unicode="&#x2014;" horiz-adv-x="1841" 
d="M59 889h1722v-344h-1722v344zM1757 569v296h-1674v-296h1674z" />
    <glyph glyph-name="quoteleft" unicode="&#x2018;" horiz-adv-x="559" 
d="M319 1112h161v-401h-402v401l201 322h140zM456 734v354h-170l10 31l91 291h-95l-190 -305v-371h354z" />
    <glyph glyph-name="quoteright" unicode="&#x2019;" horiz-adv-x="557" 
d="M78 1434h402v-402l-201 -321h-141l101 321h-161v402zM265 734l191 305v371h-354v-354h169l-10 -31l-90 -291h94z" />
    <glyph glyph-name="quotesinglbase" unicode="&#x201a;" horiz-adv-x="534" 
d="M66 409h401v-401l-201 -322h-140l100 322h-160v401zM253 -290l190 304v371h-354v-353h170l-10 -32l-91 -290h95z" />
    <glyph glyph-name="quoteleftreversed" unicode="&#x201b;" horiz-adv-x="557" 
d="M76 1421h401v-401h-160l100 -322h-140l-201 322v401zM284 1044h170v354h-354v-371l190 -305h95l-91 291z" />
    <glyph glyph-name="quotedblleft" unicode="&#x201c;" horiz-adv-x="1120" 
d="M881 1112h161v-401h-402v401l201 322h141zM664 734h354v354h-169l9 31l91 291h-95l-190 -305v-371zM419 1434l-100 -322h161v-401h-402v401l201 322h140zM456 734v354h-170l10 31l91 291h-95l-190 -305v-371h354z" />
    <glyph glyph-name="quotedblright" unicode="&#x201d;" horiz-adv-x="1118" 
d="M239 1032h-161v402h402v-402l-201 -321h-141zM102 1410v-354h169l-10 -31l-90 -291h94l191 305v371h-354zM640 1434h402v-402l-201 -321h-141l101 321h-161v402zM1018 1039v371h-354v-354h169l-9 -31l-91 -291h95z" />
    <glyph glyph-name="quotedblbase" unicode="&#x201e;" horiz-adv-x="1095" 
d="M226 7h-160v402h401v-402l-201 -321h-140zM89 385v-354h170l-10 -31l-91 -290h95l190 304v371h-354zM628 409h402v-402l-201 -321h-141l101 321h-161v402zM816 -290l190 304v371h-354v-354h169l-10 -31l-90 -290h95z" />
    <glyph glyph-name="dagger" unicode="&#x2020;" horiz-adv-x="1280" 
d="M812 1143h401v-344h-401v-1118h-345v1118h-401v344h401v287h345v-287zM1189 823v296h-401v287h-297v-287h-402v-296h402v-1118h297v1118h401z" />
    <glyph glyph-name="daggerdbl" unicode="&#x2021;" horiz-adv-x="1345" 
d="M1246 803h-402v-490h402v-345h-402v-287h-344v287h-402v345h402v490h-402v344h402v287h344v-287h402v-344zM844 289h-24v538h402v296h-402v287h-296v-287h-402v-296h402v-538h-402v-297h402v-287h296v287h402v297h-378z" />
    <glyph glyph-name="bullet" unicode="&#x2022;" horiz-adv-x="659" 
d="M329 982q109 0 187 -78t78 -187q0 -110 -78 -188t-187 -78t-187.5 78.5t-78.5 187.5t78 187t188 78zM329 475q100 0 170.5 71t70.5 171t-70.5 170.5t-170.5 70.5t-171 -70.5t-71 -170.5t71 -171t171 -71z" />
    <glyph glyph-name="ellipsis" unicode="&#x2026;" horiz-adv-x="1775" 
d="M686 2v402h402v-402h-402zM710 380v-354h354v354h-354zM1309 404h401v-402h-401v402zM1687 26v354h-354v-354h354zM63 2v402h402v-402h-402zM87 380v-354h354v354h-354z" />
    <glyph glyph-name="perthousand" unicode="&#x2030;" horiz-adv-x="2953" 
d="M2619 320h4v-24q0 -43 -35.5 -72t-83 -40t-103.5 -11q-189 0 -217 86l-2 5v4q2 18 2 28q0 2 -0.5 6t-0.5 6v4l2 5q17 47 79 69.5t137 22.5q89 0 144 -20q61 -23 74 -69zM2401 197q81 0 139.5 25.5t58.5 73.5q0 33 -30 53.5t-72 28t-96 7.5q-71 0 -126 -19.5t-68 -56.5
v-13q0 -20 -1 -30q22 -69 195 -69zM2872 417q21 -49 23 -121q0 -182 -158 -269q-64 -36 -129.5 -51.5t-206.5 -15.5q-140 0 -209 15.5t-136 54.5q-1 0 -3.5 -1t-3.5 -2q-64 -36 -129.5 -51.5t-206.5 -15.5q-145 0 -214.5 16.5t-141.5 60.5q-80 48 -115 129q-22 52 -24 120
q0 182 159 270q64 35 129.5 50.5t206.5 15.5q140 0 209 -15.5t136 -54.5q1 0 3.5 2t3.5 2q64 35 129.5 50.5t206.5 15.5q146 0 215 -16.5t141 -59.5q80 -48 115 -129zM2826 137q46 69 46 159q-1 63 -22 111q-32 75 -105 118q-70 42 -136.5 58t-207.5 16q-98 0 -165 -10
t-93 -21t-67 -33q-1 -1 -3 -2t-3 -2l-12 -7l-12 8q-65 38 -132 52.5t-201 14.5q-98 0 -165 -10t-93 -21t-67 -33q-62 -34 -100 -89q-46 -69 -46 -159q2 -64 22 -112q32 -75 105 -118q69 -42 135.5 -57.5t208.5 -15.5q98 0 165 10t93 21t67 33l6 3l12 7l12 -7
q65 -38 132 -52.5t201 -14.5q98 0 165 10t93 21t67 33q62 34 100 89zM1713 409q189 0 217 -86l2 -4l-1 -5q-1 -9 -1 -27q0 -2 0.5 -6t0.5 -6v-5l-2 -5q-17 -47 -79 -69.5t-137 -22.5q-89 0 -144 20q-62 23 -75 69h-3v24q0 43 35.5 72t83 40t103.5 11zM1907 274q0 2 -0.5 6
t-0.5 6q0 10 2 30q-22 69 -195 69q-81 0 -139.5 -25.5t-58.5 -73.5q0 -33 30 -53.5t72 -28t96 -7.5q70 0 125.5 19.5t68.5 57.5zM774 1153q0 -43 -35.5 -72t-83 -40t-103.5 -11q-89 0 -144 20q-62 23 -75 69h-3v24q0 43 35.5 72t83 40t103.5 11q89 0 144 -20q61 -23 74 -69
h4v-24zM354 1143q0 -33 30 -53.5t72 -28t96 -7.5q81 0 139.5 25.5t58.5 73.5q0 33 -30 53.5t-72 28t-96 7.5q-81 0 -139.5 -25.5t-58.5 -73.5zM888 883q-64 -35 -129.5 -50.5t-206.5 -15.5q-145 0 -214.5 16.5t-141.5 60.5q-80 48 -115 129q-22 52 -24 120q0 182 159 270
q64 35 129.5 50.5t206.5 15.5q145 0 214.5 -16.5t141.5 -60.5q80 -48 115 -129q21 -49 23 -120q0 -99 -45 -165.5t-113 -104.5zM103 1032q32 -75 105 -118q69 -42 135.5 -57.5t208.5 -15.5q98 0 164.5 10t93.5 20.5t67 32.5q61 33 100 90q45 68 45 159q-2 65 -21 111
q-32 75 -105 118q-69 42 -135.5 57.5t-208.5 15.5q-98 0 -164.5 -10t-93.5 -20.5t-67 -32.5q-62 -34 -100 -89q-46 -69 -46 -160q1 -63 22 -111zM1433 1436h422l-1017 -1433h-422zM825 27l984 1385h-363l-984 -1385h363z" />
    <glyph glyph-name="guilsinglleft" unicode="&#x2039;" horiz-adv-x="675" 
d="M562 1469v-502l-237 -250l237 -251v-501l-474 501v502zM538 977v432l-426 -451v-482l426 -451v432l-230 243l-16 17l16 16z" />
    <glyph glyph-name="guilsinglright" unicode="&#x203a;" horiz-adv-x="675" 
d="M113 1468l473 -501v-502l-473 -501v502l236 250l-236 251v501zM562 475v482l-425 451v-432l230 -243l15 -17l-15 -16l-230 -244v-432z" />
    <glyph glyph-name="fraction" unicode="&#x2044;" horiz-adv-x="2166" 
d="M1558 1434h486l-1434 -1435h-487zM600 23l1387 1387h-420l-1386 -1387h419z" />
    <glyph glyph-name="Euro" unicode="&#x20ac;" horiz-adv-x="2119" 
d="M1578 545h454q-16 -103 -47 -179q-38 -97 -103 -170t-142.5 -117t-177 -71.5t-196 -37.5t-211.5 -10q-5 0 -17 0.5t-17 0.5t-15 -0.5t-16 -0.5q-114 0 -211 10.5t-197 39t-178 73.5t-143.5 118t-103.5 170q-22 50 -39 133h-146v143h128q-5 69 0 139h-128v144h146
q17 81 39 132q38 97 103.5 170t143.5 118t178 73.5t197 39t211 10.5h31h32q114 0 211 -10.5t196.5 -39t177.5 -73.5t143.5 -118t103.5 -170q30 -72 46 -173h-455q-3 9 -7 18q-27 70 -75 117.5t-142.5 77.5t-230.5 30q-344 0 -438 -202h472v-144h-507q-6 -69 0 -139h507v-143
h-472q94 -202 438 -202q201 0 305.5 56.5t142.5 160.5q3 8 9 26zM1963 375q26 62 41 146h-409q-1 -2 -2.5 -5.5t-1.5 -4.5q-44 -119 -159 -176t-311 -57q-358 0 -459 216l-16 34h485v95h-505l-2 22q-6 71 0 143l2 22h505v96h-485l16 34q101 215 459 215q194 0 309 -58
t161 -180q1 -1 1 -2q0 -2 1 -2h410q-16 83 -40 140v1q-44 112 -130 195q-80 75 -189 121q-191 79 -491 79h-31h-1h-31q-300 0 -491 -79q-109 -46 -189 -121q-86 -83 -130 -195l-1 -1q-21 -50 -37 -128l-4 -19h-142v-96h130l-2 -25q-5 -68 0 -136l2 -26h-130v-95h142l4 -20
q16 -76 37 -127v-1h1q46 -116 129 -196q79 -75 190 -121q191 -79 491 -79h31h1h33q302 0 490 76q113 46 189 119q83 79 129 196v0z" />
    <glyph glyph-name="trademark" unicode="&#x2122;" horiz-adv-x="901" 
d="M43 1434h347v-76h-126v-239h-95v239h-126v76zM366 1382v28h-299v-28h126v-239h47v239h126zM725 1434h119v-315h-95v145l-69 -145h-95l-69 145v-145h-95v315h119l92 -195zM773 1143h47v267h-80l-86 -182l-22 -45l-21 45l-86 182h-80v-267h47v227l45 -96l63 -131h65l62 131
l46 96v-227z" />
    <glyph glyph-name="minus" unicode="&#x2212;" horiz-adv-x="1267" 
d="M59 894h1148v-345h-1148v345zM1183 573v297h-1100v-297h1100z" />
    <glyph glyph-name="A.alt1" unicode="&#xf000;" horiz-adv-x="2781" 
d="M1657 1410h-534l-1078 -1386h497l116 150l8 9h1448l7 -9l117 -150h497zM907 494l30 38l434 558l19 24l19 -24l433 -558l30 -38h-965zM1111 1434h557l1115 -1434h-557l-124 159h-1425l-124 -159h-557zM1390 1075l-434 -557h867z" />
    <glyph glyph-name="B.alt1" unicode="&#xf001;" horiz-adv-x="2617" 
d="M147 1410v-1386h1992q161 0 275 114t114 275q0 96 -44.5 180.5t-123.5 139.5l-22 15l17 20q93 108 93 253q0 161 -114 275t-275 114h-1912zM537 852v247h1398q51 0 87 -36t36 -87t-36 -87.5t-87 -36.5h-1398zM537 335v246h1477q51 0 87.5 -36t36.5 -87t-36.5 -87
t-87.5 -36h-1477zM123 0v1434h1936q171 0 292 -121t121 -292q0 -154 -98 -268q82 -57 130 -146.5t48 -193.5q0 -171 -121 -292t-292 -121h-2016zM561 1075v-199h1374q41 0 70 29.5t29 70.5t-29 70t-70 29h-1374zM561 558v-200h1453q41 0 70.5 29.5t29.5 70.5t-29.5 70.5
t-70.5 29.5h-1453z" />
    <glyph glyph-name="C.alt1" unicode="&#xf002;" horiz-adv-x="2752" 
d="M1782 1450h-796q-455 0 -668 -165q-224 -174 -224 -568q0 -411 239 -583q209 -150 653 -150h796q423 0 623 120q110 66 174 175q61 104 82 255h-441q-23 -75 -68 -125t-109 -73.5t-123.5 -32t-137.5 -8.5h-796q-234 0 -339 85q-123 98 -123 337t123 337q105 85 339 85
h796q78 0 138 -8.5t123.5 -32t108.5 -73.5t68 -125h439q-46 286 -258 418q-213 132 -619 132zM986 1473h796q206 0 360.5 -32t270.5 -102t184 -185.5t90 -277.5h-485q-34 134 -136 186.5t-284 52.5h-796q-111 0 -188 -17.5t-135.5 -61.5t-87 -122.5t-28.5 -196.5
t28.5 -196.5t87 -122.5t135.5 -61.5t188 -17.5h796q179 0 281.5 52.5t137.5 186.5h487q-20 -173 -87.5 -290t-186 -184.5t-270 -95.5t-362.5 -28h-796q-175 0 -310.5 21t-252 73.5t-192.5 138t-118.5 217t-42.5 307.5q0 207 58 353t176.5 234.5t285 128.5t396.5 40z" />
    <glyph glyph-name="D.alt1" unicode="&#xf003;" horiz-adv-x="2699" 
d="M1756 1410h-1609v-1386h1609q217 0 372 32q164 35 265 109q107 79 159 210q55 137 55 342q0 372 -214 537q-202 156 -637 156zM537 335v764h1219q231 0 334 -70q128 -88 128 -312q0 -93 -22 -161t-60 -110.5t-98.5 -67.5t-126.5 -34t-155 -9h-1219zM123 1434h1633
q219 0 378 -38t272.5 -122t169 -222.5t55.5 -334.5q0 -168 -37 -291.5t-106 -205t-179 -131t-242.5 -69.5t-310.5 -20h-1633v1434zM561 1075v-717h1195q86 0 148.5 8t120 31.5t93 62.5t56 103.5t20.5 153.5t-20.5 153t-55.5 103.5t-92 62.5t-120 31t-150 8h-1195z" />
    <glyph glyph-name="E.alt1" unicode="&#xf004;" horiz-adv-x="2488" 
d="M2369 1410h-2222v-1386h2222v311h-1832v226h1752v311h-1752v227h1832v311zM123 1434h2270v-359h-1832v-179h1752v-358h-1752v-180h1832v-358h-2270v1434z" />
    <glyph glyph-name="F.alt1" unicode="&#xf005;" horiz-adv-x="2586" 
d="M2508 1410h-2361v-1386h390v537h1892v311h-1892v227h1971v311zM123 1434h2409v-359h-1971v-179h1891v-358h-1891v-538h-438v1434z" />
    <glyph glyph-name="G.alt1" unicode="&#xf006;" horiz-adv-x="2793" 
d="M1783 1450h-797q-455 0 -668 -165q-224 -174 -224 -568q0 -411 239 -583q209 -150 653 -150h797q387 0 586 100l34 17v-77h271v709h-1266v-271h787l-31 -39q-53 -67 -144.5 -97.5t-236.5 -30.5h-797q-234 0 -339 85q-123 98 -123 337t123 337q105 85 339 85h797
q72 0 128.5 -7t117 -26.5t106.5 -61t72 -104.5h446q-55 264 -265 387t-605 123zM986 1473h797q402 0 624.5 -130t274.5 -427h-491q-41 111 -140.5 155t-267.5 44h-797q-111 0 -187.5 -17.5t-135.5 -61.5t-87 -122.5t-28 -196.5t28 -196.5t87 -122.5t135.5 -61.5t187.5 -17.5
h797q132 0 221 27t141 92h-761v319h1314v-757h-319v63q-205 -103 -596 -103h-797q-175 0 -310.5 21t-252 73.5t-192.5 138t-118.5 217t-42.5 307.5q0 207 58 353t176.5 234.5t285 128.5t396.5 40z" />
    <glyph glyph-name="H.alt1" unicode="&#xf007;" horiz-adv-x="2715" 
d="M2568 1410h-390v-538h-1641v538h-390v-1386h390v537h1641v-537h390v1386zM2154 1434h438v-1434h-438v538h-1593v-538h-438v1434h438v-538h1593v538z" />
    <glyph glyph-name="I.alt1" unicode="&#xf008;" horiz-adv-x="1480" 
d="M1333 1410h-1186v-1386h1186v1386zM123 1434h1234v-1434h-1234v1434z" />
    <glyph glyph-name="J.alt1" unicode="&#xf009;" horiz-adv-x="2523" 
d="M2401 1410h-390v-693q0 -231 -112 -336q-93 -86 -270 -86h-797q-178 0 -271 86q-106 97 -112 312h-390q3 -195 61 -337q56 -137 164 -223q189 -149 548 -149h797q359 0 547 149q108 86 164 223q61 147 61 361v693zM1987 1434h438v-717q0 -146 -28 -263t-81.5 -199
t-124 -140t-162.5 -91.5t-189 -48.5t-211 -15h-797q-139 0 -252.5 21t-217 74t-174 137t-112 217.5t-41.5 307.5h438q0 -93 18.5 -163.5t50 -114.5t78 -71.5t97.5 -38t115 -10.5h797q63 0 113.5 10.5t97.5 38t78.5 71.5t50 114.5t18.5 163.5v717z" />
    <glyph glyph-name="K.alt1" unicode="&#xf00a;" horiz-adv-x="2512" 
d="M2379 1410h-617l-1190 -649l-35 -19v668h-390v-1386h390v381l12 7l172 94l11 6l11 -6l978 -482h689l-1310 646l-41 20l41 22zM1756 1434h716l-1361 -743l1401 -691h-796l-983 485l-172 -94v-391h-438v1434h438v-652z" />
    <glyph glyph-name="L.alt1" unicode="&#xf00b;" horiz-adv-x="2377" 
d="M537 1410h-390v-1386h2182v311h-1792v1075zM123 1434h438v-1076h1792v-358h-2230v1434z" />
    <glyph glyph-name="M.alt1" unicode="&#xf00c;" horiz-adv-x="3112" 
d="M2966 1410h-562l-829 -1066l-19 -25l-18 25l-829 1066h-562v-1386h390v1070l43 -55l789 -1015h375l789 1015l43 55v-1070h390v1386zM2393 1434h597v-1434h-438v1024l-796 -1024h-399l-796 1024v-1024h-438v1434h597l836 -1076z" />
    <glyph glyph-name="N.alt1" unicode="&#xf00d;" horiz-adv-x="2754" 
d="M2608 1410h-390v-993l-37 22l-1587 971h-447v-1386h390v993l36 -23l1588 -970h447v1386zM2194 1434h438v-1434h-478l-1593 974v-974h-438v1434h478l1593 -974v974z" />
    <glyph glyph-name="O.alt1" unicode="&#xf00e;" horiz-adv-x="2768" 
d="M2122 1054q122 -98 122 -337q0 -108 -26 -186t-66.5 -123t-104 -71t-124 -34t-141.5 -8h-796q-234 0 -339 85q-123 98 -123 337t123 337q105 85 339 85h796q235 0 340 -85zM1782 319q110 0 186.5 17.5t135.5 61.5t87.5 123t28.5 196q0 118 -27.5 196.5t-86 122.5
t-135.5 61.5t-189 17.5h-796q-111 0 -188 -17.5t-135.5 -61.5t-87 -122.5t-28.5 -196.5t28.5 -196.5t87 -122.5t135.5 -61.5t188 -17.5h796zM1782 1473q229 0 395.5 -40t285 -128.5t177 -234.5t58.5 -353q0 -177 -39 -307.5t-111 -216.5t-187 -138t-254 -73.5t-325 -21.5
h-796q-175 0 -310.5 21t-252 73.5t-192.5 138t-118.5 217t-42.5 307.5q0 207 58 353t176.5 234.5t285 128.5t396.5 40h796zM2449 134q112 84 167 221q58 146 58 362q0 394 -225 568q-213 165 -667 165h-796q-455 0 -668 -165q-224 -174 -224 -568q0 -413 238 -583
q209 -150 654 -150h796q233 0 390 34q169 35 277 116z" />
    <glyph glyph-name="P.alt1" unicode="&#xf00f;" horiz-adv-x="2478" 
d="M1895 1434q109 0 208.5 -43t171.5 -115t115 -171.5t43 -208.5t-43 -208.5t-115 -171.5t-171.5 -115t-208.5 -43h-1334v-358h-438v1434h1772zM1895 382q139 0 257.5 69t187.5 187.5t69 257.5t-69 257.5t-187.5 187.5t-257.5 69h-1748v-1386h390v358h1358zM1815 1099
q84 0 143.5 -59.5t59.5 -143.5t-59.5 -143.5t-143.5 -59.5h-1278v406h1278zM1815 717q74 0 127 52.5t53 126.5t-53 126.5t-127 52.5h-1254v-358h1254z" />
    <glyph glyph-name="Q.alt1" unicode="&#xf010;" horiz-adv-x="2777" 
d="M2698 717q0 -324 -128 -497l88 -88l-238 -238l-132 131q-188 -65 -506 -65h-796q-175 0 -310.5 21t-252 73.5t-192.5 138t-118.5 217t-42.5 307.5q0 207 58 353t176.5 234.5t285 128.5t396.5 40h796q229 0 395.5 -40t285 -128.5t177 -234.5t58.5 -353zM2624 132l-71 72
l-15 14l12 17q124 169 124 482q0 394 -225 568q-213 165 -667 165h-796q-455 0 -668 -165q-224 -174 -224 -568q0 -413 238 -583q209 -150 654 -150h796q316 0 499 63l14 5l125 -125zM2122 1054q122 -98 122 -337q0 -73 -13 -140l-8 -43l-32 31l-121 118l-204 -205l126 -123
l31 -30l-42 -11q-79 -19 -199 -19h-796q-234 0 -339 85q-123 98 -123 337t123 337q105 85 339 85h796q235 0 340 -85zM2208 582q12 58 12 135q0 118 -27.5 196.5t-86 122.5t-135.5 61.5t-189 17.5h-796q-111 0 -188 -17.5t-135.5 -61.5t-87 -122.5t-28.5 -196.5t28.5 -196.5
t87 -122.5t135.5 -61.5t188 -17.5h796q117 0 193 19l-143 140l238 239z" />
    <glyph glyph-name="R.alt1" unicode="&#xf011;" horiz-adv-x="2629" 
d="M1935 1099q84 0 143.5 -59.5t59.5 -143.5t-59.5 -143.5t-143.5 -59.5h-1398v406h1398zM1935 717q74 0 126.5 52.5t52.5 126.5t-52.5 126.5t-126.5 52.5h-1374v-358h1374zM2326 458l242 -458h-494l-189 358h-1324v-358h-438v1434h1891q109 0 208.5 -43t171.5 -115
t115 -171.5t43 -208.5q0 -133 -60.5 -248t-165.5 -190zM1906 370l183 -346h439l-223 423l-10 18l17 12q101 73 157 180q59 110 59 239q0 139 -69 257.5t-187.5 187.5t-257.5 69h-1867v-1386h390v358h1362z" />
    <glyph glyph-name="S.alt1" unicode="&#xf012;" horiz-adv-x="2707" 
d="M1746 896q123 0 217.5 -4.5t190 -17t164.5 -33.5t130.5 -55.5t99.5 -82.5t59.5 -114.5t21.5 -150.5h-1q0 -98 -27.5 -173.5t-83 -127.5t-129 -87t-177 -54.5t-213.5 -27.5t-252 -8h-796q-127 0 -225 5.5t-192 20.5t-162.5 40t-127 64.5t-94 93.5t-55.5 127.5t-20 166.5
h438q0 -24 4.5 -43.5t17 -34.5t24 -26.5t35.5 -20t41 -14.5t51.5 -10t56 -6t65 -3t68 -1h75.5h796q122 0 180 2t130.5 12.5t101.5 36t29 68.5q0 21 -4.5 38t-16.5 30t-24 23.5t-35 18t-41 12.5t-51 8.5t-55.5 5.5t-64 3t-67 1h-73.5h-9h-796q-123 0 -217 4.5t-186.5 16
t-159 32t-124.5 53.5t-93.5 79t-55.5 109t-20 143t20 144.5t56 112t93 82.5t125 58t159 36.5t187 19t216 5.5h796q110 0 197.5 -4.5t172.5 -15t149 -29t121.5 -46t97 -66.5t68.5 -90.5t43 -117.5t14 -148h-438q0 24 -4 43.5t-16 34.5t-22.5 26.5t-33.5 20t-39 14.5t-49 10
t-54 6t-64 3t-67.5 1h-75.5h-796q-120 0 -175.5 -2t-122.5 -10.5t-92 -30t-25 -57.5q0 -81 86.5 -100t306.5 -19h22h796zM2605 462q-3 73 -23.5 131t-56.5 101t-92.5 74t-123 51t-157.5 32t-187 16.5t-219 4.5h-796h-22q-222 0 -294 16q-15 4 -25 6.5t-30.5 12.5t-33.5 22
t-23.5 35t-10.5 51q0 87 133 111q74 13 306 13h796q86 0 128.5 -0.5t97 -5.5t90.5 -15q119 -32 131 -138h391q-5 140 -53 230q-52 96 -155 148q-95 48 -244.5 70t-385.5 22h-796q-433 0 -619 -85q-109 -50 -161 -135.5t-52 -214.5q0 -132 54 -214q53 -80 158 -124
q97 -42 262 -60q150 -16 358 -16h796h9q83 0 124 -1t105.5 -5t96 -14.5t67 -28t49.5 -46t14 -68.5q0 -100 -145 -128q-81 -15 -320 -15h-796q-91 0 -129 0.5t-97 5t-96 14.5q-127 33 -139 139h-391q4 -138 55 -230q53 -95 160 -148q96 -49 247 -70.5t390 -21.5h796
q437 0 632 88q116 53 171.5 142t55.5 224v24z" />
    <glyph glyph-name="T.alt1" unicode="&#xf013;" horiz-adv-x="2594" 
d="M23 1434h2548v-359h-1055v-1075h-438v1075h-1055v359zM2547 1099v311h-2501v-311h1056v-1075h390v1075h1055z" />
    <glyph glyph-name="U.alt1" unicode="&#xf014;" horiz-adv-x="2662" 
d="M2127 1434h438v-717q0 -175 -42 -307.5t-114 -217t-180 -137.5t-229 -74t-271 -21h-796q-151 0 -272 21t-229 74t-180 137.5t-114 217t-42 307.5v717h438v-717q0 -94 19 -164t52 -114t84.5 -71.5t109.5 -38t134 -10.5h796q75 0 133 10.5t109.5 38t84.5 71.5t52 114
t19 164v717zM2541 717v693h-390v-693q0 -237 -118 -337q-100 -85 -304 -85h-796q-205 0 -305 85q-118 102 -118 337v693h-390v-693q0 -211 62 -361q59 -141 167 -223q193 -149 584 -149h796q389 0 582 149q111 84 169 223q61 147 61 361z" />
    <glyph glyph-name="V.alt1" unicode="&#xf015;" horiz-adv-x="2605" 
d="M2098 1434h518l-1115 -1434h-398l-1115 1434h517l797 -1016zM1489 24l1078 1386h-457l-789 -1007l-19 -24l-19 24l-789 1007h-457l1077 -1386h375z" />
    <glyph glyph-name="W.alt1" unicode="&#xf016;" horiz-adv-x="3493" 
d="M3015 1434h477l-677 -1434h-597l-472 1010l-472 -1010h-597l-677 1434h478l522 -1106l513 1106h466l513 -1106zM2800 24l655 1386h-425l-516 -1093l-22 -46l-21 47l-507 1092h-436l-506 -1092l-22 -47l-21 46l-516 1093h-425l654 -1386h567l466 996l21 46l22 -46
l465 -996h567z" />
    <glyph glyph-name="X.alt1" unicode="&#xf017;" horiz-adv-x="2637" 
d="M2632 1434l-995 -717l995 -717h-637l-677 487l-677 -487h-637l996 717l-996 717h637l677 -488l677 488h637zM2558 24l-935 673l-27 20l27 19l935 674h-555l-671 -483l-14 -10l-14 10l-670 483h-556l936 -674l27 -19l-27 -20l-936 -673h556l670 483l14 10l14 -10l671 -483
h555z" />
    <glyph glyph-name="Y.alt1" unicode="&#xf018;" horiz-adv-x="2516" 
d="M1975 1434h557l-1055 -1019v-415h-438v415l-1055 1019h557l717 -689zM1460 432l1013 978h-489l-710 -683l-16 -15l-17 15l-709 683h-489l1012 -978l8 -7v-401h390v401z" />
    <glyph glyph-name="Z.alt1" unicode="&#xf019;" horiz-adv-x="2537" 
d="M2463 1434v-359l-1553 -717h1553v-358h-2389v358l1513 717h-1513v359h2389zM2439 1090v320h-2341v-311h1595l-96 -45l-1499 -711v-319h2341v311h-1638l99 45z" />
    <glyph glyph-name="A.alt2" unicode="&#xf01a;" horiz-adv-x="3647" 
d="M2093 1410h-539l-1501 -1386h527l165 153l7 6h2143l7 -6l165 -153h527zM1089 494l45 41l673 622l17 15l16 -15l673 -622l45 -41h-1469zM1545 1434h557l1553 -1434h-597l-172 159h-2124l-173 -159h-597zM1824 1140l-674 -622h1347z" />
    <glyph glyph-name="B.alt2" unicode="&#xf01b;" horiz-adv-x="3411" 
d="M147 1410v-1386h2788q161 0 275.5 114t114.5 275q0 96 -45 180.5t-124 139.5l-21 15l17 20q93 108 93 253q0 161 -114 275t-275 114h-2709zM537 852v247h2194q51 0 87.5 -36t36.5 -87t-36.5 -87.5t-87.5 -36.5h-2194zM537 335v246h2274q51 0 87 -36t36 -87t-36 -87
t-87 -36h-2274zM123 0v1434h2733q171 0 292 -121t121 -292q0 -153 -99 -268q82 -57 130 -146.5t48 -193.5q0 -171 -121 -292t-292 -121h-2812zM561 1075v-199h2170q41 0 70.5 29.5t29.5 70.5t-29.5 70t-70.5 29h-2170zM561 558v-200h2250q41 0 70 29.5t29 70.5t-29 70.5
t-70 29.5h-2250z" />
    <glyph glyph-name="C.alt2" unicode="&#xf01c;" horiz-adv-x="3549" 
d="M2578 1450h-1592q-455 0 -668 -165q-224 -174 -224 -568q0 -411 239 -583q209 -150 653 -150h1592q423 0 623 120q110 66 174 175q62 107 83 255h-442q-23 -75 -68 -125t-109 -73.5t-123.5 -32t-137.5 -8.5h-1592q-234 0 -339 85q-123 98 -123 337t123 337q105 85 339 85
h1592q78 0 138 -8.5t124 -32t109 -73.5t68 -125h439q-46 285 -259 418q-213 132 -619 132zM986 1473h1592q206 0 360.5 -32t270.5 -102t184 -185.5t90 -277.5h-485q-34 134 -136 186.5t-284 52.5h-1592q-111 0 -188 -17.5t-135.5 -61.5t-87 -122.5t-28.5 -196.5t28.5 -196.5
t87 -122.5t135.5 -61.5t188 -17.5h1592q179 0 282 53t138 186h487q-16 -139 -64.5 -241.5t-123 -170.5t-184 -109.5t-238.5 -59t-297 -17.5h-1592q-175 0 -310.5 21t-252 73.5t-192.5 138t-118.5 217t-42.5 307.5q0 207 58 353t176.5 234.5t285 128.5t396.5 40z" />
    <glyph glyph-name="D.alt2" unicode="&#xf01d;" horiz-adv-x="3495" 
d="M2553 1410h-2406v-1386h2406q217 0 372 32q164 35 265 109q107 79 159 210q55 137 55 342q0 371 -215 537q-202 156 -636 156zM537 335v764h2016q230 0 333 -70q128 -88 128 -312q0 -93 -22 -161t-60 -110.5t-98 -67.5t-126 -34t-155 -9h-2016zM123 1434h2430
q219 0 378 -38t272.5 -122t169 -222.5t55.5 -334.5q0 -168 -37 -291.5t-106 -205t-179 -131t-242.5 -69.5t-310.5 -20h-2430v1434zM561 1075v-717h1992q86 0 148.5 8t120 31.5t93 62.5t56 103.5t20.5 153.5t-20.5 153t-55.5 103.5t-92 62.5t-120 31t-150 8h-1992z" />
    <glyph glyph-name="E.alt2" unicode="&#xf01e;" horiz-adv-x="3284" 
d="M3165 1410h-3018v-1386h3018v311h-2628v226h2549v311h-2549v227h2628v311zM123 1434h3066v-359h-2628v-179h2549v-358h-2549v-180h2628v-358h-3066v1434z" />
    <glyph glyph-name="F.alt2" unicode="&#xf01f;" horiz-adv-x="3362" 
d="M3285 1410h-3138v-1386h390v537h2668v311h-2668v227h2748v311zM123 1434h3186v-359h-2748v-179h2668v-358h-2668v-538h-438v1434z" />
    <glyph glyph-name="G.alt2" unicode="&#xf020;" horiz-adv-x="3588" 
d="M2578 1450h-1592q-455 0 -668 -165q-224 -174 -224 -568q0 -411 239 -583q209 -150 653 -150h1592q387 0 586 100l35 17v-77h271v709h-2062v-271h1583l-31 -39q-53 -67 -145 -97.5t-237 -30.5h-1592q-234 0 -339 85q-123 98 -123 337t123 337q105 85 339 85h1592
q72 0 128.5 -7t117 -26.5t106.5 -61t72 -104.5h446q-55 264 -265 387t-605 123zM986 1473h1592q402 0 624.5 -130t274.5 -427h-491q-41 111 -140.5 155t-267.5 44h-1592q-111 0 -187.5 -17.5t-135.5 -61.5t-87 -122.5t-28 -196.5t28 -196.5t87 -122.5t135.5 -61.5
t187.5 -17.5h1592q132 0 221.5 27t141.5 92h-1557v319h2109v-757h-318v63q-205 -103 -597 -103h-1592q-175 0 -310.5 21t-252 73.5t-192.5 138t-118.5 217t-42.5 307.5q0 207 58 353t176.5 234.5t285 128.5t396.5 40z" />
    <glyph glyph-name="H.alt2" unicode="&#xf021;" horiz-adv-x="3510" 
d="M3364 1410h-390v-538h-2437v538h-390v-1386h390v537h2437v-537h390v1386zM2950 1434h438v-1434h-438v538h-2389v-538h-438v1434h438v-538h2389v538z" />
    <glyph glyph-name="I.alt2" unicode="&#xf022;" horiz-adv-x="2277" 
d="M2130 1410h-1983v-1386h1983v1386zM123 1434h2031v-1434h-2031v1434z" />
    <glyph glyph-name="J.alt2" unicode="&#xf023;" horiz-adv-x="3317" 
d="M3197 1410h-391v-693q0 -231 -112 -336q-93 -86 -269 -86h-1593q-178 0 -271 86q-106 97 -112 312h-390q3 -195 61 -337q56 -137 164 -223q189 -149 548 -149h1593q359 0 547 149q108 86 164 223q61 147 61 361v693zM2783 1434h438v-717q0 -146 -28 -263t-81.5 -199
t-124 -140t-162.5 -91.5t-189 -48.5t-211 -15h-1593q-139 0 -252.5 21t-217 74t-174 137t-112 217.5t-41.5 307.5h438q0 -93 18.5 -163.5t50 -114.5t78 -71.5t97.5 -38t115 -10.5h1593q63 0 113.5 10.5t97.5 38t78.5 71.5t50 114.5t18.5 163.5v717z" />
    <glyph glyph-name="K.alt2" unicode="&#xf024;" horiz-adv-x="3270" 
d="M3129 1410h-732l-1828 -645l-32 -12v657h-390v-1386h390v471l16 5l189 67l8 3l7 -3l1600 -543h767l-1933 656l-65 23l65 23zM2393 1434h876l-2070 -731l2070 -703h-916l-1603 544l-189 -66v-478h-438v1434h438v-647z" />
    <glyph glyph-name="L.alt2" unicode="&#xf025;" horiz-adv-x="3174" 
d="M537 1410h-390v-1386h2978v311h-2588v1075zM123 1434h438v-1076h2588v-358h-3026v1434z" />
    <glyph glyph-name="M.alt2" unicode="&#xf026;" horiz-adv-x="3909" 
d="M3763 1410h-525l-1267 -1170l-16 -15l-17 15l-1267 1170h-524v-1386h390v1097l40 -37l1148 -1060h459l1148 1060l40 37v-1097h391v1386zM3229 1434h558v-1434h-439v1066l-1154 -1066h-478l-1155 1066v-1066h-438v1434h557l1275 -1177z" />
    <glyph glyph-name="N.alt2" unicode="&#xf027;" horiz-adv-x="3551" 
d="M3404 1410h-390v-1031l-33 14l-2385 1017h-449v-1386h390v1030l33 -14l2385 -1016h449v1386zM2990 1434h438v-1434h-478l-2389 1018v-1018h-438v1434h478l2389 -1019v1019z" />
    <glyph glyph-name="O.alt2" unicode="&#xf028;" horiz-adv-x="3565" 
d="M2918 1054q122 -98 122 -337q0 -108 -26 -186t-66.5 -123t-104 -71t-124 -34t-141.5 -8h-1592q-234 0 -339 85q-123 98 -123 337t123 337q105 85 339 85h1592q235 0 340 -85zM2578 319q110 0 186.5 17.5t135.5 61.5t87.5 123t28.5 196q0 118 -27.5 196.5t-86 122.5
t-135.5 61.5t-189 17.5h-1592q-111 0 -188 -17.5t-135.5 -61.5t-87 -122.5t-28.5 -196.5t28.5 -196.5t87 -122.5t135.5 -61.5t188 -17.5h1592zM2578 1473q229 0 395.5 -40t285 -128.5t177 -234.5t58.5 -353q0 -177 -39 -307.5t-111 -216.5t-187 -138t-254 -73.5t-325 -21.5
h-1592q-175 0 -310.5 21t-252 73.5t-192.5 138t-118.5 217t-42.5 307.5q0 207 58 353t176.5 234.5t285 128.5t396.5 40h1592zM3246 134q112 84 167 221q57 143 57 362q0 394 -225 568q-213 165 -667 165h-1592q-455 0 -668 -165q-224 -174 -224 -568q0 -413 238 -583
q209 -150 654 -150h1592q233 0 390 34q171 36 278 116z" />
    <glyph glyph-name="P.alt2" unicode="&#xf029;" horiz-adv-x="3274" 
d="M2612 1099q84 0 143.5 -59.5t59.5 -143.5t-59.5 -143.5t-143.5 -59.5h-2075v406h2075zM2612 717q74 0 126.5 52.5t52.5 126.5t-52.5 126.5t-126.5 52.5h-2051v-358h2051zM2691 1434q109 0 208.5 -43t171.5 -115t115 -171.5t43 -208.5t-43 -208.5t-115 -171.5t-171.5 -115
t-208.5 -43h-2130v-358h-438v1434h2568zM2691 382q139 0 257.5 69t187.5 187.5t69 257.5t-69 257.5t-187.5 187.5t-257.5 69h-2544v-1386h390v358h2154z" />
    <glyph glyph-name="Q.alt2" unicode="&#xf02a;" horiz-adv-x="3573" 
d="M3494 717q0 -324 -128 -497l89 -88l-239 -238l-131 131q-188 -65 -507 -65h-1592q-175 0 -310.5 21t-252 73.5t-192.5 138t-118.5 217t-42.5 307.5q0 207 58 353t176.5 234.5t285 128.5t396.5 40h1592q229 0 395.5 -40t285 -128.5t177 -234.5t58.5 -353zM3421 132l-72 72
l-14 14l12 17q123 167 123 482q0 394 -225 568q-213 165 -667 165h-1592q-455 0 -668 -165q-224 -174 -224 -568q0 -413 238 -583q209 -150 654 -150h1592q316 0 499 63l14 5l125 -125zM2918 1054q122 -98 122 -337q0 -79 -12 -140l-9 -43l-31 31l-121 118l-205 -205
l127 -123l30 -30l-41 -11q-79 -19 -200 -19h-1592q-234 0 -339 85q-123 98 -123 337t123 337q105 85 339 85h1592q235 0 340 -85zM3004 582q12 58 12 135q0 118 -27.5 196.5t-86 122.5t-135.5 61.5t-189 17.5h-1592q-111 0 -188 -17.5t-135.5 -61.5t-87 -122.5t-28.5 -196.5
t28.5 -196.5t87 -122.5t135.5 -61.5t188 -17.5h1592q118 0 194 19l-144 140l239 239z" />
    <glyph glyph-name="R.alt2" unicode="&#xf02b;" horiz-adv-x="3424" 
d="M3120 458l242 -458h-494l-189 358h-2118v-358h-438v1434h2686q109 0 208.5 -43t171.5 -115t114.5 -171.5t42.5 -208.5q0 -133 -60.5 -248t-165.5 -190zM2700 370l183 -346h439l-223 423l-10 18l17 12q101 73 157 180q59 110 59 239q0 139 -68.5 257.5t-187 187.5
t-257.5 69h-2662v-1386h390v358h2157zM2729 1099q84 0 143.5 -59.5t59.5 -143.5t-59.5 -143.5t-143.5 -59.5h-2192v406h2192zM2729 717q74 0 126.5 52.5t52.5 126.5t-52.5 126.5t-126.5 52.5h-2168v-358h2168z" />
    <glyph glyph-name="S.alt2" unicode="&#xf02c;" horiz-adv-x="3497" 
d="M2537 896q123 0 217.5 -4.5t190 -17t164.5 -33.5t130.5 -55.5t99.5 -82.5t59.5 -114.5t21.5 -150.5h-1q0 -98 -27.5 -173.5t-83 -127.5t-129 -87t-177 -54.5t-213.5 -27.5t-252 -8h-1587q-127 0 -225 5.5t-192 20.5t-162.5 40t-127 64.5t-94 93.5t-55.5 127.5t-20 166.5
h438q0 -24 4.5 -43.5t17 -34.5t24 -26.5t35.5 -20t41 -14.5t51.5 -10t56 -6t65 -3t68 -1h75.5h1587q122 0 180 2t130.5 12.5t101.5 36t29 68.5q0 21 -5 38t-16.5 30t-24 23.5t-35.5 18t-41 12.5t-51 8.5t-55.5 5.5t-64 3t-67 1h-73.5h-8h-1587q-123 0 -217 4.5t-186.5 16
t-159 32t-124.5 53.5t-93.5 79t-55.5 109t-20 143t20 144.5t56 112t93 82.5t125 58t159 36.5t187 19t216 5.5h1587q149 0 258.5 -8t212 -28.5t171 -57.5t120.5 -94t76 -139t24 -190h-438q0 24 -4 43.5t-15.5 34.5t-22.5 26.5t-33.5 20t-38.5 14.5t-49.5 10t-54 6t-63.5 3
t-67.5 1h-75.5h-1587q-120 0 -175.5 -2t-122.5 -10.5t-92 -30t-25 -57.5q0 -81 86.5 -100t306.5 -19h22h1587zM3395 462q-3 85 -29.5 149.5t-78.5 109.5t-120.5 75t-168.5 46.5t-208.5 23t-252.5 6.5h-1587h-22q-222 0 -294 16q-15 4 -25 6.5t-30.5 12.5t-33.5 22t-23.5 35
t-10.5 51q0 87 133 111q74 13 306 13h1587q86 0 128 -0.5t96.5 -5.5t90.5 -15q120 -33 132 -138h391q-5 140 -53 230q-51 95 -156 148q-95 48 -244 70t-385 22h-1587q-433 0 -619 -85q-109 -50 -161 -135.5t-52 -214.5q0 -132 54 -214q53 -80 158 -124q97 -42 262 -60
q150 -16 358 -16h1587h8h75t69.5 -1t67.5 -3.5t58.5 -6t54 -10t44 -15t38.5 -20.5t26.5 -27.5t18.5 -35.5t5 -44q0 -100 -146 -128q-81 -15 -319 -15h-1587q-91 0 -129 0.5t-97 5t-96 14.5q-127 33 -139 139h-391q4 -138 55 -230q53 -95 160 -148q96 -49 247 -70.5
t390 -21.5h1587q436 0 631 88q116 53 171.5 142t55.5 224v24z" />
    <glyph glyph-name="T.alt2" unicode="&#xf02d;" horiz-adv-x="3391" 
d="M23 1434h3345v-359h-1454v-1075h-438v1075h-1453v359zM3344 1099v311h-3298v-311h1454v-1075h390v1075h1454z" />
    <glyph glyph-name="U.alt2" unicode="&#xf02e;" horiz-adv-x="3459" 
d="M2924 1434h438v-717q0 -175 -42 -307.5t-114.5 -217t-180.5 -137.5t-229 -74t-271 -21h-1592q-151 0 -272 21t-229 74t-180 137.5t-114 217t-42 307.5v717h438v-717q0 -94 19 -164t52 -114t84.5 -71.5t109.5 -38t134 -10.5h1592q95 0 164 18t124 61t83 122.5t28 196.5
v717zM3338 717v693h-390v-693q0 -236 -119 -337q-100 -85 -304 -85h-1592q-205 0 -305 85q-118 102 -118 337v693h-390v-693q0 -211 62 -361q59 -141 167 -223q193 -149 584 -149h1592q390 0 583 149q109 83 168 223q62 150 62 361z" />
    <glyph glyph-name="V.alt2" unicode="&#xf02f;" horiz-adv-x="3473" 
d="M2930 1434h558l-1553 -1434h-398l-1553 1434h557l1195 -1103zM1926 24l1501 1386h-487l-1188 -1097l-16 -15l-16 15l-1188 1097h-487l1501 -1386h380z" />
    <glyph glyph-name="W.alt2" unicode="&#xf030;" horiz-adv-x="4288" 
d="M3817 1434h478l-876 -1434h-598l-677 1099l-677 -1099h-597l-876 1434h478l721 -1181l712 1181h478l712 -1181zM3405 24l847 1386h-422l-715 -1170l-20 -33l-20 33l-705 1170h-451l-705 -1170l-20 -33l-21 33l-715 1170h-422l847 -1386h571l670 1087l20 33l21 -33
l670 -1087h570z" />
    <glyph glyph-name="X.alt2" unicode="&#xf031;" horiz-adv-x="3430" 
d="M3427 1434l-1354 -717l1354 -717h-717l-996 527l-995 -527h-717l1354 717l-1354 717h717l995 -527l996 527h717zM3331 24l-1269 672l-40 21l40 21l1269 672h-615l-990 -525l-12 -5l-11 5l-990 525h-615l1269 -672l40 -21l-40 -21l-1269 -672h615l990 524l11 6l12 -6
l990 -524h615z" />
    <glyph glyph-name="Y.alt2" unicode="&#xf032;" horiz-adv-x="3305" 
d="M2727 1434h598l-1454 -1069v-365h-438v365l-1453 1069h597l1075 -789zM1857 384l1395 1026h-517l-1069 -784l-14 -11l-14 11l-1069 784h-517l1395 -1026l10 -7v-353h390v353z" />
    <glyph glyph-name="Z.alt2" unicode="&#xf033;" horiz-adv-x="3334" 
d="M3260 1434v-359l-2151 -717h2151v-358h-3186v358l2110 717h-2110v359h3186zM3236 1092v318h-3138v-311h2231l-137 -46l-2094 -712v-317h3138v311h-2274l140 46z" />
    </font>
</defs>
</svg>
